<svg xmlns="http://www.w3.org/2000/svg" xmlns:xlink="http://www.w3.org/1999/xlink" viewBox="0 0 401.34 404.26"><defs><style>.cls-1{isolation:isolate;}.cls-2{fill:#ad7efe;}.cls-10,.cls-11,.cls-12,.cls-13,.cls-14,.cls-15,.cls-17,.cls-2,.cls-3,.cls-4,.cls-5,.cls-6,.cls-7,.cls-8,.cls-9{stroke:#136363;stroke-miterlimit:10;}.cls-3{fill:#e5cdb1;}.cls-4{mix-blend-mode:soft-light;fill:url(#Degradado_sin_nombre_7);}.cls-5{fill:url(#Degradado_sin_nombre_13);}.cls-6{fill:url(#Degradado_sin_nombre_7-2);}.cls-7{fill:url(#Degradado_sin_nombre_7-3);}.cls-8{fill:url(#Degradado_sin_nombre_7-4);}.cls-9{fill:url(#Degradado_sin_nombre_7-5);}.cls-10{fill:#0a9396;}.cls-11,.cls-16{fill:#1ba3ac;}.cls-12{fill:#fef593;}.cls-13{fill:#fcc5db;}.cls-14{fill:#5e5c5d;}.cls-15{fill:#136363;}.cls-17{fill:none;}.cls-18{fill:#96abf9;}.cls-19{fill:#fff499;}</style><linearGradient id="Degradado_sin_nombre_7" x1="109.64" y1="105.52" x2="290.38" y2="105.52" gradientUnits="userSpaceOnUse"><stop offset="0" stop-color="#fcc5db"/><stop offset="0.33" stop-color="#f9c2dd"/><stop offset="0.61" stop-color="#eeb8e5"/><stop offset="0.86" stop-color="#dda8f2"/><stop offset="1" stop-color="#d09bfc"/></linearGradient><radialGradient id="Degradado_sin_nombre_13" cx="200.67" cy="210.16" r="139.39" gradientUnits="userSpaceOnUse"><stop offset="0" stop-color="#0a9396"/><stop offset="1"/></radialGradient><linearGradient id="Degradado_sin_nombre_7-2" x1="86.15" y1="127.52" x2="319" y2="127.52" xlink:href="#Degradado_sin_nombre_7"/><linearGradient id="Degradado_sin_nombre_7-3" x1="97.95" y1="121.19" x2="109.21" y2="121.19" xlink:href="#Degradado_sin_nombre_7"/><linearGradient id="Degradado_sin_nombre_7-4" x1="86.15" y1="237.17" x2="86.15" y2="237.17" xlink:href="#Degradado_sin_nombre_7"/><linearGradient id="Degradado_sin_nombre_7-5" x1="319" y1="237.71" x2="319" y2="237.71" xlink:href="#Degradado_sin_nombre_7"/></defs><title>box1</title><g class="cls-1"><g id="Capa_2" data-name="Capa 2"><g id="Capa_1-2" data-name="Capa 1"><g id="Capa_4" data-name="Capa 4"><path class="cls-2" d="M131.17,301.74h5.38v4.08h-5.38Z"/><g id="Ventana"><g id="puerta"><path class="cls-3" d="M24.61,106.38,197.2,12.93l185.87,92.43Z"/><path class="cls-4" d="M290.38,127.52H109.64V99.68h8.14c28.5-14.61,82.78-16.16,82.78-16.16,38,.86,78,15.47,81.42,18.74l8.4.34Z"/><path class="cls-5" d="M343.9,345.59H57.44V94.85L117,92.39c3-1.49,7.42-3.53,12.82-5.65,30.08-11.81,56-12,67.9-12,40.3,0,72.57,12.81,89.55,20.9l56.68-.78Z"/><line class="cls-6" x1="319" y1="127.52" x2="86.15" y2="127.52"/><path class="cls-7" d="M109.21,127.27h0"/><line class="cls-8" x1="86.15" y1="127.52" x2="86.15" y2="346.83"/><line class="cls-9" x1="319" y1="127.52" x2="319" y2="347.91"/><polygon class="cls-10" points="109.64 127.52 86.15 127.52 58.06 95.56 81.42 93.79 109.64 127.52"/><polygon class="cls-10" points="291.39 127.52 319 127.52 343.14 95.34 319.75 95.34 291.39 127.52"/></g><rect class="cls-11" x="20.93" y="380.44" width="345.78" height="22.79"/><g id="base"><rect class="cls-3" x="0.5" y="345.59" width="400.34" height="34.95"/><ellipse class="cls-12" cx="42.73" cy="363.99" rx="11.59" ry="9.59"/><ellipse class="cls-12" cx="198.76" cy="363.24" rx="11.59" ry="9.59"/><ellipse class="cls-12" cx="335.03" cy="363.99" rx="11.59" ry="9.59"/><line class="cls-13" x1="14.5" y1="345.76" x2="14.5" y2="380.71"/><line class="cls-13" x1="386.25" y1="345.59" x2="386.25" y2="380.54"/><rect class="cls-14" x="20.93" y="380.89" width="19.28" height="14.55"/><polyline class="cls-14" points="40.21 395.44 48.34 403.1 48.34 388.17 40.21 380.89"/><polyline class="cls-14" points="21.27 395.25 30.91 403.68 48.68 403.68"/><rect class="cls-14" x="74.73" y="380.6" width="19.28" height="14.55"/><polyline class="cls-14" points="94.01 395.16 102.14 402.82 102.14 387.88 94.01 380.6"/><polyline class="cls-14" points="75.07 394.96 84.72 403.39 102.48 403.39"/><rect class="cls-14" x="141.98" y="380.6" width="19.28" height="14.55"/><polyline class="cls-14" points="161.27 395.16 169.4 402.82 169.4 387.88 161.27 380.6"/><polyline class="cls-14" points="142.33 394.96 151.97 403.39 169.74 403.39"/><rect class="cls-14" x="273.15" y="380.6" width="19.28" height="14.55" transform="translate(565.57 775.76) rotate(-180)"/><polyline class="cls-14" points="273.14 395.16 265.02 402.82 265.02 387.88 273.14 380.6"/><polyline class="cls-14" points="292.08 394.96 282.44 403.39 264.67 403.39"/><rect class="cls-14" x="335.74" y="380.71" width="19.28" height="14.55" transform="translate(690.76 775.98) rotate(-180)"/><polyline class="cls-14" points="335.74 395.27 327.61 402.93 327.61 387.99 335.74 380.71"/><polyline class="cls-14" points="354.68 395.07 345.04 403.5 327.27 403.5"/><rect class="cls-14" x="205.48" y="380.89" width="24.77" height="14.55"/><polygon class="cls-14" points="228.97 403.39 208.28 403.68 205.48 395.44 230.24 395.44 228.97 403.39"/></g><rect class="cls-11" x="110.15" y="126.77" width="179.72" height="217.99"/><polyline class="cls-11" points="136.4 301.54 141.04 301.54 141.04 293.37 8.66 293.37 12.72 301.54 15.56 301.54 130.78 301.54"/><path class="cls-11" d="M136.4,301.54h0Z"/><line class="cls-11" x1="83.38" y1="301.54" x2="83.38" y2="293.37"/><line class="cls-11" x1="73.84" y1="305.62" x2="77.69" y2="305.62"/><polyline class="cls-11" points="26.53 301.54 67.75 301.54 67.75 293.37 10.79 293.37 26.53 293.37 26.53 301.54"/><line class="cls-11" x1="21.05" y1="314.3" x2="16.17" y2="314.3"/><line class="cls-11" x1="23.89" y1="326.81" x2="23.89" y2="318.64"/><line class="cls-11" x1="16.17" y1="330.64" x2="21.05" y2="330.64"/><line class="cls-11" x1="43.79" y1="326.81" x2="43.79" y2="318.64"/><line class="cls-11" x1="51.3" y1="330.64" x2="47.03" y2="330.64"/><line class="cls-11" x1="54.14" y1="318.64" x2="54.14" y2="326.81"/><line class="cls-11" x1="73.02" y1="331.67" x2="77.69" y2="331.67"/><polyline class="cls-11" points="81.75 326.81 81.75 318.64 77.69 318.64 77.69 301.54 73.84 301.54 73.84 318.64 69.57 318.64 69.57 326.81"/><line class="cls-11" x1="108.15" y1="330.64" x2="102.87" y2="330.64"/><line class="cls-11" x1="121.35" y1="293.37" x2="121.35" y2="301.54"/><polyline class="cls-11" points="136.55 305.82 136.55 318.21 88.14 318.64 21.05 318.64 21.05 301.54 16.17 301.54 16.17 344.48 21.05 344.48 21.05 326.81 47.03 326.81 47.03 344.48 51.3 344.48 51.3 326.81 73.02 326.81 73.02 344.48 77.69 344.48 77.69 326.81 81.46 326.81 82.31 326.81 102.87 326.81 102.87 344.48 108.15 344.48 108.15 330.64 108.19 326.81 130.78 327.02 131.17 344.25 136.4 344.25 136.55 318.21"/><polyline class="cls-11" points="136.55 301.19 136.55 305.27 131.17 305.27 131.17 301.19 131.17 318.21 136.55 318.21 136.55 305.82"/><polyline class="cls-11" points="262.47 301.38 257.83 301.38 257.83 293.21 390.21 293.21 386.15 301.38 383.31 301.38 268.1 301.38"/><path class="cls-11" d="M262.47,301.39h0Z"/><line class="cls-11" x1="315.49" y1="301.39" x2="315.49" y2="293.21"/><line class="cls-11" x1="325.04" y1="305.47" x2="321.18" y2="305.47"/><polyline class="cls-11" points="372.34 301.38 331.13 301.38 331.13 293.21 388.08 293.21 372.34 293.21 372.34 301.38"/><line class="cls-11" x1="377.83" y1="314.15" x2="382.7" y2="314.15"/><line class="cls-11" x1="374.98" y1="326.66" x2="374.98" y2="318.49"/><line class="cls-11" x1="382.7" y1="330.49" x2="377.83" y2="330.49"/><line class="cls-11" x1="355.09" y1="326.66" x2="355.09" y2="318.49"/><line class="cls-11" x1="347.57" y1="330.49" x2="351.84" y2="330.49"/><line class="cls-11" x1="344.73" y1="318.49" x2="344.73" y2="326.66"/><line class="cls-11" x1="325.85" y1="331.51" x2="321.18" y2="331.51"/><polyline class="cls-11" points="317.12 326.66 317.12 318.49 321.18 318.49 321.18 301.38 325.04 301.38 325.04 318.49 329.3 318.49 329.3 326.66"/><line class="cls-11" x1="290.72" y1="330.49" x2="296" y2="330.49"/><line class="cls-11" x1="277.52" y1="293.21" x2="277.52" y2="301.39"/><polyline class="cls-11" points="262.32 305.67 262.32 318.05 310.73 318.49 377.83 318.49 377.83 301.38 382.7 301.38 382.7 344.32 377.83 344.32 377.83 326.66 351.84 326.66 351.84 344.32 347.57 344.32 347.57 326.66 325.85 326.66 325.85 344.32 321.18 344.32 321.18 326.66 317.42 326.66 316.56 326.66 296 326.66 296 344.32 290.72 344.32 290.72 330.49 290.68 326.66 268.1 326.87 267.7 344.09 262.47 344.09 262.32 318.05"/><polyline class="cls-11" points="262.32 301.03 262.32 305.12 267.7 305.12 267.7 301.03 267.7 318.05 262.32 318.05 262.32 305.67"/></g><g id="techo"><path class="cls-15" d="M6.24,97.56v12.08c17.7,6.22,48.91,5.61,64.63.21,14.5-5,13.8-17,13.8-17"/><line class="cls-11" x1="85.11" y1="135.19" x2="6.24" y2="109.64"/><path class="cls-15" d="M400.38,97.8v12.08c-23.38,8-49.45,3.93-66.18-2.17-7.89-2.88-13.83-11.78-13.83-11.78"/><line class="cls-11" x1="400.38" y1="109.88" x2="319.84" y2="135.43"/><path class="cls-10" d="M154.7,38.12c12.47-7.66,27.34-12.34,47.49-10.87h2c90.32,4.49,76.45,91.89,181.08,73.52,4.76-.83,14.34-1.38,15-3,1.82,0-13-3.45-19.37-4.56C348.22,87.51,313,57,313,57,284.19,32.18,266,5.59,207.46.7l0,0c-1.59-.06-3.19-.09-4.81-.09s-2.16,0-3.61.07v0C101.72,8.82,117.83,76.06,6.24,97.52c0,0,0,0,0,0,3.65,3.64,3.76,2.43,8.49,3.26,79.2,13.9,101.14-38.86,140-62.7"/><line class="cls-10" x1="210.16" y1="0.75" x2="210.26" y2="0.8"/><polygon class="cls-11" points="186.19 66.35 192.1 58.09 182.59 61.65 190.67 55.5 180.54 56.1 190.07 52.6 180.21 50.19 190.34 49.66 181.64 44.44 191.48 46.92 184.69 39.37 193.37 44.64 189.11 35.43 195.85 43.02 194.49 32.96 198.69 42.21 200.36 32.19 201.65 42.26 206.2 33.19 204.46 43.19 211.48 35.86 206.88 44.9 215.75 39.97 208.68 47.25 218.61 45.15 209.71 50.03 219.81 50.95 209.87 52.98 219.26 56.84 209.16 55.86 216.99 62.31 207.63 58.39 213.21 66.87 205.42 60.36 208.25 70.11 202.73 61.6 202.56 71.75 199.79 61.98 196.65 71.63 196.87 61.48 191.02 69.78 194.23 60.15 186.19 66.35"/></g><path class="cls-16" d="M148.58,81.88c-12.37,2.64-21.58,5.05-31.2,10.74-.07,0,1.09-.87-1.39.79l-3.79.75c-.25,0-3-1.62-2.74.53v29.63a.51.51,0,0,0,.46.54H144a.43.43,0,0,0,.3-.13C158.15,111,138,108.27,136,105.3a4.57,4.57,0,0,1-.88-3,3,3,0,0,1,.75-1.62c1.56-1.56,5.25-1.37,5.21.72a6.18,6.18,0,0,1-1.51,3.75c2.22-4.62-1.73-3.88-1.73-3.88a4,4,0,0,0-1.1,1.09c-.35.54.26,1.34,1.16,2.47.65.84,7,4.1,7,4.1,9.21-4.8,5.23-13.66,3.62-15.65a.58.58,0,0,1,.15-.86c9-4.26,1.4-9.69.23-10.47A.35.35,0,0,0,148.58,81.88Z"/><path class="cls-17" d="M148.58,81.88c-12.37,2.64-21.58,5.05-31.2,10.74-.07,0,1.09-.87-1.39.79l-3.79.75c-.25,0-3-1.62-2.74.53v29.63a.51.51,0,0,0,.46.54H144a.43.43,0,0,0,.3-.13C158.15,111,138,108.27,136,105.3a4.57,4.57,0,0,1-.88-3,3,3,0,0,1,.75-1.62c1.56-1.56,5.25-1.37,5.21.72a6.18,6.18,0,0,1-1.51,3.75c2.22-4.62-1.73-3.88-1.73-3.88a4,4,0,0,0-1.1,1.09c-.35.54.26,1.34,1.16,2.47.65.84,7,4.1,7,4.1,9.21-4.8,5.23-13.66,3.62-15.65a.58.58,0,0,1,.15-.86c9-4.26,1.4-9.69.23-10.47A.35.35,0,0,0,148.58,81.88Z"/><path class="cls-18" d="M148.58,81.88c-12.37,2.64-21.58,5.05-31.2,10.74-.07,0,1.09-.87-1.39.79l-3.79.75c-.25,0-3-1.62-2.74.53v29.63a.51.51,0,0,0,.46.54H144a.43.43,0,0,0,.3-.13C158.15,111,138,108.27,136,105.3a4.57,4.57,0,0,1-.88-3,3,3,0,0,1,.75-1.62c1.56-1.56,5.25-1.37,5.21.72a6.18,6.18,0,0,1-1.51,3.75c2.22-4.62-1.73-3.88-1.73-3.88a4,4,0,0,0-1.1,1.09c-.35.54.26,1.34,1.16,2.47.65.84,7,4.1,7,4.1,9.21-4.8,5.23-13.66,3.62-15.65a.58.58,0,0,1,.15-.86c9-4.26,1.4-9.69.23-10.47A.35.35,0,0,0,148.58,81.88Z"/><path class="cls-19" d="M148.58,81.88c-12.37,2.64-21.58,5.05-31.2,10.74-.07,0,1.09-.87-1.39.79l-3.79.75c-.25,0-3-1.62-2.74.53v29.63a.51.51,0,0,0,.46.54H144a.43.43,0,0,0,.3-.13C158.15,111,138,108.27,136,105.3a4.57,4.57,0,0,1-.88-3,3,3,0,0,1,.75-1.62c1.56-1.56,5.25-1.37,5.21.72a6.18,6.18,0,0,1-1.51,3.75c2.22-4.62-1.73-3.88-1.73-3.88a4,4,0,0,0-1.1,1.09c-.35.54.26,1.34,1.16,2.47.65.84,7,4.1,7,4.1,9.21-4.8,5.23-13.66,3.62-15.65a.58.58,0,0,1,.15-.86c9-4.26,1.4-9.69.23-10.47A.35.35,0,0,0,148.58,81.88Z"/><path d="M253.5,82.76c11.75,2.41,21.62,6.93,30.76,12.11.06,0,.22.27.29.27l6.12,1a.47.47,0,0,1,.44.48v27c0,.26-.49,2.44-.73,2.44h-30a17.38,17.38,0,0,1-1.91,0c-13.14-12.48,5.58-17.06,7.43-19.76a4.08,4.08,0,0,0,.83-2.74,2.64,2.64,0,0,0-.71-1.49c-1.49-1.41-5-1.24-4.95.66a5.44,5.44,0,0,0,1.44,3.41c-2.11-4.2,1.64-3.53,1.64-3.53a3.84,3.84,0,0,1,1,1c.32.49-.26,1.22-1.1,2.25-.63.76-6.64,3.73-6.64,3.73-8.74-4.37-5-12.44-3.43-14.25a.51.51,0,0,0-.14-.78c-8.5-3.88-1.33-8.83-.22-9.54C253.77,84.94,253.4,82.73,253.5,82.76Z"/><path class="cls-17" d="M253.5,82.76c11.75,2.41,21.62,6.93,30.76,12.11.06,0,.22.27.29.27l6.12,1a.47.47,0,0,1,.44.48v27c0,.26-.49,2.44-.73,2.44h-30a17.38,17.38,0,0,1-1.91,0c-13.14-12.48,5.58-17.06,7.43-19.76a4.08,4.08,0,0,0,.83-2.74,2.64,2.64,0,0,0-.71-1.49c-1.49-1.41-5-1.24-4.95.66a5.44,5.44,0,0,0,1.44,3.41c-2.11-4.2,1.64-3.53,1.64-3.53a3.84,3.84,0,0,1,1,1c.32.49-.26,1.22-1.1,2.25-.63.76-6.64,3.73-6.64,3.73-8.74-4.37-5-12.44-3.43-14.25a.51.51,0,0,0-.14-.78c-8.5-3.88-1.33-8.83-.22-9.54C253.77,84.94,253.4,82.73,253.5,82.76Z"/><path class="cls-18" d="M253.5,82.76c11.75,2.41,21.62,6.93,30.76,12.11.06,0,.22.27.29.27l6.12,1a.47.47,0,0,1,.44.48v27c0,.26-.49,2.44-.73,2.44h-30a17.38,17.38,0,0,1-1.91,0c-13.14-12.48,5.58-17.06,7.43-19.76a4.08,4.08,0,0,0,.83-2.74,2.64,2.64,0,0,0-.71-1.49c-1.49-1.41-5-1.24-4.95.66a5.44,5.44,0,0,0,1.44,3.41c-2.11-4.2,1.64-3.53,1.64-3.53a3.84,3.84,0,0,1,1,1c.32.49-.26,1.22-1.1,2.25-.63.76-6.64,3.73-6.64,3.73-8.74-4.37-5-12.44-3.43-14.25a.51.51,0,0,0-.14-.78c-8.5-3.88-1.33-8.83-.22-9.54C253.77,84.94,253.4,82.73,253.5,82.76Z"/><path class="cls-19" d="M253.5,82.76c11.75,2.41,21.62,6.93,30.76,12.11.06,0,.22.27.29.27l6.12,1a.47.47,0,0,1,.44.48v27c0,.26-.49,2.44-.73,2.44h-30a17.38,17.38,0,0,1-1.91,0c-13.14-12.48,5.58-17.06,7.43-19.76a4.08,4.08,0,0,0,.83-2.74,2.64,2.64,0,0,0-.71-1.49c-1.49-1.41-5-1.24-4.95.66a5.44,5.44,0,0,0,1.44,3.41c-2.11-4.2,1.64-3.53,1.64-3.53a3.84,3.84,0,0,1,1,1c.32.49-.26,1.22-1.1,2.25-.63.76-6.64,3.73-6.64,3.73-8.74-4.37-5-12.44-3.43-14.25a.51.51,0,0,0-.14-.78c-8.5-3.88-1.33-8.83-.22-9.54C253.77,84.94,253.4,82.73,253.5,82.76Z"/></g></g></g></g></svg>