<svg xmlns="http://www.w3.org/2000/svg" xmlns:xlink="http://www.w3.org/1999/xlink" viewBox="0 0 481.87 502.92"><defs><style>.cls-1{isolation:isolate;}.cls-2,.cls-4,.cls-9{fill:#d97671;}.cls-10,.cls-2,.cls-3,.cls-4,.cls-5,.cls-6,.cls-7,.cls-8{stroke:#7a1715;stroke-miterlimit:10;}.cls-3{fill:#e5cdb1;}.cls-4{mix-blend-mode:soft-light;}.cls-5{fill:url(#Degradado_sin_nombre_16);}.cls-6{fill:#a52020;}.cls-7{fill:#fef593;}.cls-8{fill:#5e5c5d;}.cls-10{fill:none;}.cls-11{fill:#96abf9;}.cls-12{fill:#fff499;}</style><radialGradient id="Degradado_sin_nombre_16" cx="200.67" cy="210.14" r="139.39" gradientTransform="translate(-0.1 -0.15) scale(1.2 1.25)" gradientUnits="userSpaceOnUse"><stop offset="0" stop-color="#8e322f"/><stop offset="1"/></radialGradient></defs><title>box3</title><g class="cls-1"><g id="Capa_2" data-name="Capa 2"><g id="Capa_1-2" data-name="Capa 1"><path class="cls-2" d="M157.45,375.5h6.47v5.09h-6.47Z"/><g id="Ventana"><g id="puerta"><path class="cls-3" d="M29.45,132.27,236.77,15.93,460,131Z"/><path class="cls-4" d="M348.69,158.59H131.59V123.93h9.78c34.23-18.19,99.43-20.11,99.43-20.11,45.64,1.07,93.73,19.25,97.8,23.32l10.09.43Z"/><path class="cls-5" d="M413,430.1H68.89V117.92l71.48-3.06c3.64-1.86,8.91-4.4,15.4-7,36.13-14.7,67.27-15,81.56-15,48.41,0,87.17,16,107.57,26l68.08-1Z"/><line class="cls-2" x1="383.07" y1="158.59" x2="103.38" y2="158.59"/><path class="cls-2" d="M131.08,158.28h0"/><line class="cls-2" x1="103.38" y1="158.59" x2="103.38" y2="431.64"/><line class="cls-2" x1="383.07" y1="158.59" x2="383.07" y2="432.98"/><polygon class="cls-2" points="131.59 158.59 103.38 158.59 69.64 118.81 97.69 116.59 131.59 158.59"/><polygon class="cls-2" points="349.91 158.59 383.07 158.59 412.06 118.53 383.97 118.53 349.91 158.59"/></g><rect class="cls-6" x="25.03" y="473.49" width="415.33" height="28.37"/><g id="base"><rect class="cls-3" x="0.5" y="430.1" width="480.87" height="43.52"/><ellipse class="cls-7" cx="51.23" cy="453.01" rx="13.92" ry="11.94"/><ellipse class="cls-7" cx="238.64" cy="452.07" rx="13.92" ry="11.94"/><ellipse class="cls-7" cx="402.32" cy="453.01" rx="13.92" ry="11.94"/><line class="cls-3" x1="17.32" y1="430.31" x2="17.32" y2="473.83"/><line class="cls-3" x1="463.84" y1="430.1" x2="463.84" y2="473.61"/><rect class="cls-8" x="25.03" y="474.05" width="23.16" height="18.12"/><polyline class="cls-8" points="48.19 492.17 57.96 501.7 57.96 483.11 48.19 474.05"/><polyline class="cls-8" points="25.45 491.93 37.03 502.42 58.37 502.42"/><rect class="cls-8" x="89.66" y="473.69" width="23.16" height="18.12"/><polyline class="cls-8" points="112.82 491.81 122.59 501.34 122.59 482.75 112.82 473.69"/><polyline class="cls-8" points="90.08 491.57 101.66 502.06 123 502.06"/><rect class="cls-8" x="170.44" y="473.69" width="23.16" height="18.12"/><polyline class="cls-8" points="193.6 491.81 203.37 501.34 203.37 482.75 193.6 473.69"/><polyline class="cls-8" points="170.85 491.57 182.44 502.06 203.78 502.06"/><rect class="cls-8" x="327.99" y="473.69" width="23.16" height="18.12" transform="translate(679.14 965.5) rotate(-180)"/><polyline class="cls-8" points="327.99 491.81 318.22 501.34 318.22 482.75 327.99 473.69"/><polyline class="cls-8" points="350.74 491.57 339.16 502.06 317.81 502.06"/><rect class="cls-8" x="403.17" y="473.83" width="23.16" height="18.12" transform="translate(829.5 965.77) rotate(-180)"/><polyline class="cls-8" points="403.17 491.94 393.41 501.48 393.41 482.89 403.17 473.83"/><polyline class="cls-8" points="425.92 491.71 414.34 502.2 392.99 502.2"/><rect class="cls-8" x="246.71" y="474.05" width="29.75" height="18.12"/><polygon class="cls-8" points="274.92 502.06 250.08 502.42 246.71 492.17 276.45 492.17 274.92 502.06"/></g><rect class="cls-2" x="132.21" y="157.66" width="215.87" height="271.4"/><polyline class="cls-2" points="163.74 375.25 169.31 375.25 169.31 365.08 10.3 365.08 15.18 375.25 18.59 375.25 156.98 375.25"/><path class="cls-2" d="M163.74,375.25h0Z"/><line class="cls-2" x1="100.05" y1="375.25" x2="100.05" y2="365.08"/><line class="cls-2" x1="88.59" y1="380.34" x2="93.22" y2="380.34"/><polyline class="cls-2" points="31.76 375.25 81.27 375.25 81.27 365.08 12.86 365.08 31.76 365.08 31.76 375.25"/><line class="cls-2" x1="25.18" y1="391.14" x2="19.32" y2="391.14"/><line class="cls-2" x1="28.59" y1="406.72" x2="28.59" y2="396.55"/><line class="cls-2" x1="19.32" y1="411.49" x2="25.18" y2="411.49"/><line class="cls-2" x1="52.49" y1="406.72" x2="52.49" y2="396.55"/><line class="cls-2" x1="61.52" y1="411.49" x2="56.39" y2="411.49"/><line class="cls-2" x1="64.93" y1="396.55" x2="64.93" y2="406.72"/><line class="cls-2" x1="87.61" y1="412.76" x2="93.22" y2="412.76"/><polyline class="cls-2" points="98.1 406.72 98.1 396.55 93.22 396.55 93.22 375.25 88.59 375.25 88.59 396.55 83.47 396.55 83.47 406.72"/><line class="cls-2" x1="129.8" y1="411.49" x2="123.46" y2="411.49"/><line class="cls-2" x1="145.66" y1="365.08" x2="145.66" y2="375.25"/><polyline class="cls-2" points="163.92 380.59 163.92 396 105.78 396.55 25.18 396.55 25.18 375.25 19.32 375.25 19.32 428.71 25.18 428.71 25.18 406.72 56.4 406.72 56.4 428.71 61.52 428.71 61.52 406.72 87.61 406.72 87.61 428.71 93.22 428.71 93.22 406.72 97.74 406.72 98.76 406.72 123.46 406.72 123.46 428.71 129.8 428.71 129.8 411.49 129.86 406.72 156.98 406.98 157.45 428.42 163.74 428.42 163.92 396"/><polyline class="cls-2" points="163.92 374.81 163.92 379.9 157.45 379.9 157.45 374.81 157.45 396 163.92 396 163.92 380.59"/><polyline class="cls-2" points="315.16 375.06 309.59 375.06 309.59 364.89 468.6 364.89 463.72 375.06 460.31 375.06 321.92 375.06"/><path class="cls-2" d="M315.16,375.06h0Z"/><line class="cls-2" x1="378.85" y1="375.06" x2="378.85" y2="364.89"/><line class="cls-2" x1="390.32" y1="380.15" x2="385.68" y2="380.15"/><polyline class="cls-2" points="447.14 375.06 397.63 375.06 397.63 364.89 466.05 364.89 447.14 364.89 447.14 375.06"/><line class="cls-2" x1="453.72" y1="390.95" x2="459.58" y2="390.95"/><line class="cls-2" x1="450.31" y1="406.53" x2="450.31" y2="396.36"/><line class="cls-2" x1="459.58" y1="411.3" x2="453.72" y2="411.3"/><line class="cls-2" x1="426.41" y1="406.53" x2="426.41" y2="396.36"/><line class="cls-2" x1="417.39" y1="411.3" x2="422.51" y2="411.3"/><line class="cls-2" x1="413.97" y1="396.36" x2="413.97" y2="406.53"/><line class="cls-2" x1="391.29" y1="412.57" x2="385.68" y2="412.57"/><polyline class="cls-2" points="380.8 406.53 380.8 396.36 385.68 396.36 385.68 375.06 390.31 375.06 390.31 396.36 395.44 396.36 395.44 406.53"/><line class="cls-2" x1="349.1" y1="411.3" x2="355.44" y2="411.3"/><line class="cls-2" x1="333.25" y1="364.89" x2="333.25" y2="375.06"/><polyline class="cls-2" points="314.98 380.4 314.98 395.81 373.13 396.36 453.73 396.36 453.73 375.06 459.58 375.06 459.58 428.52 453.73 428.52 453.73 406.53 422.51 406.53 422.51 428.52 417.39 428.52 417.39 406.53 391.29 406.53 391.29 428.52 385.68 428.52 385.68 406.53 381.16 406.53 380.14 406.53 355.44 406.53 355.44 428.52 349.1 428.52 349.1 411.3 349.04 406.53 321.92 406.79 321.45 428.23 315.16 428.23 314.98 395.81"/><polyline class="cls-2" points="314.98 374.62 314.98 379.71 321.45 379.71 321.45 374.62 321.45 395.81 314.98 395.81 314.98 380.4"/></g><g id="techo"><path class="cls-2" d="M7.39,121.3v15c21.27,7.74,58.76,7,77.64.25,17.41-6.2,16.57-21.17,16.57-21.17"/><line class="cls-2" x1="102.13" y1="168.15" x2="7.39" y2="136.34"/><path class="cls-2" d="M480.82,121.59v15c-28.09,10-59.4,4.9-79.5-2.7-9.48-3.59-16.61-14.67-16.61-14.67"/><line class="cls-2" x1="480.82" y1="136.63" x2="384.07" y2="168.44"/><path class="cls-6" d="M185.71,47.29c15-9.54,32.85-15.36,57-13.54h2.44c108.49,5.6,91.83,114.41,217.51,91.54,5.72-1,17.22-1.72,18-3.73,2.18,0-15.58-4.29-23.27-5.68-39.27-7.09-81.56-45.11-81.56-45.11C341.25,39.89,319.35,6.79,249.09.7l0,0c-1.91-.07-3.84-.11-5.79-.11s-2.58,0-4.33.08v0C122.08,10.81,141.43,94.52,7.39,121.24c0,0,0,0,0,.06,4.39,4.52,4.52,3,10.2,4C112.72,142.66,139.07,77,185.71,47.29"/><line class="cls-2" x1="252.33" y1="0.76" x2="252.45" y2="0.83"/><polygon class="cls-2" points="223.55 82.44 230.64 72.16 219.22 76.59 228.92 68.93 216.75 69.67 228.2 65.32 216.35 62.31 228.53 61.65 218.07 55.16 229.89 58.25 221.74 48.85 232.16 55.41 227.05 43.94 235.14 53.4 233.51 40.87 238.56 52.38 240.57 39.91 242.11 52.45 247.58 41.15 245.49 53.6 253.92 44.48 248.39 55.74 259.04 49.59 250.55 58.66 262.48 56.05 251.79 62.12 263.93 63.26 251.98 65.8 263.26 70.6 251.13 69.37 260.54 77.41 249.29 72.53 256 83.08 246.64 74.98 250.04 87.12 243.4 76.52 243.21 89.16 239.88 77 236.1 89.01 236.37 76.38 229.34 86.71 233.2 74.72 223.55 82.44"/></g><g id="Capa_4" data-name="Capa 4"><path class="cls-9" d="M178.37,101.77c-14.87,3.29-25.92,6.28-37.48,13.37-.08,0,1.3-1.07-1.67,1l-4.55.93c-.31,0-3.59-2-3.29.66v36.9a.62.62,0,0,0,.55.66h40.94a.54.54,0,0,0,.37-.16c16.62-17.07-7.63-20.5-10-24.19a5.82,5.82,0,0,1-1-3.74,3.69,3.69,0,0,1,.9-2c1.87-1.94,6.3-1.7,6.25.9a7.91,7.91,0,0,1-1.81,4.67c2.66-5.76-2.08-4.83-2.08-4.83a4.84,4.84,0,0,0-1.33,1.36c-.41.67.32,1.66,1.39,3.08.79,1,8.4,5.1,8.4,5.1,11.06-6,6.27-17,4.34-19.49a.73.73,0,0,1,.18-1.07c10.75-5.31,1.68-12.07.28-13A.44.44,0,0,0,178.37,101.77Z"/><path class="cls-10" d="M178.37,101.77c-14.87,3.29-25.92,6.28-37.48,13.37-.08,0,1.3-1.07-1.67,1l-4.55.93c-.31,0-3.59-2-3.29.66v36.9a.62.62,0,0,0,.55.66h40.94a.54.54,0,0,0,.37-.16c16.62-17.07-7.63-20.5-10-24.19a5.82,5.82,0,0,1-1-3.74,3.69,3.69,0,0,1,.9-2c1.87-1.94,6.3-1.7,6.25.9a7.91,7.91,0,0,1-1.81,4.67c2.66-5.76-2.08-4.83-2.08-4.83a4.84,4.84,0,0,0-1.33,1.36c-.41.67.32,1.66,1.39,3.08.79,1,8.4,5.1,8.4,5.1,11.06-6,6.27-17,4.34-19.49a.73.73,0,0,1,.18-1.07c10.75-5.31,1.68-12.07.28-13A.44.44,0,0,0,178.37,101.77Z"/><path class="cls-11" d="M178.37,101.77c-14.87,3.29-25.92,6.28-37.48,13.37-.08,0,1.3-1.07-1.67,1l-4.55.93c-.31,0-3.59-2-3.29.66v36.9a.62.62,0,0,0,.55.66h40.94a.54.54,0,0,0,.37-.16c16.62-17.07-7.63-20.5-10-24.19a5.82,5.82,0,0,1-1-3.74,3.69,3.69,0,0,1,.9-2c1.87-1.94,6.3-1.7,6.25.9a7.91,7.91,0,0,1-1.81,4.67c2.66-5.76-2.08-4.83-2.08-4.83a4.84,4.84,0,0,0-1.33,1.36c-.41.67.32,1.66,1.39,3.08.79,1,8.4,5.1,8.4,5.1,11.06-6,6.27-17,4.34-19.49a.73.73,0,0,1,.18-1.07c10.75-5.31,1.68-12.07.28-13A.44.44,0,0,0,178.37,101.77Z"/><path class="cls-12" d="M178.37,101.77c-14.87,3.29-25.92,6.28-37.48,13.37-.08,0,1.3-1.07-1.67,1l-4.55.93c-.31,0-3.59-2-3.29.66v36.9a.62.62,0,0,0,.55.66h40.94a.54.54,0,0,0,.37-.16c16.62-17.07-7.63-20.5-10-24.19a5.82,5.82,0,0,1-1-3.74,3.69,3.69,0,0,1,.9-2c1.87-1.94,6.3-1.7,6.25.9a7.91,7.91,0,0,1-1.81,4.67c2.66-5.76-2.08-4.83-2.08-4.83a4.84,4.84,0,0,0-1.33,1.36c-.41.67.32,1.66,1.39,3.08.79,1,8.4,5.1,8.4,5.1,11.06-6,6.27-17,4.34-19.49a.73.73,0,0,1,.18-1.07c10.75-5.31,1.68-12.07.28-13A.44.44,0,0,0,178.37,101.77Z"/><path class="cls-9" d="M304.39,102.86c14.11,3,26,8.64,36.94,15.09.07,0,.27.33.35.33l7.36,1.23a.57.57,0,0,1,.52.61v33.59c0,.33-.58,3-.87,3h-36a19.61,19.61,0,0,1-2.3,0c-15.78-15.54,6.7-21.24,8.92-24.6a5.12,5.12,0,0,0,1-3.42,3.23,3.23,0,0,0-.85-1.84c-1.78-1.77-6-1.55-5.94.82a7,7,0,0,0,1.72,4.25c-2.53-5.24,2-4.4,2-4.4a4.57,4.57,0,0,1,1.26,1.24c.39.62-.3,1.51-1.32,2.8-.75,1-8,4.65-8,4.65-10.5-5.45-6-15.49-4.12-17.74a.66.66,0,0,0-.17-1c-10.21-4.83-1.6-11-.27-11.87C304.71,105.59,304.27,102.84,304.39,102.86Z"/><path class="cls-10" d="M304.39,102.86c14.11,3,26,8.64,36.94,15.09.07,0,.27.33.35.33l7.36,1.23a.57.57,0,0,1,.52.61v33.59c0,.33-.58,3-.87,3h-36a19.61,19.61,0,0,1-2.3,0c-15.78-15.54,6.7-21.24,8.92-24.6a5.12,5.12,0,0,0,1-3.42,3.23,3.23,0,0,0-.85-1.84c-1.78-1.77-6-1.55-5.94.82a7,7,0,0,0,1.72,4.25c-2.53-5.24,2-4.4,2-4.4a4.57,4.57,0,0,1,1.26,1.24c.39.62-.3,1.51-1.32,2.8-.75,1-8,4.65-8,4.65-10.5-5.45-6-15.49-4.12-17.74a.66.66,0,0,0-.17-1c-10.21-4.83-1.6-11-.27-11.87C304.71,105.59,304.27,102.84,304.39,102.86Z"/><path class="cls-11" d="M304.39,102.86c14.11,3,26,8.64,36.94,15.09.07,0,.27.33.35.33l7.36,1.23a.57.57,0,0,1,.52.61v33.59c0,.33-.58,3-.87,3h-36a19.61,19.61,0,0,1-2.3,0c-15.78-15.54,6.7-21.24,8.92-24.6a5.12,5.12,0,0,0,1-3.42,3.23,3.23,0,0,0-.85-1.84c-1.78-1.77-6-1.55-5.94.82a7,7,0,0,0,1.72,4.25c-2.53-5.24,2-4.4,2-4.4a4.57,4.57,0,0,1,1.26,1.24c.39.62-.3,1.51-1.32,2.8-.75,1-8,4.65-8,4.65-10.5-5.45-6-15.49-4.12-17.74a.66.66,0,0,0-.17-1c-10.21-4.83-1.6-11-.27-11.87C304.71,105.59,304.27,102.84,304.39,102.86Z"/><path class="cls-12" d="M304.39,102.86c14.11,3,26,8.64,36.94,15.09.07,0,.27.33.35.33l7.36,1.23a.57.57,0,0,1,.52.61v33.59c0,.33-.58,3-.87,3h-36a19.61,19.61,0,0,1-2.3,0c-15.78-15.54,6.7-21.24,8.92-24.6a5.12,5.12,0,0,0,1-3.42,3.23,3.23,0,0,0-.85-1.84c-1.78-1.77-6-1.55-5.94.82a7,7,0,0,0,1.72,4.25c-2.53-5.24,2-4.4,2-4.4a4.57,4.57,0,0,1,1.26,1.24c.39.62-.3,1.51-1.32,2.8-.75,1-8,4.65-8,4.65-10.5-5.45-6-15.49-4.12-17.74a.66.66,0,0,0-.17-1c-10.21-4.83-1.6-11-.27-11.87C304.71,105.59,304.27,102.84,304.39,102.86Z"/></g></g></g></g></svg>