<svg id="Capa_1" data-name="Capa 1" xmlns="http://www.w3.org/2000/svg" viewBox="0 0 1280 1024"><defs><style>.cls-1{opacity:0.5;}.cls-2{fill:#fff;}.cls-3{fill:none;stroke:#000;stroke-linecap:round;stroke-linejoin:round;stroke-width:2px;}</style></defs><title>haku</title><g class="cls-1"><path class="cls-2" d="M2.29,1024c-.76-.18-2.14-.33-2.17-.53a31.45,31.45,0,0,1-.1-4.23Q0,512,.11,4.76C.11,3.17,1.53,1.59,2.29,0c.07,2.64.21,5.28.21,7.93q0,188,0,376v17.44c11.85-2.42,22.36-5.67,33.76-6.64,19.21-1.64,39-2.51,58.51-2.39,12.44.07,26.51,1.22,36.83,4.18,15.58,4.46,30.79,1.46,41.36-1.17,16.32-4.05,31.78-8.29,51.67-9.28-11.73-6.17-14.78-12.5-9.56-19.68a22.33,22.33,0,0,0,4.07-8.08c2.31-11.07,20.44-21.36,43.44-22.91,10.26-.7,15.69-2.88,21.28-6.47,39.4-25.3,127.36-24.05,164.28,2.08,2.5,1.77,7.7,3.4,12.16,3.78,30.42,2.64,49.31,12.92,49.26,27.23,0,1.54-.5,3.53,1.26,4.53,12.2,6.93,15.45,14.29,5.74,22.22,7,1.78,13.19,3.13,18.88,4.83,12.53,3.73,12.46,3.81,19.55-2.07,1.48-1.23,2.54-2.57,4.17-3.75,4.64-3.34,9.46-6.63,14.21-9.94l2.06.69c-2.37,3.1-4.73,6.2-8.14,10.65L606,366.45l2.91,1L593.35,378.5c46.19-13.59,90.24-26.31,144.25-27.95l-18.15,3c30.13-1.72,59.77-4.13,90.13-3.92,13.11.1,26.25-1.49,39.4-1.62a414.31,414.31,0,0,0,82.22-8.8c17.49-3.72,30.73-9.58,36.85-18.36,6.89-9.9-.76-15.73-22.84-17.29-28.89-2-56.46,1.42-83.51,5.27-45.86,6.51-90.81,14.71-139.48,15.6-48.06.88-92.45-3.33-123.26-22.52-11-6.85-19-14.76-27.81-22.34-17.82-15.41-16.1-30.76,1.89-45.88,5.37-4.5,11.35-8.85,17.08-13.3-39.13,3.88-77.58,4.36-116-.46a28.33,28.33,0,0,0-7.5-.17c-13.43,2.32-26.47,1.53-40.07,0A52.28,52.28,0,0,0,408,221.62c-26.24,8.26-59,8.41-83.46-.79C318,218.39,312.36,218,305,218.45c-24.61,1.35-49,1.22-72.74-2.82a30.78,30.78,0,0,0-10.29.66,120.74,120.74,0,0,1-49.38.53c-4.71-.9-10.51-.57-15.81-.77-13-.49-26-.67-38.82-1.61-3.33-.25-8-2.81-8.16-4.38s4.22-3.65,7.73-4.54a69.91,69.91,0,0,1,16.16-2.1c11.24,0,20.49-.69,23.65-6.85.75-1.45,4.63-3,7.86-3.64,15-2.88,27.54-7,37.14-13.29,2.52-1.64,8.28-2.5,12.92-3,6.32-.74,8.41-2.25,8.54-5.19.33-7.33,7.1-13.53,19.67-17.67,14.79-4.88,30.84-8.93,47.06-13.54-.61-1.47-2.4-4.18-2.74-6.94-1.59-13,19.43-24.55,50.65-27.64,9.54-.94,19.69-.58,29.15-1.62a213.27,213.27,0,0,1,72.53,4.38c2.9.67,6.93,1.64,9.33,1.19,12.65-2.37,27.19-1.86,38.53-6.69,6.23-2.64,16.35-3.35,24.85-4.75,4-.66,8.27-.88,13.51-1.41-12.23-7.24-14.82-14.25-6.39-21.87,1.14-1,1.08-2.39,1.25-3.61,1.78-13.15,19.65-22.93,47.4-25.31,7.33-.63,11.88-2,16-4.89C618.75,16.85,704,14.77,743,37.44c8.35,4.85,18.49,6.85,29.24,9.78,19.58,5.33,36.59,3.66,55.14.9,1.08-.16,2.19-.3,3.3-.38,18.81-1.48,37.58-2.29,59,.66l-69.05,9.15c.21.41.41.82.62,1.24,21.73-2.52,43.43-3,64.57.79,35.09,6.35,51.86,20.6,68.23,35,1.69,1.49,2.85,3.43,5.54,4.3,12.31,4,25.29,7.51,37.62,11.47,20.53,6.59,34.3,15.35,37,27.2.73,3.22,4.24,4.06,10.29,5.08,12.24,2.06,25.18,4.12,35.37,7.7,19.36,6.81,21,17.15,6.51,26.14-1.3.81-2.69,1.58-3.54,2.08,11.69,2.51,22.76,5.05,34.1,7.28a111.33,111.33,0,0,0,17.56,2.35c19.82.65,37.35,2.67,46.14,12.35,1.12,1.23,5.87,2.08,9.28,2.46,8.38,1,17.2,1.16,25.33,2.39,3.55.54,8.33,3,8.08,4.37-.32,1.78-4.77,4.6-8.15,4.84-12.8.93-25.88,1-38.86,1.41-5,.15-10.43-.19-14.79.66a120.53,120.53,0,0,1-49.36-.2,42.17,42.17,0,0,0-13.56-.38,271.33,271.33,0,0,1-71.5,1.38,33.83,33.83,0,0,0-13.68,1.68c-27.2,11.27-64,11.61-92.12.77-2.61-1-7.71-1-11.51-.87-11.11.52-22.39,2.43-33.14,1.86-18.1-1-35.78-3.54-53.76-5.14a73.2,73.2,0,0,0-16.23.3c-20.2,2.95-40.65,4.38-61.44,2.2-13.42-1.41-26.17-.93-39.77-.4-19.19.76-31.93,4.81-41.33,11.69-8.26,6.05-14.93,12.58-21.78,19a5.37,5.37,0,0,0-1.26,5.16c3.76,20.25,41.09,34.08,85.67,31.52l-17.16-5.75,1.39-1.17c3,.47,5.91,1,8.9,1.4,17.18,2.5,35.58,4.91,52.22,1.52C809.84,273.52,847.56,266,888,261.44l-33.7-2.75c0-.45,0-.89,0-1.34,9.46-.39,19.06-1.43,28.38-1.05,31.12,1.28,62.47,2.23,93.13,4.84,66.8,5.69,120.77,40.78,112,65.53-.13.39.52.84,1,1.55,2.47-.67,4.31-1.26,6.3-1.7,9.72-2.14,15.1-1.26,15.92,3.61a21.37,21.37,0,0,1-2.74,13.77c-5.35,9.68-12.23,19.18-18.17,28.79-1.94,3.15.18,5.59,6.26,7.78a9.81,9.81,0,0,1,6.11,6.06c.62,2.12-1.34,4.41-1.93,6l11,2.05c-1.85,2.08-2.44,4.95-5.77,6.11-10.93,3.81-23.43,3.76-36.83,2.75-11.49-.87-14.08-3.93-12.16-8,3.87-8.18,9.1-16.22,14-24.29,2.23-3.69,5-7.31,7.48-11-6.9,2.57-11.66,5.53-17.12,8.16a31.24,31.24,0,0,1-21.45,2.49c-6.28-1.64-11.28-4.34-17.07-6.66-20.76,11.65-48.79,19.26-80.87,23-14.42,1.66-22.7,5-28.26,10.75-.17.17.69.55,1.5,1.15l9-1.75c.88,2.52,2,4.58,2.24,6.66.67,5.9-3.81,7.55-16.37,6.64-3.59-.26-7.42.35-11.15.38-3.27,0-8.23.39-9.53-.41-6.47-4-20.11-6.25-15.64-13.15.66-1-.59-2.33-.91-3.36-54.43.7-108.62.42-157.41,13.36,4.16,3.52,8.45,6.65,11.68,10,11.19,11.61,11,11.64,36.14,17.29,32,7.22,39,20.25,17.56,32.69-.35.2-.18.59-.12.35a205.54,205.54,0,0,0,79.43,5.29l-29-18.27,2.93-1.53c25.12,12.3,59,16.28,91.14,22.13,13.21-8,30.46-12.92,51.52-14.11,42.63-2.4,80.08,2.94,110.54,17.53,5.79,2.77,11,5.88,17.34,8.31,13.32,5.08,20.73,3.68,23.88-4.17,1-2.55,2-5.12,3.38-8.78,6.4,5.78,3.12,14.83-5,17.52-10.17,3.39-18.62.89-26.46-2.2a87.32,87.32,0,0,1-9.55-4.46c-30.38-16.64-68.83-23.71-115.15-20.44-18.08,1.28-34,5-44.32,13,2.42.87,3.79,1.49,5.4,1.91,3,.76,6,1.43,9.12,2.1,51.45,11.14,86.2,28.74,97.33,55.22,1.57,3.74,6.44,4.43,12.52,5.6,23.32,4.48,47.7,8.19,69.27,14.11,46.24,12.68,57.75,30.07,38.45,53.37a46.75,46.75,0,0,1,5.6,3.13,10.75,10.75,0,0,1,3.34,3.86c1.7,3.86,13.84,8.37,22.13,8.19,17.5-.39,30.86,1.5,36.85,10.29,25.84.83,46.31,8.15,40.11,23l8.68.73v12.7c-13.84.65-27.66,1.72-41.53,1.89-32.42.39-64.77-1.48-97.18,2.34-32.57,3.85-65.94,3.14-98.91-.3a36.94,36.94,0,0,0-11.56.86c-19.92,5-40.17,9.88-59.18,15.59-25.63,7.71-52.39,15-74.78,24.54-33.68,14.26-40.79,33.76-35.64,54,2.72,10.65,5,21.8,24.78,29.8,7.75,3.14,5.31,8.71-3.68,13.18s-16,5.06-25.51,2c-17-5.53-33.11-12-55.75-11.59a9.74,9.74,0,0,1-2.19-.23c-9-2-17.9-4-28.19-6.3-.48-4.69-8.06-5.24-26.67-.78,8,2.8,16.39,5.66,24.55,8.68,8.54,3.16,18.21,5.95,24.85,9.85,7.32,4.29,14.74,9.4,16.72,14.6,2.66,7,7.68,11,23.58,11.38,4.23.11,8.42,1.47,12.44,2.43,31.43,7.46,37.17,20.49,14.53,32.86l22.13,3.73-.6,1.64c-3.86.12-7.72.35-11.57.33-37.24-.27-74.46-1-111.64-1.68-49.36-.93-99.08-2.06-148.83,1.41-45,3.14-90.88-1.77-136.49.66-20.53,1.09-41.54.24-62.34.28-13.63,0-19.46,4.64-13.52,10.39a3.8,3.8,0,0,1,.7,4.51c-1,2-3.27,3.9-5,5.85l.33-.33c-6.93,5.4-14.23,10.71-20.65,16.24-3.91,3.36-8.45,5.61-17.23,5.74-9.5.13-19,.66-28.46,1,0,.37,0,.73,0,1.1h32.42c.22.73.45,1.46.67,2.19-4.33.37-8.66,1-13,1q-159.84.07-319.68,0H2.57l-1,2.32c2.91.42,5.86,1.24,8.71,1.17C17,933.93,23.7,933,30.42,933c38.91-.12,77.82,0,116.73-.15,9.18-.05,11.54,1.53,11.61,5.54.14,7.7,1.41,15.4,2.14,22.42L173,954.3l13,7.34c12.48-8,6-18.82,11.13-27.78h158c1.47,4.08,3,8.31,4.5,12.55l2.35-.21v-4.15c13.21-1.67,25.31-3.53,37.71-4.65a146.55,146.55,0,0,1,21.25.17c14.09.86,28,2.19,42.12,3.06,5.81.37,11.81.06,20,.06,0,10.53-.32,20.28.28,30,.12,1.85,3.65,5.16,6,5.23,10.68.33,21.49-.24,32.25-.49l-.33.15c1.74-1.91,4.88-3.81,5-5.75.52-9.6.24-19.22.24-29.11h14.33q169,0,338.11-.12c6,0,12-1.49,18.15-2,9.76-.85,19.84-2.49,29.37-2,20,1,39.66,3.49,59.65,4.64,8.88.51,12,2,11.89,5.85-.22,7.75-.17,15.5-.37,23.25,0,1.08-.86,2.16-1.31,3.25-2.23-3.46-1.33-7-3.17-10.23-2.82-4.92-13.08-3.28-19.32-2.82-19,1.38-4.44,9.09-13.06,13.22V943.29l-3.5-.16c1,8.21-12.11,10.38-24.48,13.08l22.68.86c.31,2.47.43,4.21.75,5.95,2.54,13.86,2.55,13.69,32.45,13.75,10.61,0,14.29-2.12,14.18-6.62-.09-3.84,0-7.69,0-11.54,2.47,3.86,2.54,7.71,2.46,11.55-.15,6.89-.78,7.23-15.31,7.23-35.17,0-70.34-.09-105.51,0-3.92,0-11.05,1-11.24,1.73-2,8.4-14.4,8-27.45,7.93q-207.64-.26-415.27-.37c-7.55,0-15.15-.19-22.63-.65-9-.57-11.1-2.94-6.77-6.57,1.35-1.14,1.79-2.51,2.64-3.77l-4.65-.44c-.8,3.16-3.61,6.64-1.65,9.36,1.22,1.69,9.67,3.15,14.91,3.18q110,.72,220,.93c71.85,0,143.7-.34,215.55-.51,3.93,0,7.86.2,14.59.39-12.76,6-26.64,7.37-40.33,9.11-3.47.44-9,1.65-9.21,2.72-2.37,10.06-15.62,16.93-30,23.55H86.26c-15.58-7.15-26.65-15-15.82-25.59-28.78-4.08-55.38-8.7-68.15-23.86Zm417.55-51.91-.34-.17c1.36.76,2.49,2,4.12,2.2,11.32,1.09,10.36-2.76,9.61-5.85-.52-2.14-1.88-5.31-4.94-6-4-.89-10,.24-15.15.5a69.78,69.78,0,0,0,3.32,7.23C416.91,970.8,418.68,971.4,419.84,972.09Zm274.43,3.41c1-4,3.4-8.08,2-11.86-.45-1.17-11.44-1.57-17.68-2.12-2.9-.26-6,0-9-.07-6.49-.12-9.95,1.12-9.59,4.32.25,2.27-.51,4.64.65,6.8.75,1.38,4.12,3.44,6.43,3.48,9.17.13,18.38-.41,27.57-.7Zm-115.5-11.69c-9.33-.77-18.64-1.62-28-2.31-10.59-.78-13.66,1.64-13.34,6.33.53,7.7,1.21,8.6,13.92,8.5,9.89-.07,19.76-.68,29.63-1.05,7.34.35,14.72,1.08,22,.89,4-.1,10.83-1.64,11.06-2.77.75-3.66.63-7.74-2.29-11.06C609.71,960.05,583.47,961.62,578.77,963.81ZM835.4,975.52l-.35-.17c9.23.28,18.49.81,27.69.65a12.83,12.83,0,0,0,7.59-3.23c6.14-6.82-.51-11.3-16.21-11.29-4.51,0-9.08-.13-13.53.16-2.7.17-7.47,1.06-7.44,1.58C833.38,967.32,834.53,971.42,835.4,975.52Zm-392.7-1.1-.35-.17c10.81.24,21.77,1.07,32.38.48,5.85-.32,5.31-11.72-.31-13.31a8.31,8.31,0,0,0-2.08-.37c-8.66,0-17.33-.24-25.94,0-2.15.07-5.78,1.7-5.77,2.61C440.68,967.28,441.91,970.85,442.7,974.42Zm341.6-10.66c-7.8-4.31-18.27-1.76-27.48-2.08-3.19-.12-9.58,1.8-9.57,2.77,0,3.78.37,10.35,3.7,10.79,9.15,1.22,19.87-.14,30-.48Zm-130.51-.53c-8.6-.58-17.2-1.56-25.79-1.54-3.49,0-9.89,2.23-9.87,3.43,0,3.56,1.3,9.81,4.47,10.15,9.81,1,20.72-.17,31.2-.5C653.8,970.92,653.79,967.07,653.79,963.23ZM460.54,718.81l-4.15-5.45c-9.7-12.72-14.09-25.71-4.87-38.82,4.8-6.83,11.66-13.37,18.41-19.85C499.8,626,543.2,603.94,607.32,590.92c24.6-5,46.86-12.72,69.14-19.9,11.54-3.72,19.49-9.33,21.2-16.28,2.19-8.88-8.79-14.87-27.5-14.73-40.27.29-74.32-6.54-103.77-19.07a56.18,56.18,0,0,0-13.64-3.24c-13.78-1.83-29.25-2.07-41.32-5.21-23.51-6.12-48.64-4.18-72.94-4.8-32-.8-64.15.24-96.24.51-5.59.05-11.56-.34-16.71.42C289.6,514,253,514,216.91,510.26c-21-2.18-40.72-1.6-61.3-.34a159.91,159.91,0,0,1-29-.94c-8.68-1.12-14.85-.6-22,1.72-26.13,8.49-55.24,8.17-81.47-.13-5.26-1.67-12.35-2.08-20.06-3.3V863.86C16,850.13,40.17,843.17,68.83,839.48c-.77-4.32-3-8.55-2-12.58,3.41-12.72,26.53-22.6,55.14-24.27,10.86-.64,21.7-1.35,32.58-1.87,21.82-1,43.25-.37,62.67,4.85,6.26,1.69,11.07,1.34,17.67.7a199.32,199.32,0,0,0,36.67-7.21c9.55-2.72,21.48-3.62,33-5.42-9.31-5-12.75-10.77-9.44-17.22,1.91-3.73,4.43-7.41,5.77-11.18,4.3-12,23.21-20.47,49.26-22.1,3.74-.23,8.34-1.6,10.36-3.08,15.8-11.65,38.6-18.11,67.36-20.12C438.26,719.25,448.86,719.21,460.54,718.81Zm169.15-99.2C620.83,609.08,625,602.49,645,596.7c17.37-5,35.53-9.43,54.33-14.36-.72-8.43,7.51-15.06,25.46-18.69A154.13,154.13,0,0,1,774.66,562a85.47,85.47,0,0,0,19.18-.12c18.69-2.13,37.53-2,51.44,4.16,11.61,5.13,21,4.43,32.64,1.61,2.67-.65,6-.81,8.31-1.64,9.1-3.37,18.53-6.62,26.64-10.47,8.46-4,12.53-8.93,3.33-15.68,15.14,4,13.92,9.6,14.4,15.68,10.13-6.5,11.94-12.33,4-18.66,2-.1,3-.12,4-.23s1.73-.3,3.17-.55c-16.14-12.05-35.35-21.2-68.6-18.87-21.6,1.51-43.48,2.8-64.4,5.57-31.15,4.12-61.53,9.52-92.32,14.26-6.9,1.06-14.12,1.68-21.49,2.53,18.36,15.66,7.85,25.74-16.8,34.7A576.47,576.47,0,0,1,615,592.66C584.22,600,554,607.3,529.68,619.11c-26.25,12.77-44,28-61.1,43.6-19.36,17.62-18.8,35.12-3,53,2.63,3,5.9,4.87,12.94,5.85,22.16,3.11,39.52,9.25,51.85,18.54,2,1.5,6.88,2.74,10.8,3,29.46,2.18,49.05,12.77,50,26.5.55,7.89,8.4,14.4,24.48,17.74,14.1,2.93,28.83,5.21,43.3,7.75a97.61,97.61,0,0,0,29.8.52c9.29-1.18,19.43-.84,29.17-1.29,11.75-.55,23.48-1.22,37-1.94-5.57-2.12-8.31-3.14-11-4.19-3.32-1.31-6.27-2.94-10-3.86-2.9-.72-6.79-.55-10.24-.78l-2.06-1.77,9.27-1.8-11.73-1.68c.79-1,1.39-1.77,2.06-2.64l-12.28-.89c9.43-2.66,3.06-3.49-1.06-4.76l4.56-2c-7.67-4.83-15.85-9.31-22.4-14.27-8.63-6.53-15.92-13.44-23.9-20.16-7.48-6.31-14.81-12.67-22.78-18.84a78.62,78.62,0,0,0-15.57-10c-14.26-6.54-24.08-13.94-25.92-23.39,9.21,6.88,15.37,14.86,34.72,19.67-7.31-7.53-13.29-13.7-19.32-19.86-.3-.31-1.16-.48-1.51-.78-7-5.9-15.06-11.6-20.37-17.82-2.78-3.23-5.28-4.23-12.37-4.5-10.83-.4-21.67-1.36-32.2-2.64-3.69-.45-6.47-2.52-9.66-3.86,3.39-1.43,6.33-3.68,10.25-4.15,12.67-1.51,25.7-2.36,39.18-3.52C590.07,631.69,602.05,623.12,629.69,619.61Zm156.94,98.11,4.59-.37c8.1,12.4,16.14,24.81,24.37,37.19a13.59,13.59,0,0,0,4.61,4.1c12.62,7.12,25.47,14.15,37,20.53-.9-3-2.58-7.17-3.3-11.36-3.44-20,6.2-38.23,37-53,27.5-13.19,62-21.71,96.35-30.27,13.08-3.26,25.86-6.78,39.37-10.34-35.19,0-69,.1-102.83-.06-9,0-17.95-1-26.95-1.35a166.79,166.79,0,0,0-18.83-.1,343.1,343.1,0,0,1-66.33-.92c-9.83-1.16-20.33-2.52-17.36-8.89-20.59-5.15-41.53-7.34-63.81-5.14-3.68.37-8.83,1.87-9.73,3.32-13.27,21.36-12.6,41.5,25.87,57.88,2,.85,4.32,1.54,6.49,2.3-14.94-11.52-26.61-23.34-29.19-36.87l65.31,52.81C788.32,730.33,787.47,724,786.63,717.72Zm298.26-122.81c13.07,0,26.36-.29,39.52.19,3.6.13,8.35,2.27,9.86,4,2.74,3.13,3.44,6.65,4.92,9.87,20.21-1.1,20.55-1.32,24.68-9.64,6-12-.59-22.41-18.68-31.1a192.38,192.38,0,0,0-25.43-9.62c-22.46-7-47.52-11.21-74.14-14.3l-3,12.61c8.29,0,16.3-.52,23.76.2,4.2.41,10.82,3,10.59,4.4-.94,5.9,7.9,12.61-6.59,17.31C1087.52,583.75,1090.39,587.24,1084.89,594.91ZM160.37,888.55c-1.34,13.05-2.66,25.08-3.55,37.12,0,.66,3.38,2,5.27,2,11.17.19,22.38.09,34.9.09-1.73-13.41-.55-26.28-11.84-37.77-4.32,3.31-7.87,8.7-12.15,8.82C159.83,899.19,167.25,892.52,160.37,888.55Zm504-88.81L604,788.88l-5.41,8.58c6.65,1.61,13.13,3,19.17,4.68C634.45,806.85,649.45,806.13,664.33,799.74Zm268,176.94v0h4.53c15.54,0,16.43-.41,16.59-7.26.18-8.08-.85-8.71-15.93-8.8-13.37-.09-26.75-.15-40.11,0-23,.26-25,1.37-24.45,10.81.24,3.78,3.23,5.4,11.5,5.32C900.37,976.57,916.33,976.68,932.29,976.68ZM498.66,507.62l49.76,7C539.35,505,518.29,502.11,498.66,507.62Zm-399,418c-5.22-.73-8.47-1.3-11.83-1.63a34.49,34.49,0,0,0-6.66-.05c-6.06.63-12,1.46-18.06,2.15a4,4,0,0,1-2-.33c-4.41-5.14-10.63-2.27-14.95-1L31.47,921c-1.7,6-1.67,6.2,7.56,6.29,17.31.17,34.64.24,52,.12C93.92,927.41,96.83,926.24,99.68,925.61Zm814.59,30.32c0-.22,0-.44,0-.66H729.65v.66Zm54.33-351c-11.05,1.33-21.17,2.48-31.16,3.83-1.52.21-2.42,1.39-3.61,2.12,1.37.45,2.66,1.24,4.12,1.31,9.08.48,18.2.8,28,1.2Q967.24,609.13,968.6,604.9Zm26,344.59c1.23-3.72-.38-6.67-12-6.59-14.92.1-18,1.05-18.12,6.89-.09,6.13,2.57,7.54,14.34,7.57C992.26,957.4,994.36,956.42,994.58,949.49Zm-187.47,12c-19.84,0-20.79.37-19.21,9.86.27,1.61,3,4.37,5.15,4.48,9.23.47,18.67.3,28,0a7,7,0,0,0,4.58-2.61C830.7,965,825.13,961.51,807.11,961.5Zm-87.15,0c-18.77,0-18.15,0-18.82,8-.45,5.42,4,7.39,15.17,6.83,4.85-.25,9.87.16,14.69-.15,2.63-.17,6-.91,7.33-1.89,7.81-6-.23-12.78-15-12.83ZM604.53,659l12.16,13C616.69,658.34,616.69,658.34,604.53,659ZM248.89,925.93l.06.9h47.77l-.09-.9Zm487.83,52.35-.14-.41H674.64v.41Zm20.32-.44.12.37H811.1v-.37Z"/><path d="M1280,659l-8.68-.73c6.2-14.82-14.27-22.14-40.11-23-6-8.79-19.35-10.68-36.85-10.29-8.29.18-20.43-4.33-22.13-8.19a10.75,10.75,0,0,0-3.34-3.86,46.75,46.75,0,0,0-5.6-3.13c19.3-23.3,7.79-40.69-38.45-53.37-21.57-5.92-45.95-9.63-69.27-14.11-6.08-1.17-11-1.86-12.52-5.6-11.13-26.48-45.88-44.08-97.33-55.22-3.07-.67-6.16-1.34-9.12-2.1-1.61-.42-3-1-5.4-1.91,10.27-7.94,26.24-11.7,44.32-13,46.32-3.27,84.77,3.8,115.15,20.44a87.32,87.32,0,0,0,9.55,4.46c7.84,3.09,16.29,5.59,26.46,2.2,8.1-2.69,11.38-11.74,5-17.52-1.41,3.66-2.35,6.23-3.38,8.78-3.15,7.85-10.56,9.25-23.88,4.17-6.37-2.43-11.55-5.54-17.34-8.31-30.46-14.59-67.91-19.93-110.54-17.53-21.06,1.19-38.31,6.14-51.52,14.11-32.1-5.85-66-9.83-91.14-22.13l-2.93,1.53,29,18.27a205.54,205.54,0,0,1-79.43-5.29c-.06.24-.23-.15.12-.35C802,455,795.05,441.94,763,434.72c-25.09-5.65-25-5.68-36.14-17.29-3.23-3.35-7.52-6.48-11.68-10,48.79-12.94,103-12.66,157.41-13.36.32,1,1.57,2.33.91,3.36-4.47,6.9,9.17,9.15,15.64,13.15,1.3.8,6.26.43,9.53.41,3.73,0,7.56-.64,11.15-.38,12.56.91,17-.74,16.37-6.64-.24-2.08-1.36-4.14-2.24-6.66l-9,1.75c-.81-.6-1.67-1-1.5-1.15,5.56-5.78,13.84-9.09,28.26-10.75,32.08-3.7,60.11-11.31,80.87-23,5.79,2.32,10.79,5,17.07,6.66a31.24,31.24,0,0,0,21.45-2.49c5.46-2.63,10.22-5.59,17.12-8.16-2.51,3.64-5.25,7.26-7.48,11-4.88,8.07-10.11,16.11-14,24.29-1.92,4.05.67,7.11,12.16,8,13.4,1,25.9,1.06,36.83-2.75,3.33-1.16,3.92-4,5.77-6.11l-11-2.05c.59-1.58,2.55-3.87,1.93-6a9.81,9.81,0,0,0-6.11-6.06c-6.08-2.19-8.2-4.63-6.26-7.78,5.94-9.61,12.82-19.11,18.17-28.79a21.37,21.37,0,0,0,2.74-13.77c-.82-4.87-6.2-5.75-15.92-3.61-2,.44-3.83,1-6.3,1.7-.47-.71-1.12-1.16-1-1.55,8.81-24.75-45.16-59.84-112-65.53-30.66-2.61-62-3.56-93.13-4.84-9.32-.38-18.92.66-28.38,1.05,0,.45,0,.89,0,1.34l33.7,2.75c-40.47,4.6-78.19,12.08-115.93,19.77-16.64,3.39-35,1-52.22-1.52-3-.43-5.94-.93-8.9-1.4l-1.39,1.17,17.16,5.75c-44.58,2.56-81.91-11.27-85.67-31.52a5.37,5.37,0,0,1,1.26-5.16c6.85-6.44,13.52-13,21.78-19,9.4-6.88,22.14-10.93,41.33-11.69,13.6-.53,26.35-1,39.77.4,20.79,2.18,41.24.75,61.44-2.2a73.2,73.2,0,0,1,16.23-.3c18,1.6,35.66,4.18,53.76,5.14,10.75.57,22-1.34,33.14-1.86,3.8-.17,8.9-.13,11.51.87,28.07,10.84,64.92,10.5,92.12-.77a33.83,33.83,0,0,1,13.68-1.68,271.33,271.33,0,0,0,71.5-1.38,42.17,42.17,0,0,1,13.56.38,120.53,120.53,0,0,0,49.36.2c4.36-.85,9.83-.51,14.79-.66,13-.41,26.06-.48,38.86-1.41,3.38-.24,7.83-3.06,8.15-4.84.25-1.4-4.53-3.83-8.08-4.37-8.13-1.23-17-1.44-25.33-2.39-3.41-.38-8.16-1.23-9.28-2.46-8.79-9.68-26.32-11.7-46.14-12.35a111.33,111.33,0,0,1-17.56-2.35c-11.34-2.23-22.41-4.77-34.1-7.28.85-.5,2.24-1.27,3.54-2.08,14.48-9,12.85-19.33-6.51-26.14-10.19-3.58-23.13-5.64-35.37-7.7-6-1-9.56-1.86-10.29-5.08-2.68-11.85-16.45-20.61-37-27.2-12.33-4-25.31-7.49-37.62-11.47-2.69-.87-3.85-2.81-5.54-4.3-16.37-14.36-33.14-28.61-68.23-35-21.14-3.83-42.84-3.31-64.57-.79-.21-.42-.41-.83-.62-1.24l69.05-9.15c-21.39-2.95-40.16-2.14-59-.66-1.11.08-2.22.22-3.3.38-18.55,2.76-35.56,4.43-55.14-.9-10.75-2.93-20.89-4.93-29.24-9.78C704,14.77,618.75,16.85,584.56,41c-4.1,2.9-8.65,4.26-16,4.89-27.75,2.38-45.62,12.16-47.4,25.31-.17,1.22-.11,2.58-1.25,3.61-8.43,7.62-5.84,14.63,6.39,21.87-5.24.53-9.54.75-13.51,1.41-8.5,1.4-18.62,2.11-24.85,4.75-11.34,4.83-25.88,4.32-38.53,6.69-2.4.45-6.43-.52-9.33-1.19A213.27,213.27,0,0,0,367.57,104c-9.46,1-19.61.68-29.15,1.62-31.22,3.09-52.24,14.64-50.65,27.64.34,2.76,2.13,5.47,2.74,6.94-16.22,4.61-32.27,8.66-47.06,13.54-12.57,4.14-19.34,10.34-19.67,17.67-.13,2.94-2.22,4.45-8.54,5.19-4.64.54-10.4,1.4-12.92,3-9.6,6.25-22.09,10.41-37.14,13.29-3.23.61-7.11,2.19-7.86,3.64-3.16,6.16-12.41,6.8-23.65,6.85a69.91,69.91,0,0,0-16.16,2.1c-3.51.89-7.86,3-7.73,4.54s4.83,4.13,8.16,4.38c12.8.94,25.86,1.12,38.82,1.61,5.3.2,11.1-.13,15.81.77a120.74,120.74,0,0,0,49.38-.53,30.78,30.78,0,0,1,10.29-.66c23.76,4,48.13,4.17,72.74,2.82,7.38-.41,13-.06,19.53,2.38,24.51,9.2,57.22,9,83.46.79a52.28,52.28,0,0,1,18.59-1.78c13.6,1.49,26.64,2.28,40.07,0a28.33,28.33,0,0,1,7.5.17c38.41,4.82,76.86,4.34,116,.46-5.73,4.45-11.71,8.8-17.08,13.3-18,15.12-19.71,30.47-1.89,45.88C579.92,287.19,588,295.1,599,302c30.81,19.19,75.2,23.4,123.26,22.52,48.67-.89,93.62-9.09,139.48-15.6,27-3.85,54.62-7.3,83.51-5.27,22.08,1.56,29.73,7.39,22.84,17.29-6.12,8.78-19.36,14.64-36.85,18.36a414.31,414.31,0,0,1-82.22,8.8c-13.15.13-26.29,1.72-39.4,1.62-30.36-.21-60,2.2-90.13,3.92l18.15-3c-54,1.64-98.06,14.36-144.25,27.95l15.58-11.07-2.91-1L567.25,389.2c3.41-4.45,5.77-7.55,8.14-10.65l-2.06-.69c-4.75,3.31-9.57,6.6-14.21,9.94-1.63,1.18-2.69,2.52-4.17,3.75-7.09,5.88-7,5.8-19.55,2.07-5.69-1.7-11.84-3.05-18.88-4.83,9.71-7.93,6.46-15.29-5.74-22.22-1.76-1-1.26-3-1.26-4.53.05-14.31-18.84-24.59-49.26-27.23-4.46-.38-9.66-2-12.16-3.78C411.18,304.9,323.22,303.65,283.82,329c-5.59,3.59-11,5.77-21.28,6.47-23,1.55-41.13,11.84-43.44,22.91a22.33,22.33,0,0,1-4.07,8.08c-5.22,7.18-2.17,13.51,9.56,19.68-19.89,1-35.35,5.23-51.67,9.28-10.57,2.63-25.78,5.63-41.36,1.17-10.32-3-24.39-4.11-36.83-4.18-19.51-.12-39.3.75-58.51,2.39-11.4,1-21.91,4.22-33.76,6.64V384q0-188,0-376c0-2.65-.14-5.29-.21-7.93H1280Z"/><path d="M521.61,975.45c-10.76.25-21.57.82-32.25.49-2.32-.07-5.85-3.38-6-5.23-.6-9.74-.28-19.49-.28-30-8.23,0-14.23.31-20-.06-14.08-.87-28-2.2-42.12-3.06a146.55,146.55,0,0,0-21.25-.17c-12.4,1.12-24.5,3-37.71,4.65v4.15l-2.35.21c-1.52-4.24-3-8.47-4.5-12.55h-158c-5.12,9,1.35,19.81-11.13,27.78l-13-7.34-12.09,6.5c-.73-7-2-14.72-2.14-22.42-.07-4-2.43-5.59-11.61-5.54-38.91.2-77.82,0-116.73.15-6.72,0-13.41.94-20.16,1.1-2.85.07-5.8-.75-8.71-1.17l1-2.32H27.94q159.84,0,319.68,0c4.32,0,8.65-.67,13-1-.22-.73-.45-1.46-.67-2.19H327.51c0-.37,0-.73,0-1.1,9.49-.35,19-.88,28.46-1,8.78-.13,13.32-2.38,17.23-5.74,6.42-5.53,13.72-10.84,20.65-16.24l-10,10.94,2,1.29c4-1,10.48-1.46,11.7-2.92,3.68-4.4,10.72-8.76,8.13-13.77l-3.25-.4-9,5.19c1.72-2,4-3.83,5-5.85a3.8,3.8,0,0,0-.7-4.51c-5.94-5.75-.11-10.37,13.52-10.39,20.8,0,41.81.81,62.34-.28,45.61-2.43,91.49,2.48,136.49-.66,49.75-3.47,99.47-2.34,148.83-1.41,37.18.69,74.4,1.41,111.64,1.68,3.85,0,7.71-.21,11.57-.33l.6-1.64-22.13-3.73c22.64-12.37,16.9-25.4-14.53-32.86-4-1-8.21-2.32-12.44-2.43-15.9-.41-20.92-4.38-23.58-11.38-2-5.2-9.4-10.31-16.72-14.6-6.64-3.9-16.31-6.69-24.85-9.85-8.16-3-16.6-5.88-24.55-8.68,18.61-4.46,26.19-3.91,26.67.78,10.29,2.3,19.23,4.31,28.19,6.3a9.74,9.74,0,0,0,2.19.23c22.64-.38,38.75,6.06,55.75,11.59,9.56,3.1,16.41,2.56,25.51-2s11.43-10,3.68-13.18c-19.73-8-22.06-19.15-24.78-29.8-5.15-20.22,2-39.72,35.64-54,22.39-9.49,49.15-16.83,74.78-24.54,19-5.71,39.26-10.55,59.18-15.59a36.94,36.94,0,0,1,11.56-.86c33,3.44,66.34,4.15,98.91.3,32.41-3.82,64.76-2,97.18-2.34,13.87-.17,27.69-1.24,41.53-1.89v223.2c-3,.14-6,.41-9,.4q-99.78-.47-199.55-1c-13-.07-26.06,0-39.38,0v23.89l12.42-.35c0-5.36.26-10.27-.07-15.16s3.18-7.43,14.48-6.82c4.48.25,9.07,0,13.6,0,16.92,0,17.35.23,17.3,8,0,4.67,0,9.34,0,14.29H1280v39.15c-31-1.11-62,.19-93-.18-31.9-.37-63.84-.08-97.1-.08,0,5.14-.12,9.68,0,14.22.12,3.5-3.22,5.24-10.84,5.2-7.92,0-15.86,0-23.78,0s-11.9-1.61-11.78-5.4c.15-4.54,0-9.08,0-13.76h-11.29c0,3.47,0,6.44,0,9.42-.09,10.71-.1,10.73,23.65,10.63q112-.49,224.09-1V1024H783c14.4-6.62,27.65-13.49,30-23.55.25-1.07,5.74-2.28,9.21-2.72,13.69-1.74,27.57-3.16,40.33-9.11-6.73-.19-10.66-.4-14.59-.39-71.85.17-143.7.56-215.55.51q-110-.07-220-.93c-5.24,0-13.69-1.49-14.91-3.18-2-2.72.85-6.2,1.65-9.36l4.65.44c-.85,1.26-1.29,2.63-2.64,3.77-4.33,3.63-2.24,6,6.77,6.57,7.48.46,15.08.65,22.63.65q207.63.21,415.27.37c13.05,0,25.5.47,27.45-7.93.19-.78,7.32-1.72,11.24-1.73,35.17-.11,70.34,0,105.51,0,14.53,0,15.16-.34,15.31-7.23.08-3.84,0-7.69-2.46-11.55,0,3.85-.07,7.7,0,11.54.11,4.5-3.57,6.65-14.18,6.62-29.9-.06-29.91.11-32.45-13.75-.32-1.74-.44-3.48-.75-5.95l-22.68-.86c12.37-2.7,25.45-4.87,24.48-13.08l3.5.16v30.44c8.62-4.13-5.89-11.84,13.06-13.22,6.24-.46,16.5-2.1,19.32,2.82,1.84,3.21.94,6.77,3.17,10.23.45-1.09,1.28-2.17,1.31-3.25.2-7.75.15-15.5.37-23.25.1-3.84-3-5.34-11.89-5.85-20-1.15-39.64-3.65-59.65-4.64-9.53-.47-19.61,1.17-29.37,2-6.12.54-12.1,2-18.15,2q-169.05.21-338.11.12H526.5c0,9.89.28,19.51-.24,29.11-.1,1.94-3.24,3.84-5,5.74.93-7.13,2.24-14.25,2.69-21.39.86-13.53,0-13.76-29.25-12.82-6.47.21-9.58,1.16-9.46,4.39.31,8.26.31,16.52.13,24.78-.08,3.4,3.14,4.74,10.23,4.7C504.29,975.19,513,975.37,521.61,975.45ZM410.51,908l-5.21,8.1c5,.4,10.05,1.1,15.1,1.16,15.12.19,30.25.11,45.37.17,17,.06,17,.07,16.9-7.57,0-.53-.08-1.06-.08-1.59.05-14.53-2-12.52,26.32-12.63,1.89,0,3.79.07,5.66,0,9.29-.43,13.09,1.53,12.79,5.83-.37,5.22-.09,10.45-.09,16.58H957.16c0-2.67-.09-5.3,0-7.93.66-16.48-5-14.1,30.65-14.28,13.31-.07,14.47.53,14.68,7,.15,4.76,0,9.52,0,14.28l3.62,0c0-4.34,0-8.69,0-13,.05-10,.06-10-20.85-9.92q-175.79.43-351.57.87-101.47.25-203,.51c-8.51,0-13.67,1.19-15.77,5.1-1.37,2.54-3.17,5-4.77,7.54Zm75.74,8.12h0c0,5.09.32,10.18-.08,15.27-.44,5.52,8.59,4.43,14.08,3.86,7.92-.82,22,4,23-3.85,1.23-10,.47-20-.23-30-.09-1.34-5.37-3.89-7.35-3.71-9.67.87-21.09-2.81-29,2.16-1.11.7-.4,2-.41,3.1C486.23,907.32,486.25,911.71,486.25,916.1Zm596.25-18.28-1.21.85c0,4.28,1.7,8.75-.44,12.78-2.54,4.77-12.69,2.24-19.56,2.65-6.24.38-8.75-1.4-8.68-4.19.11-3.87,0-7.75,0-11.62-2.53,1.27-3.6,2.73-3.63,4.2-.15,7,0,14.09,0,21.14,0,13.13,0,13,28.16,12.45,7-.15,9-1.33,8.92-4.45-.26-9.85.13-19.71-.13-29.56C1085.92,900.64,1083.7,899.23,1082.5,897.82Zm-111.59,0-3.37-1.07c-2.1,1.5-5.92,3-6,4.5-.57,10,.12,20.07-.53,30.1-.33,5.08,7.14,4.72,12.67,4,8.27-1.09,23,4.16,24.22-3.91,1.53-10,.44-20.07.14-30.11,0-1.34-2.12-2.67-4.1-5,0,5,.57,8.61-.24,12.17-.41,1.8-3,4.85-5.15,4.95-7.15.33-15.43.43-21.57-1C961.05,911.08,964.77,900.25,970.91,897.79Zm78.21,73.31,1.54,0a55.27,55.27,0,0,1,.77-6.65c1.35-5.74,11.12-3.93,18.35-4.33,7.07-.39,12,.64,12.15,4.39.13,2.78,0,5.56,0,8.35l2.78,0c0-9.26.14-18.51-.19-27.76,0-1.11-2.61-3.1-4.19-3.14-9-.24-18-.18-27,.2-1.61.07-4,2.1-4,3.24C1049,954,1049.12,962.53,1049.12,971.1Zm-58.24-64c.44-4.43,1-7.9-10.65-7.86-7.82,0-12.34,1-11.61,5,.67,3.63-3.57,8.24,11.21,8.31C990.84,912.6,991.15,909.89,990.88,907.1Zm86.85,0c.42-3.71,1.82-7.13-10.33-7.13-10.86,0-12,2.48-11.86,6.48.09,3.68.44,6.4,11,6.44C1076.34,912.92,1079.37,911.08,1077.73,907.09Zm84.46,34.32.72-2c-11.46-.91-23-2.81-34.32-2.47-12.56.38-24.84,2.8-38.86,4.52Zm-108.28,24.83c1.15,4.8,4.94,5.75,12,5.65s11.53-.87,11.47-4.69-4.07-5.9-11.66-5.1C1061.37,962.57,1057.84,964.8,1053.91,966.24Zm-82.58-3.66L968.54,964c2.23,2.89,3.77,6,7.14,8.54.88.67,10.13.24,10.83-.57,2-2.24,3.78-6,1.29-7.23C984.47,963,977,963.2,971.33,962.58Z"/><path d="M2.29,1024V974.55c12.77,15.16,39.37,19.78,68.15,23.86-10.83,10.64.24,18.44,15.82,25.59Z"/><path class="cls-2" d="M1280,918.21H1089.82c0-5,0-9.62,0-14.29,0-7.73-.38-7.93-17.3-8-4.53,0-9.12.22-13.6,0-11.3-.61-14.81,2-14.48,6.82s.07,9.8.07,15.16l-12.42.35V894.37c13.32,0,26.35-.06,39.38,0q99.78.47,199.55,1c3,0,6-.26,9-.4v2.12h-7.84c-14.53,0-15.07.33-15.27,7-.37,12.45.23,10.35,23.11,10.95Zm-142.77-12.3c0-8.81-.15-8.91-16-8.93-24.24,0-24.24,0-24.31,10.49-.05,7.07.91,7.39,22,7.41C1137.07,914.9,1137.19,914.84,1137.23,905.91Zm117-.13c0-8.76,0-8.76-20-8.75-16,0-16,0-15.9,10.05,0,7.59.48,7.79,17.49,7.78C1253.81,914.85,1254.31,914.6,1254.26,905.78Zm-76.38,0c0,8.87.25,9,17.1,9,18.56,0,19-.18,19-8.79,0-8.41-1-9-15.13-9C1177.91,897,1177.91,897,1177.88,905.79Zm-38.69-.08c0,9.13.16,9.18,19.31,9.17,16,0,16.83-.42,16.78-8.76,0-8.81-.63-9.15-15.93-9.14C1139.15,897,1139.13,897,1139.19,905.71Z"/><path class="cls-2" d="M1280,976.4q-112.05.51-224.09,1c-23.75.1-23.74.08-23.65-10.63,0-3,0-5.95,0-9.42h11.29c0,4.68.11,9.22,0,13.76-.12,3.79,3.83,5.46,11.78,5.4s15.86-.06,23.78,0c7.62,0,11-1.7,10.84-5.2-.16-4.54,0-9.08,0-14.22,33.26,0,65.2-.29,97.1.08,31,.37,62-.93,93,.18v2.11c-4.88,0-9.92-.32-14.6.14-3.1.31-7.27,1.49-8.25,2.73-7,9,.19,13.47,20.61,13.12.75,0,1.49-.08,2.24-.12Zm-163.47-.83c20.49,0,20.73-.1,20.85-7.36.15-8.57-.44-8.85-19-8.84-3,0-6,.06-9.05,0-8.81-.1-13.5,1.72-13.18,6a44.29,44.29,0,0,1,0,5.28c-.14,3.24,3.08,4.94,10.18,4.91C1109.74,975.56,1113.13,975.57,1116.53,975.57Zm119-16.19c-16.94,0-17.65.29-17.67,7.8,0,8.08.43,8.34,15.12,8.36,20.42,0,20.7-.07,20.73-8S1253.06,959.39,1235.52,959.38Zm-39.68,16.2c17.51-.06,18.31-.42,18.21-8.1-.09-7.46-1.73-8.18-18.72-8.13-17.68,0-17.93.18-17.77,9.29C1177.68,975.22,1178.78,975.64,1195.84,975.58Zm-39,0c17.55,0,18.44-.41,18.45-8,0-7.82-1-8.27-19.16-8.24-16.61,0-17.4.41-17.31,8.53C1138.91,975.07,1140.14,975.6,1156.86,975.57Z"/><path class="cls-2" d="M1280,899.17v13.76c-4.12-.12-8.28-.1-12.33-.4-1.9-.14-5.06-.85-5.14-1.39-.5-3.46-1.39-7.06.31-10.34.51-1,9-1,13.79-1.51C1277.73,899.18,1278.88,899.21,1280,899.17Z"/><path class="cls-2" d="M1280,961.59v11.63c-18.11-.74-19.18-1.37-17.64-7.59C1263.84,959.67,1274.37,963.13,1280,961.59Z"/><path d="M1280,961.59c-5.63,1.54-16.16-1.92-17.64,4-1.54,6.22-.47,6.85,17.64,7.59v2.12c-.75,0-1.49.11-2.24.12-20.42.35-27.64-4.11-20.61-13.12,1-1.24,5.15-2.42,8.25-2.73,4.68-.46,9.72-.13,14.6-.14Z"/><path d="M1280,899.17c-1.12,0-2.27,0-3.37.12-4.82.46-13.28.54-13.79,1.51-1.7,3.28-.81,6.88-.31,10.34.08.54,3.24,1.25,5.14,1.39,4,.3,8.21.28,12.33.4V915c-22.88-.6-23.48,1.5-23.11-10.95.2-6.71.74-7,15.27-7H1280Z"/><path d="M460.54,718.81c-11.68.4-22.28.44-32.66,1.17-28.76,2-51.56,8.47-67.36,20.12-2,1.48-6.62,2.85-10.36,3.08-26.05,1.63-45,10.05-49.26,22.1-1.34,3.77-3.86,7.45-5.77,11.18-3.31,6.45.13,12.17,9.44,17.22-11.49,1.8-23.42,2.7-33,5.42a199.32,199.32,0,0,1-36.67,7.21c-6.6.64-11.41,1-17.67-.7-19.42-5.22-40.85-5.89-62.67-4.85-10.88.52-21.72,1.23-32.58,1.87C93.4,804.3,70.28,814.18,66.87,826.9c-1.08,4,1.19,8.26,2,12.58C40.17,843.17,16,850.13,3.09,863.86V507.27c7.71,1.22,14.8,1.63,20.06,3.3,26.23,8.3,55.34,8.62,81.47.13,7.14-2.32,13.31-2.84,22-1.72a159.91,159.91,0,0,0,29,.94c20.58-1.26,40.32-1.84,61.3.34,36,3.75,72.69,3.69,108.63-1.64,5.15-.76,11.12-.37,16.71-.42,32.09-.27,64.27-1.31,96.24-.51,24.3.62,49.43-1.32,72.94,4.8,12.07,3.14,27.54,3.38,41.32,5.21a56.18,56.18,0,0,1,13.64,3.24c29.45,12.53,63.5,19.36,103.77,19.07,18.71-.14,29.69,5.85,27.5,14.73-1.71,7-9.66,12.56-21.2,16.28-22.28,7.18-44.54,14.9-69.14,19.9-64.12,13-107.52,35.09-137.39,63.77-6.75,6.48-13.61,13-18.41,19.85-9.22,13.11-4.83,26.1,4.87,38.82Z"/><path d="M629.69,619.61c-27.64,3.51-39.62,12.08-39.19,24.44-13.48,1.16-26.51,2-39.18,3.52-3.92.47-6.86,2.72-10.25,4.15,3.19,1.34,6,3.41,9.66,3.86,10.53,1.28,21.37,2.24,32.2,2.64,7.09.27,9.59,1.27,12.37,4.5,5.31,6.22,13.4,11.92,20.37,17.82.35.3,1.21.47,1.51.78,6,6.16,12,12.33,19.32,19.86-19.35-4.81-25.51-12.79-34.72-19.67,1.84,9.45,11.66,16.85,25.92,23.39a78.62,78.62,0,0,1,15.57,10c8,6.17,15.3,12.53,22.78,18.84,8,6.72,15.27,13.63,23.9,20.16,6.55,5,14.73,9.44,22.4,14.27l-4.56,2c4.12,1.27,10.49,2.1,1.06,4.76l12.28.89c-.67.87-1.27,1.63-2.06,2.64l11.73,1.68-9.27,1.8,2.06,1.77c3.45.23,7.34.06,10.24.78,3.75.92,6.7,2.55,10,3.86,2.69,1,5.43,2.07,11,4.19-13.47.72-25.2,1.39-37,1.94-9.74.45-19.88.11-29.17,1.29a97.61,97.61,0,0,1-29.8-.52c-14.47-2.54-29.2-4.82-43.3-7.75-16.08-3.34-23.93-9.85-24.48-17.74-.95-13.73-20.54-24.32-50-26.5-3.92-.29-8.81-1.53-10.8-3-12.33-9.29-29.69-15.43-51.85-18.54-7-1-10.31-2.87-12.94-5.85-15.78-17.92-16.34-35.42,3-53,17.12-15.58,34.85-30.83,61.1-43.6C554,607.3,584.22,600,615,592.66a576.47,576.47,0,0,0,63.21-18.39c24.65-9,35.16-19,16.8-34.7,7.37-.85,14.59-1.47,21.49-2.53,30.79-4.74,61.17-10.14,92.32-14.26,20.92-2.77,42.8-4.06,64.4-5.57,33.25-2.33,52.46,6.82,68.6,18.87-1.44.25-2.28.45-3.17.55s-2.08.13-4,.23c7.91,6.33,6.1,12.16-4,18.66-.48-6.08.74-11.69-14.4-15.68,9.2,6.75,5.13,11.67-3.33,15.68-8.11,3.85-17.54,7.1-26.64,10.47-2.27.83-5.64,1-8.31,1.64-11.67,2.82-21,3.52-32.64-1.61-13.91-6.14-32.75-6.29-51.44-4.16a85.47,85.47,0,0,1-19.18.12,154.13,154.13,0,0,0-49.85,1.67c-17.95,3.63-26.18,10.26-25.46,18.69-18.8,4.93-37,9.35-54.33,14.36C625,602.49,620.83,609.08,629.69,619.61Z"/><path d="M786.63,717.72c.84,6.3,1.69,12.61,2.61,19.47l-65.31-52.81c2.58,13.53,14.25,25.35,29.19,36.87-2.17-.76-4.49-1.45-6.49-2.3-38.47-16.38-39.14-36.52-25.87-57.88.9-1.45,6-3,9.73-3.32,22.28-2.2,43.22,0,63.81,5.14-3,6.37,7.53,7.73,17.36,8.89a343.1,343.1,0,0,0,66.33.92,166.79,166.79,0,0,1,18.83.1c9,.34,18,1.3,26.95,1.35,33.82.16,67.64.06,102.83.06-13.51,3.56-26.29,7.08-39.37,10.34-34.35,8.56-68.85,17.08-96.35,30.27-30.77,14.76-40.41,33-37,53,.72,4.19,2.4,8.34,3.3,11.36-11.54-6.38-24.39-13.41-37-20.53a13.59,13.59,0,0,1-4.61-4.1c-8.23-12.38-16.27-24.79-24.37-37.19Z"/><path d="M1084.89,594.91c5.5-7.67,2.63-11.16-14.47-16.08,14.49-4.7,5.65-11.41,6.59-17.31.23-1.4-6.39-4-10.59-4.4-7.46-.72-15.47-.2-23.76-.2l3-12.61c26.62,3.09,51.68,7.27,74.14,14.3a192.38,192.38,0,0,1,25.43,9.62c18.09,8.69,24.65,19.12,18.68,31.1-4.13,8.32-4.47,8.54-24.68,9.64-1.48-3.22-2.18-6.74-4.92-9.87-1.51-1.73-6.26-3.87-9.86-4C1111.25,594.62,1098,594.91,1084.89,594.91Z"/><path d="M160.37,888.55c6.88,4-.54,10.64,12.63,10.24,4.28-.12,7.83-5.51,12.15-8.82,11.29,11.49,10.11,24.36,11.84,37.77-12.52,0-23.73.1-34.9-.09-1.89,0-5.32-1.32-5.27-2C157.71,913.63,159,901.6,160.37,888.55Z"/><path d="M664.34,799.74c-14.89,6.39-29.89,7.11-46.55,2.4-6-1.7-12.52-3.07-19.17-4.68l5.41-8.58Z"/><path d="M932.29,976.68c-16,0-31.92-.11-47.87.05-8.27.08-11.26-1.54-11.5-5.32-.6-9.44,1.49-10.55,24.45-10.81,13.36-.15,26.74-.09,40.11,0,15.08.09,16.11.72,15.93,8.8-.16,6.85-1,7.24-16.59,7.26h-4.53Zm-2-2.58c9.45-.07,18.7,1.09,18-5.73-.65-5.84-8.24-5.17-16.22-5.31-9.81-.18-15.11.9-14.81,6.46S923.89,974.42,930.29,974.1ZM889.43,974c16.86.1,17.76-.27,18.1-5.26.23-3.3-.23-5.87-9.93-5.76-15.46.18-18.22,1-19.06,5.83C877.55,974.51,885.4,974.05,889.43,974Z"/><path class="cls-2" d="M653.79,963.23c0,3.84,0,7.69,0,11.54-7.87.11-15.74.26-23.62.32-7.49.06-10.5-1.69-10.58-5.21-.15-6.44,1-7.24,15.16-7.21C641.1,962.68,647.45,963,653.79,963.23Z"/><path class="cls-2" d="M784.3,963.76l-3.39,11c-7.87.12-15.77.52-23.59.3-10.16-.29-8.15-4.1-8.37-7.15-.2-2.86.46-5.47,8.66-5.22C766.52,963,775.41,963.4,784.3,963.76Z"/><path d="M498.66,507.62c19.63-5.51,40.69-2.58,49.76,7Z"/><path d="M99.68,925.61c-2.85.63-5.76,1.8-8.7,1.82-17.31.12-34.64.05-51.95-.12-9.23-.09-9.26-.25-7.56-6.29l14.7,3.78c4.32-1.32,10.54-4.19,14.95,1a4,4,0,0,0,2,.33c6-.69,12-1.52,18.06-2.15a34.49,34.49,0,0,1,6.66.05C91.21,924.31,94.46,924.88,99.68,925.61Z"/><path d="M914.27,955.93H729.66v-.66H914.22C914.23,955.49,914.25,955.71,914.27,955.93Z"/><path d="M968.6,604.9q-1.35,4.23-2.69,8.46c-9.76-.4-18.88-.72-28-1.2-1.46-.07-2.75-.86-4.12-1.31,1.19-.73,2.09-1.91,3.61-2.12C947.43,607.38,957.55,606.23,968.6,604.9Z"/><path d="M994.58,949.49c-.22,6.93-2.32,7.91-15.74,7.87-11.77,0-14.43-1.44-14.34-7.57.09-5.84,3.2-6.79,18.12-6.89C994.2,942.82,995.81,945.77,994.58,949.49Zm-5.34-.1c1.6-3.43-2.45-4.58-10-4.57-7.4,0-9.63,1.56-9.57,4.83s1.4,5.3,9.78,5.32C987.6,955,990,953.15,989.24,949.39Z"/><path d="M442.7,974.42c-.79-3.57-2-7.14-2.07-10.72,0-.91,3.62-2.54,5.77-2.61,8.61-.28,17.28-.09,25.94,0a8.31,8.31,0,0,1,2.08.37c5.62,1.59,6.16,13,.31,13.31-10.61.59-21.57-.24-32.38-.48,6.75,0,13.54-.15,20.25.11,9.14.35,12.78-1.24,12.59-5.64-.18-4.15-1.84-6.45-12.43-6.4-20.43.1-20.43-.15-20.14,9.48C442.65,972.67,442.67,973.55,442.7,974.42Z"/><path d="M835.4,975.52c-.87-4.1-2-8.2-2.25-12.3,0-.52,4.74-1.41,7.44-1.58,4.45-.29,9-.15,13.53-.16,15.7,0,22.35,4.47,16.21,11.29a12.83,12.83,0,0,1-7.59,3.23c-9.2.16-18.46-.37-27.7-.65,6.75-.08,13.49-.14,20.23-.23,11.24-.15,13.64-1.9,10.2-7-1-1.5-.82-3.18-1.21-4.88-28.15-2.5-31.2-1.3-28.93,11.74C835.36,975.17,835.38,975.34,835.4,975.52Z"/><path class="cls-2" d="M393.53,903.6l9-5.19,3.25.4c2.59,5-4.45,9.37-8.13,13.77-1.22,1.46-7.65,2-11.7,2.92l-2-1.29,10-10.94Z"/><path d="M581,975.28c-9.87.37-19.74,1-29.63,1.05-12.71.1-13.39-.8-13.92-8.5-.32-4.69,2.75-7.11,13.34-6.33,9.37.69,18.68,1.54,28,2.31l-.22-.15q1.16,5.88,2.32,11.75Zm-23.43.62c5-.87,12.88-1.17,14.21-2.72,2.27-2.62,2.21-8.3-.06-8.69-8.24-1.43-17.84-1.52-26.84-1.32-1.78,0-4.36,3.59-4.55,5.57C539.72,974.66,541.58,975.23,557.54,975.9Z"/><path d="M694.61,975.35c-9.19.29-18.4.83-27.57.7-2.31,0-5.68-2.1-6.43-3.48-1.16-2.16-.4-4.53-.65-6.8-.36-3.2,3.1-4.44,9.59-4.32,3,.06,6.1-.19,9,.07,6.24.55,17.23,1,17.68,2.12,1.44,3.78-1,7.88-2,11.86,2.56-13,.69-13.92-23.25-12.83-9.1.42-8.69,3.09-8.53,5.94s-1.56,6.38,8.45,6.5Z"/><path d="M807.11,961.5c18,0,23.59,3.47,18.5,11.75a7,7,0,0,1-4.58,2.61c-9.31.28-18.75.45-28,0-2.12-.11-4.88-2.87-5.15-4.48C786.32,961.87,787.27,961.49,807.11,961.5Zm2.2,1.15c-18.84,0-19.36.17-19.34,5.85,0,6,1.45,6.62,16.59,6.62,15.52,0,16.5-.61,17.24-6.37C824.57,962.73,817.36,962.11,809.31,962.65Z"/><path d="M720,961.51h3.4c14.74.05,22.78,6.79,15,12.83-1.28,1-4.7,1.72-7.33,1.89-4.82.31-9.84-.1-14.69.15-11.19.56-15.62-1.41-15.17-6.83C701.81,961.49,701.19,961.48,720,961.51Zm2.69,1.14c-18.37,0-18.5.29-19.28,6.26-.71,5.39,4.69,6.51,14.88,6.35,17.55-.26,18.4-.6,19.15-6.74C738.19,962.11,729.7,962.38,722.65,962.65Z"/><path d="M604.53,659c12.16-.65,12.16-.65,12.16,13Z"/><path d="M248.89,925.93h47.74l.09.9H249Z"/><path d="M419.84,972.09c-1.16-.69-2.93-1.29-3.38-2.07a69.78,69.78,0,0,1-3.32-7.23c5.14-.26,11.17-1.39,15.15-.5,3.06.67,4.42,3.84,4.94,6,.75,3.09,1.71,6.94-9.61,5.85-1.63-.16-2.76-1.44-4.12-2.2l10.08.27c0-2.54,1.49-5.42-.65-7.47-1.16-1.12-8.53-.83-14.53-1.28Z"/><path d="M784.3,963.76c-8.89-.36-17.78-.79-26.69-1.07-8.2-.25-8.86,2.36-8.66,5.22.22,3.05-1.79,6.86,8.37,7.15,7.82.22,15.72-.18,23.59-.3-10.09.34-20.81,1.7-30,.48-3.33-.44-3.66-7-3.7-10.79,0-1,6.38-2.89,9.57-2.77C766,962,776.5,959.45,784.3,963.76Z"/><path d="M653.79,963.23c-6.34-.2-12.69-.55-19-.56-14.11,0-15.31.77-15.16,7.21.08,3.52,3.09,5.27,10.58,5.21,7.88-.06,15.75-.21,23.62-.32-10.48.33-21.39,1.54-31.2.5-3.17-.34-4.42-6.59-4.47-10.15,0-1.2,6.38-3.41,9.87-3.43C636.59,961.67,645.19,962.65,653.79,963.23Z"/><path d="M578.77,963.81c4.7-2.19,30.94-3.76,33-1.47,2.92,3.32,3,7.4,2.29,11.06-.23,1.13-7.08,2.67-11.06,2.77-7.27.19-14.65-.54-22-.89l-.1.13c7.91-.09,15.84,0,23.73-.29,10.59-.33,7.83-4.22,8.26-7.18s-.58-5.47-8.66-5.26c-8.56.22-17.1.64-25.65,1Z"/><path d="M736.72,978.28H674.64v-.41h61.94Z"/><path d="M757,977.84H811.1v.37H757.16Z"/><path class="cls-2" d="M410.25,908.15c1.6-2.51,3.4-5,4.77-7.54,2.1-3.91,7.26-5.09,15.77-5.1q101.47-.09,203-.51,175.79-.46,351.57-.87c20.91,0,20.9,0,20.85,9.92,0,4.35,0,8.7,0,13l-3.62,0c0-4.76.12-9.52,0-14.28-.21-6.49-1.37-7.09-14.68-7-35.66.18-30-2.2-30.65,14.28-.11,2.63,0,5.26,0,7.93H527.27c0-6.13-.28-11.36.09-16.58.3-4.3-3.5-6.26-12.79-5.83-1.87.08-3.77,0-5.66,0-28.33.11-26.27-1.9-26.32,12.63,0,.53.07,1.06.08,1.59.05,7.64.05,7.63-16.9,7.57-15.12-.06-30.25,0-45.37-.17-5-.06-10.07-.76-15.1-1.16l5.22-8.11c-.91,5.84,8.88,4.33,15.49,4.75,8.7.55,8.35-2.39,8.31-5.1,0-1.92.6-3.9-.2-5.74-.62-1.44-3.2-3.88-4.55-3.82-3.76.14-8.56.92-10.71,2.23C415.11,902.6,413,905.5,410.25,908.15Zm248.8,1.55c1.71,4.6,9.21,3.48,15.22,3.5,26.54.08,26.35,0,25.28-12.12-.33-3.76-3.42-5.22-11.64-5.36-15.9-.28-31.54,1.43-47.7.25-14.22-1.05-28.91.81-43.61-.1-11.08-.69-22.52-.12-33.79-.18-26.9-.13-26.64-.15-25.94,12.23.22,3.83,3,5.4,11.32,5.34,19.3-.14,38.61,0,57.92,0,7.34,0,14.8.38,22-.07C638.54,912.5,651.11,915.89,659.05,909.7Zm273.61,3.52c20.67,0,20.67,0,20.65-9.47a25.8,25.8,0,0,1,0-2.64c.38-3.74-3-5.45-11.43-5.35-14.65.18-29.32,0-44,.06-26.91.1-24.08-1.58-24.49,11.78-.12,4,2.85,5.78,11.81,5.67C901,913.07,916.86,913.21,932.66,913.22Zm-453.45-8.41c0-8.78-.17-8.85-17.77-8.85-22.2,0-22.2,0-22.08,11.7.06,6.14.87,6.39,20.68,6.37C479.25,914,479.25,914,479.21,904.81Zm371.5-9.93c-6.34,1-16.78,1.43-18.06,3.23-2.77,3.93-1.1,8.57-.68,12.92.06.69,3,1.85,4.69,1.89,9.39.22,18.81.24,28.2.1,1.75,0,4.83-1.11,4.9-1.76.43-4.5,1.82-9.21-.61-13.41C868.25,896.3,857.85,895.94,850.71,894.88Zm-85.22.93c-20,0-20,0-19.86,9.15a5.58,5.58,0,0,1,0,1.58c-1.46,5.45,4.08,6.9,15.16,6.79,26.63-.28,26.49-.06,25-12.75-.37-3.24-2.75-5-10.12-4.78C772.29,895.89,768.89,895.81,765.49,895.81Zm41.92,0c-20.14,0-20.28,0-20.28,6.93,0,11.75-1.27,10.47,23.83,10.49,1.89,0,4.17.32,5.58-.06,3.7-1,10.1-2.38,10-3.45-.65-4.58,6.08-9.87-4.51-13.65-1.25-.45-3.65-.23-5.53-.25C813.44,895.77,810.42,895.79,807.41,895.79ZM722,895l-.59.82c-2.64,0-5.31.12-7.91,0-10.09-.55-13.21,1.68-13,6.14.71,12.28-2.84,11.32,24.48,11.3a68.58,68.58,0,0,0,7.88-.11c2.37-.27,6.27-1,6.37-1.64.68-4.51,2.15-9.23-.15-13.48C738.24,896.41,728,895.94,722,895Z"/><path class="cls-2" d="M521.61,975.45c-8.66-.08-17.32-.26-26-.2-7.09,0-10.31-1.3-10.23-4.7.18-8.26.18-16.52-.13-24.78-.12-3.23,3-4.18,9.46-4.39,29.24-.94,30.11-.71,29.25,12.82-.45,7.14-1.76,14.26-2.69,21.39Zm-31-26.15c0,6.36,1.53,7.15,12.89,7.2,13.85,0,15-.82,15.74-7.22.6-5.55-5.79-6.39-15.39-6.43C493.38,942.82,489.45,945.11,490.62,949.3Z"/><path class="cls-2" d="M486.25,916.1c0-4.39,0-8.78,0-13.17,0-1-.7-2.4.41-3.1,7.92-5,19.34-1.29,29-2.16,2-.18,7.26,2.37,7.35,3.71.7,10,1.46,20,.23,30-1,7.89-15.06,3-23,3.85-5.49.57-14.52,1.66-14.08-3.86.4-5.09.08-10.18.08-15.27Zm33.64,10.31c.12-7.6-1-8.26-14.24-8.33-13.89-.07-15.35.67-15.45,7.83-.1,7.7.8,8.22,14.29,8.28C518.69,934.25,519.77,933.7,519.89,926.41Zm-29.82-20.94c0,8.27.29,8.48,13.3,8.5,15.08,0,16-.36,16.08-6.8.08-8.73-.91-9.38-14.14-9.4C491.12,897.76,490.09,898.28,490.07,905.47Z"/><path class="cls-2" d="M1082.5,897.82c1.2,1.41,3.42,2.82,3.46,4.25.26,9.85-.13,19.71.13,29.56.09,3.12-1.9,4.3-8.92,4.45-28.12.57-28.11.68-28.16-12.45,0-7-.15-14.09,0-21.14,0-1.47,1.1-2.93,3.63-4.2,0,3.87.08,7.75,0,11.62-.07,2.79,2.44,4.57,8.68,4.19,6.87-.41,17,2.12,19.56-2.65,2.14-4,.44-8.5.44-12.78Zm-29.66,28.42c0,7.89.58,8.2,15.28,8.21,13.59,0,14.39-.44,14.38-8.08,0-7-2-8-15.31-8C1054.73,918.41,1052.84,919.44,1052.84,926.24Z"/><path class="cls-2" d="M970.91,897.79c-6.14,2.46-9.86,13.29-3.93,14.66,6.14,1.41,14.42,1.31,21.57,1,2.12-.1,4.74-3.15,5.15-4.95.81-3.56.24-7.19.24-12.17,2,2.32,4.06,3.65,4.1,5,.3,10,1.39,20.12-.14,30.11-1.23,8.07-15.95,2.82-24.22,3.91-5.53.72-13,1.08-12.67-4,.65-10,0-20.07.53-30.1.08-1.52,3.9-3,6-4.5Zm23.74,28.79c.08-7.8-1-8.47-13.78-8.5-14,0-15.64.76-15.71,7.68-.07,7.6,1.28,8.42,14,8.46C993.41,934.26,994.57,933.69,994.65,926.58Z"/><path class="cls-2" d="M1049.12,971.1c0-8.57-.15-17.14.19-25.71,0-1.14,2.43-3.17,4-3.24,9-.38,18-.44,27-.2,1.58,0,4.15,2,4.19,3.14.33,9.25.19,18.5.19,27.76l-2.78,0c0-2.79.1-5.57,0-8.35-.17-3.75-5.08-4.78-12.15-4.39-7.23.4-17-1.41-18.35,4.33a55.27,55.27,0,0,0-.77,6.65Zm17.56-14.38c14.28.09,15.66-.52,15.86-7s-1.09-7.29-13.66-7.39c-15-.13-16.3.39-16.44,6.63C1052.28,956,1053.52,956.63,1066.68,956.72Z"/><path class="cls-2" d="M990.88,907.1c.27,2.79,0,5.5-11,5.45-14.78-.07-10.54-4.68-11.21-8.31-.73-4,3.79-5,11.61-5C991.83,899.2,991.32,902.67,990.88,907.1Z"/><path class="cls-2" d="M1077.73,907.09c1.64,4-1.39,5.83-11.22,5.79-10.53,0-10.88-2.76-11-6.44-.09-4,1-6.47,11.86-6.48C1079.55,900,1078.15,903.38,1077.73,907.09Z"/><path class="cls-2" d="M1162.19,941.41h-72.46c14-1.72,26.3-4.14,38.86-4.52,11.28-.34,22.86,1.56,34.32,2.47Z"/><path class="cls-2" d="M1053.91,966.24c3.93-1.44,7.46-3.67,11.86-4.14,7.59-.8,11.6,1.31,11.66,5.1s-4.41,4.58-11.47,4.69S1055.06,971,1053.91,966.24Z"/><path class="cls-2" d="M971.33,962.58c5.69.62,13.14.46,16.47,2.11,2.49,1.24.66,5-1.29,7.23-.7.81-10,1.24-10.83.57-3.37-2.57-4.91-5.65-7.14-8.54Z"/><path d="M1137.23,905.91c0,8.93-.16,9-18.33,9-21.07,0-22-.34-22-7.41C1097,897,1097,897,1121.23,897,1137.08,897,1137.26,897.1,1137.23,905.91Zm-6.42,6.44c5.58-12.06,3.53-13.3-20.82-13-2.23,0-4.44.18-6.53.26-6.9,11.14-3.43,13.37,20,13.07C1125.71,912.62,1127.94,912.47,1130.81,912.35Z"/><path d="M1254.26,905.78c0,8.82-.45,9.07-18.42,9.08-17,0-17.46-.19-17.49-7.78,0-10,0-10,15.9-10.05C1254.21,897,1254.21,897,1254.26,905.78Zm-30.54,7.27c9.26-.57,20,.19,24.2-1.91,3.93-1.95,4.09-8.42.21-10.19-4.7-2.14-15.38-1.43-24.41-2Z"/><path d="M1177.88,905.79c0-8.82,0-8.82,21-8.78,14.17,0,15.18.62,15.13,9,0,8.61-.47,8.81-19,8.79C1178.13,914.81,1177.84,914.66,1177.88,905.79Zm3.4-6.16c1.63,4.72,1.08,9.25,5.26,12.44,1.85,1.41,17.75,1.23,19.42-.2,3.82-3.29,2.81-7.81,3.87-12.24Z"/><path d="M1139.19,905.71c-.06-8.71,0-8.72,20.16-8.73,15.3,0,15.89.33,15.93,9.14,0,8.34-.75,8.75-16.78,8.76C1139.35,914.89,1139.24,914.84,1139.19,905.71Zm3.81-6c1.42,4.64.7,9.17,4.75,12.39,1.77,1.41,17.78,1.31,19.49-.13,3.89-3.27,2.93-7.8,4-12.26Z"/><path d="M1116.53,975.57c-3.4,0-6.79,0-10.19,0-7.1,0-10.32-1.67-10.18-4.91a44.29,44.29,0,0,0,0-5.28c-.32-4.27,4.37-6.09,13.18-6,3,0,6,0,9.05,0,18.54,0,19.13.27,19,8.84C1137.26,975.47,1137,975.55,1116.53,975.57Zm-2-2.69c9,.12,16.47-.58,17.28-5,.9-4.85-3.2-6.07-17.08-5.93-7.8.07-12.85,1.18-13.35,5.55C1100.77,972.89,1107.13,973.29,1114.54,972.88Z"/><path d="M1235.52,959.38c17.54,0,18.2.31,18.18,8.17s-.31,8-20.73,8c-14.69,0-15.14-.28-15.12-8.36C1217.87,959.67,1218.58,959.36,1235.52,959.38Zm0,13.49c7.69.53,13.23-.33,12.57-4.82-.42-2.85,1.53-6.39-8.84-6-7.73.27-16.14-.26-15.88,5.5C1223.58,971.57,1226.52,973.42,1235.55,972.87Z"/><path d="M1195.84,975.58c-17.06.06-18.16-.36-18.28-6.94-.16-9.11.09-9.25,17.77-9.29,17-.05,18.63.67,18.72,8.13C1214.15,975.16,1213.35,975.52,1195.84,975.58Zm.18-13.46c-8.57-.67-13.14.58-13.25,5.27s4,5.68,12.94,5.58c8.33-.09,13.64-.49,13.22-5.4C1208.57,963.29,1206,961.15,1196,962.12Z"/><path d="M1156.86,975.57c-16.72,0-17.95-.5-18-7.68-.09-8.12.7-8.5,17.31-8.53,18.12,0,19.17.42,19.16,8.24C1175.3,975.16,1174.41,975.54,1156.86,975.57Zm.5-2.74c8.61.62,13-.49,13-5.2,0-5-5.53-5.52-14.06-5.71-9.51-.22-12.11,1.54-12.22,5.76C1144,972.43,1148.87,973.4,1157.36,972.83Z"/><path class="cls-2" d="M930.29,974.1c-6.4.32-12.79.91-13.08-4.58s5-6.64,14.81-6.46c8,.14,15.57-.53,16.22,5.31C949,975.19,939.74,974,930.29,974.1Z"/><path class="cls-2" d="M889.43,974c-4,0-11.88.47-10.89-5.19.84-4.79,3.6-5.65,19.06-5.83,9.7-.11,10.16,2.46,9.93,5.76C907.19,973.77,906.29,974.14,889.43,974Z"/><path class="cls-2" d="M989.24,949.39c.76,3.76-1.64,5.59-9.83,5.58-8.38,0-9.73-2-9.78-5.32s2.17-4.82,9.57-4.83C986.79,944.81,990.84,946,989.24,949.39Z"/><path class="cls-2" d="M442.7,974.42c0-.87-.05-1.75-.08-2.62-.29-9.63-.29-9.38,20.14-9.48,10.59-.05,12.25,2.25,12.43,6.4.19,4.4-3.45,6-12.59,5.64-6.71-.26-13.5-.09-20.25-.11Z"/><path class="cls-2" d="M835.4,975.52c0-.18,0-.35-.07-.53-2.27-13,.78-14.24,28.93-11.74.39,1.7.2,3.38,1.21,4.88,3.44,5.09,1,6.84-10.2,7-6.74.09-13.48.15-20.23.23Z"/><path class="cls-2" d="M557.54,975.9c-16-.67-17.82-1.24-17.24-7.16.19-2,2.77-5.53,4.55-5.57,9-.2,18.6-.11,26.84,1.32,2.27.39,2.33,6.07.06,8.69C570.42,974.73,562.5,975,557.54,975.9Z"/><path class="cls-2" d="M578.55,963.66c8.55-.34,17.09-.76,25.65-1,8.08-.21,9.08,2.36,8.66,5.26s2.33,6.85-8.26,7.18c-7.89.24-15.82.2-23.73.29Q579.72,969.53,578.55,963.66Z"/><path class="cls-2" d="M694.61,975.35l-23.67-.24c-10-.12-8.29-3.64-8.45-6.5s-.57-5.52,8.53-5.94c23.94-1.09,25.81-.2,23.25,12.83Z"/><path class="cls-2" d="M809.31,962.65c8.05-.54,15.26.08,14.49,6.1-.74,5.76-1.72,6.38-17.24,6.37-15.14,0-16.56-.57-16.59-6.62C790,962.82,790.47,962.64,809.31,962.65Z"/><path class="cls-2" d="M722.65,962.65c7.05-.27,15.54-.54,14.75,5.87-.75,6.14-1.6,6.48-19.15,6.74-10.19.16-15.59-1-14.88-6.35C704.15,962.94,704.28,962.66,722.65,962.65Z"/><path class="cls-2" d="M419.84,972.09l-5.44-8.65c6,.45,13.37.16,14.53,1.28,2.14,2,.63,4.93.65,7.47l-10.08-.27Z"/><path d="M659.05,909.7c-7.94,6.19-20.51,2.8-30.93,3.46-7.21.45-14.67.08-22,.07-19.31,0-38.62-.11-57.92,0-8.31.06-11.1-1.51-11.32-5.34-.7-12.38-1-12.36,25.94-12.23,11.27.06,22.71-.51,33.79.18,14.7.91,29.39-1,43.61.1,16.16,1.18,31.8-.53,47.7-.25,8.22.14,11.31,1.6,11.64,5.36,1.07,12.17,1.26,12.2-25.28,12.12C668.26,913.18,660.76,914.3,659.05,909.7Zm-61.91-11.78c-15.77,0-15.32,0-16,6.41-.48,4.72.84,7.93,13.57,7.13,8.27-.53,18.75,1.51,17.75-5.77C611.43,898,612.3,898,597.14,897.92Zm82,13.5c14.91,0,15.32-.17,15.37-5.72.07-7.73.06-7.58-16.55-7.78-9.35-.11-15.9.06-14.94,6C664.24,911.41,663.38,911.44,679.13,911.42Zm-125.07,0c18,0,18.23-.12,18.18-6.43-.06-7.06-.06-7.06-16-7-15.36,0-14.67,0-15.5,8C540.08,911.75,547.19,911.74,554.06,911.42Zm83.29-.09c8.37.26,16.85.89,15.83-5.78C652,898,652.94,898,638.56,898c-16.48,0-16.48,0-16.48,6.08C622.09,911.32,622.09,911.32,637.35,911.33Z"/><path d="M932.66,913.22c-15.8,0-31.62-.15-47.41,0-9,.11-11.93-1.63-11.81-5.67.41-13.36-2.42-11.68,24.49-11.78,14.67-.05,29.34.12,44-.06,8.41-.1,11.81,1.61,11.43,5.35a25.8,25.8,0,0,0,0,2.64C953.33,913.22,953.33,913.22,932.66,913.22Zm-53.84-1.81c8.16,0,15.63.13,23.06-.07,2.22-.06,6.08-1,6.2-1.6.66-3.46,1.48-7.09-.23-10.38-.51-1-9.08-1.4-14-1.42-15.76-.09-15.79,0-15.67,7.61C878.23,907.26,878.56,909,878.82,911.41Zm69.43,0c0-4,.28-7.2-.16-10.32-.14-1-2.14-2.7-3.43-2.73-8.21-.2-16.84-.62-24.48.41-2.33.31-2,5-2.83,7.61-.2.69-.51,1.61.23,2.07,1.77,1.1,4,2.72,6.28,2.83C931.59,911.6,939.43,911.38,948.25,911.38Z"/><path d="M479.21,904.81c0,9.2,0,9.2-19.17,9.22-19.81,0-20.62-.23-20.68-6.37-.12-11.7-.12-11.7,22.08-11.7C479,896,479.18,896,479.21,904.81Zm-3.36,6.6c-1.57-4.76,0-10.28-5.05-12.34-4.79-2-20.12-1.92-24.05.1-4.82,2.49-2.62,7.94-3.48,12.24Z"/><path d="M850.71,894.88c7.14,1.06,17.54,1.42,18.44,3,2.43,4.2,1,8.91.61,13.41-.07.65-3.15,1.73-4.9,1.76-9.39.14-18.81.12-28.2-.1-1.7,0-4.63-1.2-4.69-1.89-.42-4.35-2.09-9,.68-12.92C833.93,896.31,844.37,895.92,850.71,894.88Zm15.77,3c-6.92,0-12.48.19-18,0-9.2-.38-14.1.76-13.08,5.7.84,4.08-2.2,8.45,12.87,8,18.27-.49,18.33,0,18.17-8.58C866.46,901.59,866.48,900.2,866.48,897.86Z"/><path d="M765.49,895.81c3.4,0,6.8.08,10.19,0,7.37-.2,9.75,1.54,10.12,4.78,1.48,12.69,1.62,12.47-25,12.75-11.08.11-16.62-1.34-15.16-6.79a5.58,5.58,0,0,0,0-1.58C745.54,895.82,745.54,895.82,765.49,895.81ZM780.16,898c-8.25,0-15.51-.39-22.42.17-3,.25-6.56,2.24-7.59,3.78-1.28,1.91-.91,4.24.08,6.25.6,1.21,3.35,2.83,5.75,3.11,20.27,2.33,25.78.16,24.92-9.49C780.81,900.75,780.51,899.73,780.16,898Z"/><path d="M807.41,895.79c3,0,6,0,9,0,1.88,0,4.28-.2,5.53.25,10.59,3.78,3.86,9.07,4.51,13.65.15,1.07-6.25,2.46-10,3.45-1.41.38-3.69.07-5.58.06-25.1,0-23.84,1.26-23.83-10.49C787.13,895.83,787.27,895.79,807.41,895.79ZM823,905.64c-.06-7.73-.06-7.73-16-7.73-14.93,0-14.93,0-14.93,7,0,6.39.27,6.29,16.26,6.54C818.8,911.64,826,910.9,823,905.64Z"/><path d="M722,895c6,1,16.28,1.44,17.13,3,2.3,4.25.83,9,.15,13.48-.1.63-4,1.37-6.37,1.64a68.58,68.58,0,0,1-7.88.11c-27.32,0-23.77,1-24.48-11.3-.26-4.46,2.86-6.69,13-6.14,2.6.14,5.27,0,7.91,0Zm-1.28,2.94c-16.09.05-16.09.05-16,6.42.08,7.14.1,7.14,17.26,7.1,14.63,0,14.06-.06,14.8-8.68C737.26,896.3,727.85,898.18,720.68,897.91Z"/><path d="M410.25,908.15c2.78-2.65,4.86-5.55,8.61-7.86,2.15-1.31,6.95-2.09,10.71-2.23,1.35-.06,3.93,2.38,4.55,3.82.8,1.84.18,3.82.2,5.74,0,2.71.39,5.65-8.31,5.1-6.61-.42-16.4,1.09-15.49-4.75Zm19.21-8.26-4.43-.67-10.58,11.06h15Z"/><path d="M490.62,949.3c-1.17-4.19,2.76-6.48,13.24-6.45,9.6,0,16,.88,15.39,6.43-.69,6.4-1.89,7.27-15.74,7.22C492.15,956.45,490.64,955.66,490.62,949.3Zm24.94.26c1.64-4-2.78-5.26-11.49-5.21-7.57,0-11.23,1.18-11,4.87s2,6.31,12.15,6.18C513.94,955.28,516.77,953.61,515.56,949.56Z"/><path d="M519.89,926.41c-.12,7.29-1.2,7.84-15.4,7.78-13.49-.06-14.39-.58-14.29-8.28.1-7.16,1.56-7.9,15.45-7.83C518.87,918.15,520,918.81,519.89,926.41ZM514.31,932c3.17-11.85.54-13.32-18.37-10.87V932Z"/><path d="M490.07,905.47c0-7.19,1.05-7.71,15.24-7.7,13.23,0,14.22.67,14.14,9.4-.06,6.44-1,6.84-16.08,6.8C490.36,914,490,913.74,490.07,905.47Zm3.08.3c.25,3.2-1.58,6.92,10,6.78,8.78-.11,13.48-1.44,12.4-5.87-.83-3.41,2.33-7.43-10.92-7.5C493.12,899.13,492.53,901.89,493.15,905.77Z"/><path d="M1052.84,926.24c0-6.8,1.89-7.83,14.35-7.84,13.34,0,15.3,1,15.31,8,0,7.64-.79,8.09-14.38,8.08C1053.42,934.44,1052.84,934.13,1052.84,926.24Zm6.81-6.22-3.63,1.69c1.81,3.64,2.85,7.44,6.07,10.78.65.68,13.25.21,13.91-.72,2.13-3,3.42-6.92.72-9.52C1075,920.61,1065.6,920.71,1059.65,920Z"/><path d="M994.65,926.58c-.08,7.11-1.24,7.68-15.54,7.64-12.67,0-14-.86-14-8.46.07-6.92,1.66-7.7,15.71-7.68C993.63,918.11,994.73,918.78,994.65,926.58Zm-25-.82c-.44,3.58-1.38,6.6,10.17,6.58,10.68,0,11.12-2.36,11.17-6.12s-.41-6.19-11.06-6.11C970,920.19,968.38,922.2,969.61,925.76Z"/><path d="M1066.68,956.72c-13.16-.09-14.4-.77-14.24-7.74.14-6.24,1.45-6.76,16.44-6.63,12.57.1,13.85.8,13.66,7.39S1081,956.81,1066.68,956.72Zm10.49-6.73c.74-3.35-1.54-5.32-9.69-5.35-7.19,0-10,1.32-9.89,4.64.11,3.05,1.55,5,9.33,4.94C1073.29,954.15,1078.39,953.82,1077.17,950Z"/><path class="cls-2" d="M1130.81,912.35c-2.87.12-5.1.27-7.34.3-23.44.3-26.91-1.93-20-13.07,2.09-.08,4.3-.23,6.53-.26C1134.34,899.05,1136.39,900.29,1130.81,912.35Z"/><path class="cls-2" d="M1223.72,913.05V898.93c9,.59,19.71-.12,24.41,2,3.88,1.77,3.72,8.24-.21,10.19C1243.7,913.24,1233,912.48,1223.72,913.05Z"/><path class="cls-2" d="M1181.28,899.63h28.55c-1.06,4.43,0,9-3.87,12.24-1.67,1.43-17.57,1.61-19.42.2C1182.36,908.88,1182.91,904.35,1181.28,899.63Z"/><path class="cls-2" d="M1143,899.67h28.29c-1.12,4.46-.16,9-4,12.26-1.71,1.44-17.72,1.54-19.49.13C1143.7,908.84,1144.42,904.31,1143,899.67Z"/><path class="cls-2" d="M1114.54,972.88c-7.41.41-13.77,0-13.15-5.33.5-4.37,5.55-5.48,13.35-5.55,13.88-.14,18,1.08,17.08,5.93C1131,972.3,1123.52,973,1114.54,972.88Z"/><path class="cls-2" d="M1235.55,972.87c-9,.55-12-1.3-12.15-5.36-.26-5.76,8.15-5.23,15.88-5.5,10.37-.35,8.42,3.19,8.84,6C1248.78,972.54,1243.24,973.4,1235.55,972.87Z"/><path class="cls-2" d="M1196,962.12c10-1,12.55,1.17,12.91,5.45.42,4.91-4.89,5.31-13.22,5.4-8.94.1-13-1-12.94-5.58S1187.45,961.45,1196,962.12Z"/><path class="cls-2" d="M1157.36,972.83c-8.49.57-13.38-.4-13.26-5.15.11-4.22,2.71-6,12.22-5.76,8.53.19,14.06.7,14.06,5.71C1170.38,972.34,1166,973.45,1157.36,972.83Z"/><path class="cls-2" d="M597.14,897.92c15.16,0,14.29.06,15.35,7.77,1,7.28-9.48,5.24-17.75,5.77-12.73.8-14-2.41-13.57-7.13C581.82,897.88,581.37,897.88,597.14,897.92Z"/><path class="cls-2" d="M679.13,911.42c-15.75,0-14.89,0-16.12-7.53-1-5.91,5.59-6.08,14.94-6,16.61.2,16.62.05,16.55,7.78C694.45,911.25,694,911.41,679.13,911.42Z"/><path class="cls-2" d="M554.06,911.42c-6.87.32-14,.33-13.37-5.49.83-8,.14-8,15.5-8,16,0,16,0,16,7C572.29,911.3,572,911.41,554.06,911.42Z"/><path class="cls-2" d="M637.35,911.33c-15.26,0-15.26,0-15.27-7.3,0-6.08,0-6.08,16.48-6.08,14.38,0,13.47,0,14.62,7.6C654.2,912.22,645.72,911.59,637.35,911.33Z"/><path class="cls-2" d="M878.82,911.41c-.26-2.43-.59-4.15-.61-5.86-.12-7.58-.09-7.7,15.67-7.61,4.89,0,13.46.45,14,1.42,1.71,3.29.89,6.92.23,10.38-.12.64-4,1.54-6.2,1.6C894.45,911.54,887,911.41,878.82,911.41Z"/><path class="cls-2" d="M948.25,911.38c-8.82,0-16.66.22-24.39-.13-2.3-.11-4.51-1.73-6.28-2.83-.74-.46-.43-1.38-.23-2.07.79-2.66.5-7.3,2.83-7.61,7.64-1,16.27-.61,24.48-.41,1.29,0,3.29,1.75,3.43,2.73C948.53,904.18,948.25,907.33,948.25,911.38Z"/><path class="cls-2" d="M475.85,911.41H443.27c.86-4.3-1.34-9.75,3.48-12.24,3.93-2,19.26-2.07,24.05-.1C475.81,901.13,474.28,906.65,475.85,911.41Z"/><path class="cls-2" d="M866.48,897.86c0,2.34,0,3.73,0,5.12.16,8.55.1,8.09-18.17,8.58-15.07.41-12-4-12.87-8-1-4.94,3.88-6.08,13.08-5.7C854,898.05,859.56,897.86,866.48,897.86Z"/><path class="cls-2" d="M780.16,898c.35,1.77.65,2.79.74,3.82.86,9.65-4.65,11.82-24.92,9.49-2.4-.28-5.15-1.9-5.75-3.11-1-2-1.36-4.34-.08-6.25,1-1.54,4.58-3.53,7.59-3.78C764.65,897.57,771.91,898,780.16,898Z"/><path class="cls-2" d="M823,905.64c2.94,5.26-4.22,6-14.71,5.84-16-.25-16.27-.15-16.26-6.54,0-7,0-7,14.93-7C823,897.91,823,897.91,823,905.64Z"/><path class="cls-2" d="M720.69,897.9c7.16.28,16.57-1.6,16,4.85-.74,8.62-.17,8.63-14.8,8.68-17.16,0-17.18,0-17.26-7.1C704.59,898,704.59,898,720.69,897.9Z"/><path class="cls-2" d="M429.46,899.89v10.39h-15L425,899.22Z"/><path class="cls-2" d="M515.56,949.56c1.21,4.05-1.62,5.72-10.34,5.84-10.17.13-11.91-2.38-12.15-6.18s3.43-4.82,11-4.87C512.78,944.3,517.2,945.59,515.56,949.56Z"/><path class="cls-2" d="M514.31,932H495.94c0-3.77,0-7.32,0-10.88C514.85,918.68,517.48,920.15,514.31,932Z"/><path class="cls-2" d="M493.15,905.77c-.62-3.88,0-6.64,11.47-6.59,13.25.07,10.09,4.09,10.92,7.5,1.08,4.43-3.62,5.76-12.4,5.87C491.57,912.69,493.4,909,493.15,905.77Z"/><path class="cls-2" d="M1059.65,920c5.95.69,15.36.59,17.07,2.23,2.7,2.6,1.41,6.54-.72,9.52-.66.93-13.26,1.4-13.91.72-3.22-3.34-4.26-7.14-6.07-10.78Z"/><path class="cls-2" d="M969.61,925.76c-1.23-3.56.43-5.57,10.28-5.65,10.65-.08,11.1,2.34,11.06,6.11s-.49,6.11-11.17,6.12C968.23,932.36,969.17,929.34,969.61,925.76Z"/><path class="cls-2" d="M1077.17,950c1.22,3.83-3.88,4.16-10.25,4.23-7.78.09-9.22-1.89-9.33-4.94-.12-3.32,2.7-4.67,9.89-4.64C1075.63,944.67,1077.91,946.64,1077.17,950Z"/><path class="cls-3" d="M396,980.63l1.14,2.64"/><path class="cls-3" d="M417.6,987.5q94.76,0,189.5,0c3.79,0,7.57.33,11.35.5"/><path class="cls-3" d="M644.55,987.5q102.69,0,205.39,0c3.78,0,7.56.33,11.34.5"/><path class="cls-3" d="M526.54,918.74q-1.14-10.05-2.27-20.1"/><path class="cls-3" d="M519.73,896.53l-30.64.53"/><path class="cls-3" d="M484.55,898.12q-.57,9.78-1.13,19.57"/><path class="cls-3" d="M637.74,912.4l12.48-.53"/><path class="cls-3" d="M624.12,912.4l12.49-.53"/><path class="cls-3" d="M747.81,900.23q.57,5,1.13,10"/><path class="cls-3" d="M753.48,912.4l28.37-.53"/><path class="cls-3" d="M784.12,900.23,783,898.64"/><path class="cls-3" d="M918,955.77l-13.62-.53"/><path class="cls-3" d="M903.27,955.24c-23.07.18-46.15.45-69.22.51-36.31.08-72.62,0-108.93,0"/><path class="cls-3" d="M573.06,963.7c-1.51-.53-3-1.49-4.54-1.51-9.45-.15-18.91-.07-29.89-.07q.76,6.35,1.52,12.69"/><path class="cls-3" d="M544.69,975.87l26.1-.53"/><path class="cls-3" d="M579.87,974.28c10.21.53,22.17,2.74,30,1,5-1.13,3.94-8.13,5.83-13.14-12,0-22.21-.07-32.43.07-1.55,0-3,1-4.55,1.51"/><path class="cls-3" d="M868.09,963.7c-8.32-.53-16.62-1.31-25-1.46-3.34-.06-6.8,1.29-10.2,2"/><path class="cls-3" d="M834.05,974.28c10.33,3,29.7,2.12,35.18-1.59"/><path class="cls-3" d="M661.57,964.76c.76,3.53-.86,9.27,2.77,10.11,7.42,1.73,17.67,1,26.72.85,2,0,3.8-2,5.69-3"/><path class="cls-3" d="M695.61,963.7c-1.89-.53-3.78-1.51-5.67-1.51-8.7,0-17.4.28-26.1.45"/><path class="cls-3" d="M447.11,974.81l28.36-.53"/><path class="cls-3" d="M441.43,962.64c0,3-.44,6,.21,9,.28,1.29,2.82,2.47,4.33,3.71"/><path class="cls-3" d="M660.44,907.11l2.26,4.23"/><path class="cls-3" d="M662.7,911.87h30.64"/><path class="cls-3" d="M661.57,898.12c-.38.52-.76,1-1.13,1.58"/><path class="cls-3" d="M826.11,899.7l-2.27-2.11"/><path class="cls-3" d="M796.6,912.4h9.08c19.67,0,19.67,0,19.3-9-.05-1,0-2.11,0-3.17"/><path class="cls-3" d="M525.4,942.55c0,9.52-.29,19,.15,28.56.17,3.68-3,4.72-10.36,4.81-29.91.39-29.89.47-30.68-13.27,0-.54-.71-1.06-1.09-1.59"/><path class="cls-3" d="M483.42,960.53v-3.7"/><path class="cls-3" d="M1089.36,918.74c-.75-2.46-1.51-4.93-2.26-7.4"/><path class="cls-3" d="M1087.1,910.81V898.64"/><path class="cls-3" d="M1047.38,898.12l-1.14,1.58"/><path class="cls-3" d="M919.15,912.4l26.1-.53"/><path class="cls-3" d="M491.36,902.35q.57,4.49,1.13,9"/><path class="cls-3" d="M497,913.45l12.49-.52"/><path class="cls-3" d="M515.19,898.64c-5.3,0-10.74-.34-15.82.15-2.63.25-4.61,2-6.87,3"/><path class="cls-3" d="M880.57,912.4l28.37-.53"/><path class="cls-3" d="M1078,919.8l-3.41-.53"/><path class="cls-3" d="M1059.86,933.55l14.75.53"/><path class="cls-3" d="M781.85,963.17l-34.5-1.62c.58,4.8,1.09,9,1.59,13.26"/><path class="cls-3" d="M753.48,975.87h26.1"/><path class="cls-3" d="M652.49,962.12h-17c-17,0-16.4,0-17.26,7.92-.51,4.76,3.67,6.06,12.73,5.86,7.17-.16,14.37,0,21.55,0"/><path class="cls-3" d="M510.65,944.13l-3.4-.53"/><path class="cls-3" d="M497,944.13c-9.46,1.41-5.18,4.65-4.54,7.41"/><path class="cls-3" d="M494.76,955.77c5.68,0,11.39.18,17-.1,2-.1,3.81-1.31,5.7-2"/><path class="cls-3" d="M515.19,944.13l-3.4-.53"/><path class="cls-3" d="M727.38,911.87h6.81"/><path class="cls-3" d="M738.73,909.75c-.38-1.23-.75-2.47-1.13-3.7"/><path class="cls-3" d="M738.73,903.4c-.38-1.58-.75-3.17-1.13-4.76"/><path class="cls-3" d="M730.79,896.53l-3.41.53"/><path class="cls-3" d="M702.42,899.17l1.14,5.82"/><path class="cls-3" d="M703.56,905.52v2.65"/><path class="cls-3" d="M705.82,912.4h20.43"/><path class="cls-3" d="M1058.73,899.17c-5.09,2.09-6.74,12-2.27,13.76,3.8,1.46,20.13.37,23.83-1.59"/><path class="cls-3" d="M1078,899.7l-3.41-.53"/><path class="cls-3" d="M923.69,975.87l-3.4-.53"/><path class="cls-3" d="M835.18,56.6l-3.4.52"/><path class="cls-3" d="M830.65,57.12l-12.49,1.59"/><path class="cls-3" d="M432.35,901.29c.57-4-4.56-2.8-9.07-2.12"/><path class="cls-3" d="M416.47,904.46l-1.14,1.59"/><path class="cls-3" d="M415.33,911.34l3.41.53"/><path class="cls-3" d="M432.35,910.81c-.37-3-.75-6-1.13-9"/><path class="cls-3" d="M885.11,962.12l-3.4.52"/><path class="cls-3" d="M741,978H670.65"/><path class="cls-3" d="M1027,673.32l-6.8,1.59"/><path class="cls-3" d="M815.89,978H752.35"/><path class="cls-3" d="M539,900.23q.57,5.55,1.13,11.11"/><path class="cls-3" d="M540.15,911.87h30.64"/><path class="cls-3" d="M999.72,899.17c-1.39-3.49-6.18-3-11.35-2.11"/><path class="cls-3" d="M788.66,736.26v1.59"/><path class="cls-3" d="M890.79,261.82l-9.08.53"/><path class="cls-3" d="M854.47,775.4l1.14,1.59"/><path class="cls-3" d="M856.74,779.64v1.58"/><path class="cls-3" d="M3.42,861.09v4.76"/><path class="cls-3" d="M1072.34,961.06l-15.88.53"/><path class="cls-3" d="M977,898.12l-9.08,1"/><path class="cls-3" d="M973.62,913.45l14.75-.52"/><path class="cls-3" d="M992.91,910.81l-1.13-1.59"/><path class="cls-3" d="M991.78,908.69v-7.93"/><path class="cls-3" d="M3.42,973.75,4.56,979"/><path class="cls-3" d="M1076.88,359.14l-1.13,2.12"/><path class="cls-3" d="M977,897.06H963.41"/><path class="cls-3" d="M958.87,899.17l1.14,1.59"/><path class="cls-3" d="M958.87,906.58q-.57,6.61-1.13,13.22"/><path class="cls-3" d="M615.05,899.7l-2.27-2.11"/><path class="cls-3" d="M246.26,927.21l4.54-.53"/><path class="cls-3" d="M610.51,912.4l-31.78-1.06"/><path class="cls-3" d="M724,285.09l3.4,1.06"/><path class="cls-3" d="M999.72,973.22l-1.13,1.59"/><path class="cls-3" d="M964.54,975.87l-3.4-.53"/><path class="cls-3" d="M863.55,473.39l-4.54-.53"/><path class="cls-3" d="M356.33,926.15l-5.68.53"/><path class="cls-3" d="M93.07,927.21l-3.41-.53"/><path class="cls-3" d="M391.5,905l-5.67,5.29"/><path class="cls-3" d="M162.29,889.12l-1.14,5.29"/><path class="cls-3" d="M862.42,876.43H859"/><path class="cls-3" d="M162.29,959.47v3.7"/><path class="cls-3" d="M956.6,943.07l1.14,5.29"/><path class="cls-3" d="M935,955.77h-5.67"/><path class="cls-3" d="M741,351.21l-6.81,1.05"/><path class="cls-3" d="M733.06,352.26l-17,1.59"/><path class="cls-3" d="M716,767.47l-4.54-.53"/><path class="cls-3" d="M729.65,780.17h-3.4"/><path class="cls-3" d="M61.3,927.21l5.67-.53"/><path class="cls-3" d="M744.41,797.09H741"/><path class="cls-3" d="M359.73,941.49l2.27,5.82"/><path class="cls-3" d="M398.31,899.17,396,901.82"/><path class="cls-3" d="M716,771.7l-4.54.53"/><path class="cls-3" d="M1129.08,968.46v4.76"/><path class="cls-3" d="M1214.19,956.3l3.4,2.64"/><path class="cls-3" d="M722.85,775.93l-4.54.53"/><path class="cls-3" d="M482.28,956.3l-4.54.53"/><path class="cls-3" d="M938.45,535.27l2.26,1.59"/><path class="cls-3" d="M703.56,962.64c-.38,3.35-1.36,6.73-.81,10,.19,1.14,4.11,3,6.5,3,8.27.21,16.62-.2,24.94-.38"/><path class="cls-3" d="M738.73,973.22c0-11.1,0-11.1-23.83-11.1h-6.81"/><path class="cls-3" d="M837.45,912.4l28.37-.53"/><path class="cls-3" d="M1099.58,899.17l-1.14,1.59"/><path class="cls-3" d="M1099.58,903.4l-1.14,1.59"/><path class="cls-3" d="M793.2,962.12c-9,3.77-3.63,8.38-3.4,12.69"/><path class="cls-3" d="M796.6,975.87l21.56-.53"/><path class="cls-3" d="M825,974.28c0-12.16,0-12.16-26.1-12.16h-4.54"/><path class="cls-3" d="M978.16,943.6l-7.94,1.06"/><path class="cls-3" d="M989.51,944.13l-3.41-.53"/><path class="cls-3" d="M510.65,933.55l3.4-.53"/><path class="cls-3" d="M411.93,963.7c2.27,2.12,4.05,4.39,6.95,6.3,2.74,1.81,6.65,3.23,10.05,4.82l3.8-1.07q-.75-5.29-1.51-10.58"/><path class="cls-3" d="M968,920.33l-1.14,1.59"/><path class="cls-3" d="M968,930.91l1.13,1.59"/><path class="cls-3" d="M992.91,930.91c-.38-3.35-.75-6.7-1.13-10"/></g></svg>