<svg xmlns="http://www.w3.org/2000/svg" xmlns:xlink="http://www.w3.org/1999/xlink" viewBox="0 0 709.69 850.03"><defs><style>.cls-1{isolation:isolate;}.cls-2{fill:none;}.cls-3{fill:#f5aebe;}.cls-4{fill:#e5cdb1;}.cls-5{fill:url(#Degradado_sin_nombre_12);}.cls-6{fill:url(#Degradado_sin_nombre_16);}.cls-16,.cls-7{fill:#d97671;}.cls-7{mix-blend-mode:soft-light;}.cls-8{fill:url(#Degradado_sin_nombre_12-2);}.cls-9{fill:url(#Degradado_sin_nombre_12-3);}.cls-10{fill:url(#Degradado_sin_nombre_12-4);}.cls-11{fill:url(#Degradado_sin_nombre_12-5);}.cls-12{fill:url(#Degradado_sin_nombre_12-6);}.cls-13{fill:url(#Degradado_sin_nombre_12-7);}.cls-14{fill:url(#Degradado_sin_nombre_12-8);}.cls-15{fill:url(#Degradado_sin_nombre_12-9);}.cls-17{fill:#a52020;}.cls-18{fill:#fef593;}.cls-19{fill:#5e5c5d;}.cls-20{fill:#b7a68c;}.cls-21{fill:#8c6eaa;}.cls-22{fill:#e473a7;}.cls-23{fill:#96abf9;}.cls-24{fill:#fff499;}.cls-25{fill:#009b5e;}.cls-26{fill:#470087;}.cls-27{fill:url(#Degradado_sin_nombre_12-10);}.cls-28{fill:url(#Degradado_sin_nombre_12-11);}.cls-29{fill:url(#Degradado_sin_nombre_12-12);}.cls-30{fill:url(#Degradado_sin_nombre_12-13);}.cls-31{fill:url(#Degradado_sin_nombre_12-14);}.cls-32{fill:url(#Degradado_sin_nombre_16-5);}.cls-33{fill:url(#Degradado_sin_nombre_12-15);}.cls-34{fill:url(#Degradado_sin_nombre_12-16);}.cls-35{fill:url(#Degradado_sin_nombre_12-17);}.cls-36{fill:url(#Degradado_sin_nombre_16-7);}.cls-37{fill:url(#Degradado_sin_nombre_12-18);}</style><linearGradient id="Degradado_sin_nombre_12" x1="93.72" y1="435.54" x2="189.26" y2="435.54" gradientUnits="userSpaceOnUse"><stop offset="0" stop-color="#ffd2d7"/><stop offset="1" stop-color="#ffa2ba"/></linearGradient><radialGradient id="Degradado_sin_nombre_16" cx="193.3" cy="209.5" r="139.39" gradientTransform="translate(2.11 -43.7) scale(1.83 2.23)" gradientUnits="userSpaceOnUse"><stop offset="0" stop-color="#8e322f"/><stop offset="1"/></radialGradient><linearGradient id="Degradado_sin_nombre_12-2" x1="93.72" y1="186.74" x2="137.96" y2="186.74" xlink:href="#Degradado_sin_nombre_12"/><linearGradient id="Degradado_sin_nombre_12-3" x1="144.75" y1="190.1" x2="190.19" y2="190.1" xlink:href="#Degradado_sin_nombre_12"/><linearGradient id="Degradado_sin_nombre_12-4" x1="93.72" y1="707.76" x2="141.09" y2="707.76" xlink:href="#Degradado_sin_nombre_12"/><linearGradient id="Degradado_sin_nombre_12-5" x1="148.15" y1="707.76" x2="190.19" y2="707.76" xlink:href="#Degradado_sin_nombre_12"/><linearGradient id="Degradado_sin_nombre_12-6" x1="137.85" y1="166.07" x2="194.56" y2="166.07" xlink:href="#Degradado_sin_nombre_12"/><linearGradient id="Degradado_sin_nombre_12-7" x1="254.07" y1="133" x2="355.85" y2="133" xlink:href="#Degradado_sin_nombre_12"/><linearGradient id="Degradado_sin_nombre_12-8" x1="189.26" y1="189.87" x2="355.85" y2="189.87" xlink:href="#Degradado_sin_nombre_12"/><linearGradient id="Degradado_sin_nombre_12-9" x1="261.82" y1="154.18" x2="355.85" y2="154.18" xlink:href="#Degradado_sin_nombre_12"/><linearGradient id="Degradado_sin_nombre_12-10" x1="571.73" y1="186.74" x2="615.97" y2="186.74" xlink:href="#Degradado_sin_nombre_12"/><linearGradient id="Degradado_sin_nombre_12-11" x1="519.5" y1="436.62" x2="615.97" y2="436.62" xlink:href="#Degradado_sin_nombre_12"/><linearGradient id="Degradado_sin_nombre_12-12" x1="519.5" y1="190.1" x2="564.95" y2="190.1" xlink:href="#Degradado_sin_nombre_12"/><linearGradient id="Degradado_sin_nombre_12-13" x1="568.6" y1="707.76" x2="615.97" y2="707.76" xlink:href="#Degradado_sin_nombre_12"/><linearGradient id="Degradado_sin_nombre_12-14" x1="519.5" y1="707.76" x2="561.54" y2="707.76" xlink:href="#Degradado_sin_nombre_12"/><radialGradient id="Degradado_sin_nombre_16-5" cx="421.04" cy="209.5" r="139.39" gradientTransform="matrix(-1.83, 0, 0, 2.23, 1124.36, -43.7)" xlink:href="#Degradado_sin_nombre_16"/><linearGradient id="Degradado_sin_nombre_12-15" x1="515.13" y1="167.04" x2="571.84" y2="167.04" xlink:href="#Degradado_sin_nombre_12"/><linearGradient id="Degradado_sin_nombre_12-16" x1="351.44" y1="133" x2="455.62" y2="133" xlink:href="#Degradado_sin_nombre_12"/><linearGradient id="Degradado_sin_nombre_12-17" x1="353.85" y1="189.87" x2="520.43" y2="189.87" xlink:href="#Degradado_sin_nombre_12"/><radialGradient id="Degradado_sin_nombre_16-7" cx="421.04" cy="209.5" r="139.39" gradientTransform="matrix(-2.1, 0, 0, 3.24, 1215.17, -138.76)" xlink:href="#Degradado_sin_nombre_16"/><linearGradient id="Degradado_sin_nombre_12-18" x1="351.44" y1="152.73" x2="443.91" y2="152.73" xlink:href="#Degradado_sin_nombre_12"/></defs><title>pink</title><g class="cls-1"><g id="Capa_2" data-name="Capa 2"><g id="Capa_1-2" data-name="Capa 1"><g id="Capa_4" data-name="Capa 4"><path class="cls-2" d="M92.74,170.69C64.5,173.87,28.45,172.94,4,166.75l89.76,24.16V170.69Z"/><polygon class="cls-2" points="93.72 720.76 93.72 694.75 54.52 694.75 44.48 694.75 44.48 714.16 44.48 720.76 49.69 720.76 86.1 720.76 93.72 720.76"/><path class="cls-3" d="M194.56,156.2c-.47-3.64,4.54-.91,5-.91L206.5,154c4.53-2.8,2.42-1.28,2.54-1.34,14.34-7.84,28.17-12,45-15.67,42.81-15,78.31-15.31,96.29-15.29,1.84,0,3.66,0,5.49.08V97.94l-1.61-4.7-5.76,14.67.42-15.43-10.71,12.61,5.87-14.64-14.7,9.43,10.8-12.55-17.39,5.41,14.78-9.35L319,84.3,336.44,79l-18-3.67L337,74.5,321,66.57l18,3.77L326.61,58.87l15.87,8-7.79-14L347,64.42l-2.48-15.3,7.68,14.05L355.29,48l.56,3.65V40.31C320.39,38.6,294,45.61,271.71,57c-43.86,22.37-76,61.49-128.19,83.19h0s1.18,17-22.63,25l16.68-.94.24.22,56.71-2.87Z"/><path class="cls-4" d="M92.74,170.69h1v-.11Z"/><polygon class="cls-5" points="157.93 682.33 189.26 682.33 189.26 207.7 188.34 207.7 145.76 207.7 145.76 575.1 145.76 207.7 137.53 200.7 93.72 188.74 93.72 682.33 129.6 682.33 157.93 682.33"/><path class="cls-4" d="M93.72,170.58v.11l5.94,0-.89-.74C97.12,170.16,95.44,170.38,93.72,170.58Z"/><path class="cls-6" d="M93.72,170.58v.11l5.94,0-.89-.74C97.12,170.16,95.44,170.38,93.72,170.58Z"/><path class="cls-4" d="M194.56,163.35V161.6l-56.71,2.87,6.9,6.08,44.51-.13v-7.07Z"/><path class="cls-4" d="M266.71,134.63c1.37.84,7.52,4.92,7.47,9.63a687.43,687.43,0,0,1,81.47-7.85h.2V121.81c-1.83,0-3.65-.07-5.49-.08-18,0-53.48.33-96.29,15.29,3.85-.84,7.86-1.66,12.07-2.49A.76.76,0,0,1,266.71,134.63Z"/><path class="cls-7" d="M249.67,173.86a13,13,0,0,0,2.24-3.62h-1A9.66,9.66,0,0,1,249.67,173.86Z"/><path class="cls-6" d="M249.67,173.86a13,13,0,0,0,2.24-3.62h-1A9.66,9.66,0,0,1,249.67,173.86Z"/><path class="cls-7" d="M355.85,208.53V170l-86.48.24c-1.24,3.67-4.18,7.28-10,10.07,0,0-11.58-5.52-12.78-6.93a12.32,12.32,0,0,1-2.19-3.06h-2.91a8.55,8.55,0,0,0,1.62,3.87c3.57,5,40.53,9.67,15.2,32.84a.86.86,0,0,1-.56.22H195.4a.87.87,0,0,1-.84-.9V170.41h-5.3v39.36h.93v-1.25Z"/><path class="cls-4" d="M194.56,163.35h-5.3v7.07h5.3Z"/><path class="cls-7" d="M194.56,163.35h-5.3v7.07h5.3Z"/><path class="cls-6" d="M194.56,163.35h-5.3v7.07h5.3Z"/><path class="cls-4" d="M355.65,136.41a687.43,687.43,0,0,0-81.47,7.85c0,2.64-2,5.49-7.89,8.08a.93.93,0,0,0-.28,1.45c1.93,2.21,5.74,9.41,3.36,16.4l86.48-.24V136.42Z"/><path class="cls-7" d="M355.65,136.41a687.43,687.43,0,0,0-81.47,7.85c0,2.64-2,5.49-7.89,8.08a.93.93,0,0,0-.28,1.45c1.93,2.21,5.74,9.41,3.36,16.4l86.48-.24V136.42Z"/><g id="columna1"><path class="cls-8" d="M99.66,170.67l-5.94,0v20.22L138,202.81Z"/><path class="cls-9" d="M189.26,209.78V170.42l-44.51.13,41,36.11-.57-.56-.34-.34-.41-.4-1-1-.83-.81-.78-.77-2.93-2.88-2.08-2-.87-.85-4.72-4.64-.18-.18-2.27-2.24-.27-.26h0l.27.26,2.27,2.24.18.18,4.72,4.64.87.85,2.08,2,2.93,2.88.78.77.83.81,1,1,.41.4.34.34.57.56,3.55,3.12h0Z"/><polygon class="cls-10" points="105.05 720.76 133.29 720.76 141.09 720.76 141.09 700.96 141.09 694.75 129.95 694.75 93.72 694.75 93.72 720.76 105.05 720.76"/><polygon class="cls-11" points="148.15 720.76 155.59 720.76 167.28 720.76 190.19 720.59 190.19 694.75 158.56 694.75 148.15 694.75 148.15 700.96 148.15 720.76"/><path class="cls-12" d="M194.56,163.35V161.6l-56.71,2.87,6.9,6.08,44.51-.13v-7.07Z"/><path class="cls-13" d="M266.71,134.63c1.37.84,7.52,4.92,7.47,9.63a687.43,687.43,0,0,1,81.47-7.85h.2V121.81c-1.83,0-3.65-.07-5.49-.08-18,0-53.48.33-96.29,15.29,3.85-.84,7.86-1.66,12.07-2.49A.76.76,0,0,1,266.71,134.63Z"/><path class="cls-14" d="M355.85,208.53V170l-86.48.24c-1.24,3.67-4.18,7.28-10,10.07,0,0-11.58-5.52-12.78-6.93a12.32,12.32,0,0,1-2.19-3.06h-2.91a8.55,8.55,0,0,0,1.62,3.87c3.57,5,40.53,9.67,15.2,32.84a.86.86,0,0,1-.56.22H195.4a.87.87,0,0,1-.84-.9V170.41h-5.3v39.36h.93v-1.25Z"/><path class="cls-15" d="M355.64,134.51a645.86,645.86,0,0,0-85.05,9.14c0,3.08-2.09,6.39-8.24,9.41a1.17,1.17,0,0,0-.28,1.7c2,2.56,6,11,3.51,19.1l90.27-.29v-39Z"/></g><path class="cls-4" d="M244.49,169.15a7.13,7.13,0,0,1,2-1.85s4.68-.81,4.39,2.95h1a8.43,8.43,0,0,0,.53-2.72c.08-3.53-6.68-3.86-9.53-1.22a4.75,4.75,0,0,0-1.37,2.75,4.17,4.17,0,0,0,0,1.22h2.91A1.18,1.18,0,0,1,244.49,169.15Z"/><path class="cls-7" d="M244.49,169.15a7.13,7.13,0,0,1,2-1.85s4.68-.81,4.39,2.95h1a8.43,8.43,0,0,0,.53-2.72c.08-3.53-6.68-3.86-9.53-1.22a4.75,4.75,0,0,0-1.37,2.75,4.17,4.17,0,0,0,0,1.22h2.91A1.18,1.18,0,0,1,244.49,169.15Z"/><path class="cls-6" d="M244.49,169.15a7.13,7.13,0,0,1,2-1.85s4.68-.81,4.39,2.95h1a8.43,8.43,0,0,0,.53-2.72c.08-3.53-6.68-3.86-9.53-1.22a4.75,4.75,0,0,0-1.37,2.75,4.17,4.17,0,0,0,0,1.22h2.91A1.18,1.18,0,0,1,244.49,169.15Z"/><path class="cls-16" d="M185.14,206.1l.57.56h0Z"/><path class="cls-16" d="M184.39,205.36l-1-1Z"/><path class="cls-16" d="M168.44,189.67Z"/><path class="cls-16" d="M181.76,202.77l-2.93-2.88Z"/><path class="cls-16" d="M184.8,205.76l-.41-.4Z"/><path class="cls-16" d="M185.14,206.1l-.34-.34Z"/><path class="cls-16" d="M183.37,204.35l-.83-.81Z"/><path class="cls-16" d="M176.75,197.84l-.87-.85Z"/><path class="cls-16" d="M171.16,192.35l-.18-.18Z"/><path class="cls-16" d="M182.54,203.54l-.78-.77Z"/><path class="cls-16" d="M120.93,165.19l-.47.15,17.39-.87-.24-.22Z"/><path class="cls-16" d="M186.22,207.15l.65.65.23.22,1,1,.18.17.13.13.07.07-.07-.07-.13-.13-.18-.17-1-1-.23-.22-.65-.65-.51-.49-41-36.11-45.09.12L138,202.81l6.4,1.73-6.4-1.73,8.31,7h43l-3.55-3.12Z"/><path class="cls-16" d="M137.85,164.47l-17.39.87c-.69.23-1.41.45-2.15.66a144.58,144.58,0,0,1-19.54,3.93l.89.74,45.09-.12Z"/><path class="cls-16" d="M188.09,209l.18.17Z"/><path class="cls-16" d="M188.27,209.17l.13.13Z"/><path class="cls-16" d="M186.22,207.15l.65.65Z"/><path class="cls-16" d="M185.71,206.66h0l.51.49Z"/><path class="cls-16" d="M187.1,208l1,1Z"/><path class="cls-16" d="M186.87,207.8l.23.22Z"/><path class="cls-16" d="M188.4,209.3l.07.07Z"/><polygon id="piso1" class="cls-17" points="355.85 737.32 255.75 737.32 255.59 759.68 246.01 759.68 245.4 737.32 203.91 737.32 203.89 739 203.89 760.03 194.23 760.03 194.23 739 194.23 737.32 190.19 737.32 190.19 733.18 156.6 733.18 155.59 733.18 155.04 733.18 148.15 733.18 148.15 740.55 148.15 760.03 139.61 760.03 139.61 740.55 139.61 733.18 105.05 733.18 99.85 733.18 99.85 739 99.85 760.03 92.05 760.03 92.05 739 92.05 739 92.05 739 92.05 733.18 86.1 733.18 49.69 733.18 44.48 733.18 44.48 739 44.48 760.03 35.57 760.03 35.57 739 35.57 732.05 26.91 732.05 26.91 761.72 355.85 761.72 355.85 737.32"/><polygon class="cls-4" points="26.91 766.7 26.91 761.72 6.89 761.72 6.89 814.86 32.51 814.86 32.51 766.7 26.91 766.7"/><path class="cls-4" d="M348.5,788.55c0-4.4,2.85-8.34,7.35-11V766.69H32.51v48.17H355.85V799.57C351.35,796.89,348.5,793,348.5,788.55ZM84.18,804.28C72.46,804.28,63,797.75,63,789.7s9.49-14.57,21.21-14.57,21.2,6.52,21.2,14.57S95.89,804.28,84.18,804.28Z"/><polygon class="cls-4" points="32.51 766.7 32.51 761.98 32.51 766.7 355.85 766.7 355.85 761.72 26.91 761.72 26.91 766.7 32.51 766.7"/><ellipse class="cls-18" cx="84.18" cy="789.7" rx="21.21" ry="14.58"/><path class="cls-18" d="M348.5,788.55c0,4.4,2.85,8.34,7.35,11v-22C351.35,780.21,348.5,784.15,348.5,788.55Z"/><polygon class="cls-19" points="46.03 837.51 79.55 837.51 79.55 815.39 44.27 815.39 44.27 837.51 45.29 837.51 44.89 837.22 46.03 837.51"/><polygon class="cls-19" points="94.43 849.15 94.43 826.45 79.55 815.39 79.55 837.51 94.43 849.15"/><polygon class="cls-19" points="45.29 837.51 62.54 850.03 95.06 850.03 46.03 837.51 45.29 837.51"/><polygon class="cls-19" points="44.89 837.22 45.29 837.51 46.03 837.51 44.89 837.22"/><polygon class="cls-19" points="144.5 837.07 178.02 837.07 178.02 814.95 142.73 814.95 142.73 837.07 143.76 837.07 143.36 836.78 144.5 837.07"/><polygon class="cls-19" points="192.9 848.72 192.9 826.01 178.02 814.95 178.02 837.07 192.9 848.72"/><polygon class="cls-19" points="143.76 837.07 161 849.59 193.52 849.59 144.5 837.07 143.76 837.07"/><polygon class="cls-19" points="143.36 836.78 143.76 837.07 144.5 837.07 143.36 836.78"/><polygon class="cls-19" points="267.58 837.07 301.1 837.07 301.1 814.95 265.81 814.95 265.81 837.07 266.84 837.07 266.44 836.78 267.58 837.07"/><polygon class="cls-19" points="315.97 848.72 315.97 826.01 301.1 814.95 301.1 837.07 315.97 848.72"/><polygon class="cls-19" points="266.84 837.07 284.08 849.59 316.6 849.59 267.58 837.07 266.84 837.07"/><polygon class="cls-19" points="266.44 836.78 266.84 837.07 267.58 837.07 266.44 836.78"/><polygon class="cls-16" points="255.82 726.74 255.79 732.05 355.85 732.05 355.85 726.74 255.82 726.74"/><rect class="cls-16" x="190.19" y="209.78" width="165.65"/><polygon class="cls-16" points="246.01 694.75 246.01 700.43 255.87 700.43 255.87 694.75 255.59 694.75 246.01 694.75"/><path class="cls-16" d="M238.51,457.72h-9.86v6.21h9.86Z"/><rect class="cls-16" x="190.19" y="208.53" width="165.65" height="1.25"/><rect class="cls-16" x="190.19" y="733.18" width="4.04" height="4.14"/><polygon class="cls-16" points="203.97 733.18 203.91 737.32 245.4 737.32 245.3 733.49 203.97 733.18"/><polygon class="cls-16" points="255.79 732.05 255.75 737.32 355.85 737.32 355.85 732.05 255.79 732.05"/><polygon class="cls-16" points="54.52 694.75 54.52 682.33 25.71 682.33 21.82 682.33 29.25 694.75 34.45 694.75 35.57 694.75 44.48 694.75 54.52 694.75"/><rect class="cls-16" x="158.56" y="682.33" width="31.63" height="12.42"/><polygon class="cls-16" points="148.15 694.75 158.56 694.75 158.56 682.33 129.95 682.33 129.95 694.75 141.09 694.75 148.15 694.75"/><polygon class="cls-16" points="246.01 694.75 246.01 694.22 246.01 694.75 255.59 694.75 255.87 694.75 255.87 694.22 255.87 694.75 264.08 694.75 264.08 682.33 228.04 682.33 228.04 694.75 245.3 694.75 246.01 694.75"/><rect class="cls-16" x="190.19" y="682.33" width="37.85" height="12.42"/><rect class="cls-16" x="54.52" y="682.33" width="39.21" height="12.42"/><rect class="cls-16" x="93.72" y="682.33" width="36.22" height="12.42"/><rect class="cls-16" x="141.09" y="700.96" width="7.06" height="19.8"/><rect class="cls-16" x="141.09" y="694.75" width="7.06" height="6.21"/><rect class="cls-16" x="105.05" y="726.74" width="28.24" height="5.32"/><polygon class="cls-16" points="93.72 726.74 93.72 720.76 86.1 720.76 86.1 732.05 105.05 732.05 105.05 726.74 93.72 726.74"/><rect class="cls-16" x="155.59" y="726.74" width="34.61" height="5.32"/><polygon class="cls-16" points="49.69 720.76 44.48 720.76 44.48 714.16 35.57 714.16 35.57 732.05 49.69 732.05 49.69 720.76"/><rect class="cls-16" x="35.57" y="694.75" width="8.92" height="19.41"/><rect class="cls-16" x="49.69" y="720.76" width="36.41" height="11.29"/><rect class="cls-16" x="93.72" y="720.76" width="11.33" height="5.98"/><rect class="cls-16" x="105.05" y="720.76" width="28.24" height="5.98"/><polygon class="cls-16" points="167.28 720.76 155.59 720.76 155.59 726.74 190.19 726.74 190.19 720.59 167.28 720.76"/><rect class="cls-16" x="35.57" y="739" width="8.92" height="21.03"/><rect class="cls-16" x="92.05" y="739" width="7.8" height="21.03"/><polygon class="cls-16" points="133.29 732.05 105.05 732.05 105.05 733.18 139.61 733.18 139.61 740.55 148.15 740.55 148.15 733.18 155.04 733.18 155.59 733.18 133.29 733.18 133.29 732.05"/><polygon class="cls-20" points="86.1 732.05 86.1 733.18 92.05 733.18 92.05 739 99.85 739 99.85 733.18 105.05 733.18 105.05 732.05 86.1 732.05"/><polygon class="cls-16" points="155.59 732.05 155.59 733.18 156.6 733.18 190.19 733.18 190.19 732.05 155.59 732.05"/><rect class="cls-16" x="49.69" y="732.05" width="36.41" height="1.13"/><rect class="cls-16" x="139.61" y="740.55" width="8.55" height="19.48"/><rect class="cls-16" x="194.23" y="739" width="9.66" height="21.03"/><polygon class="cls-16" points="194.23 739 203.89 739 203.91 737.32 194.23 737.32 194.23 739"/><polygon class="cls-16" points="246.01 759.68 255.59 759.68 255.75 737.32 245.4 737.32 246.01 759.68"/><polygon class="cls-16" points="44.48 739 44.48 733.18 49.69 733.18 49.69 732.05 35.57 732.05 35.57 739 44.48 739"/><polygon class="cls-16" points="190.19 726.74 190.19 732.05 255.79 732.05 255.82 726.74 190.19 726.74"/><polygon class="cls-16" points="190.19 726.74 255.82 726.74 255.87 720.1 190.19 720.59 190.19 726.74"/><polygon class="cls-16" points="190.19 732.05 190.19 733.18 194.23 733.18 194.23 737.32 203.91 737.32 203.97 733.18 245.3 733.49 245.4 737.32 255.75 737.32 255.79 732.05 190.19 732.05"/><rect class="cls-16" x="133.29" y="726.74" width="22.29" height="5.32"/><polygon class="cls-16" points="155.59 726.74 155.59 720.76 148.15 720.76 141.09 720.76 133.29 720.76 133.29 726.74 155.59 726.74"/><rect class="cls-16" x="133.29" y="732.05" width="22.29" height="1.13"/><polygon class="cls-16" points="246.01 720.1 255.87 720.1 255.87 701.27 255.87 700.43 246.01 700.43 246.01 720.1"/><path class="cls-16" d="M4,166.75,0,165.7C1.3,166.07,2.62,166.42,4,166.75Z"/><path class="cls-16" d="M92.74,170.69l-59.1.17,28.23-15.1a313.85,313.85,0,0,1-46.3-3.48C6.91,151,6.71,152.85,0,147.33V165.7L4,166.75C28.45,172.94,64.5,173.87,92.74,170.69Z"/><path class="cls-16" d="M93.72,166.69l4-.2,23.2-1.3c23.81-8,22.63-25,22.63-25h0c-22.58,9.39-48.94,15.51-81.65,15.61l-28.23,15.1,59.1-.17,1-.11Z"/><path class="cls-16" d="M97.73,166.49l-4,.2v3.89c1.72-.2,3.4-.42,5-.65l-3.91-3.28Z"/><path class="cls-16" d="M97.73,166.49l22.73-1.15.47-.15Z"/><path class="cls-16" d="M94.86,166.65l3.91,3.28A144.58,144.58,0,0,0,118.31,166c.74-.21,1.46-.43,2.15-.66l-22.73,1.15Z"/><path class="cls-21" d="M352.86.11l3,1.46V0c-.86,0-1.74,0-2.91.07v0C174.77,12.42,204.25,114.64,0,147.26c0,0,0,0,0,.07l85.6-4.28Z"/><path class="cls-22" d="M271.71,57C294,45.61,320.39,38.6,355.85,40.31V1.57l-3-1.46L85.63,143.05l57.89-2.9C195.75,118.45,227.85,79.33,271.71,57Z"/><path class="cls-22" d="M61.87,155.76l23.76-12.71L0,147.33c6.68,5.52,6.88,3.69,15.54,4.95A313.85,313.85,0,0,0,61.87,155.76Z"/><path class="cls-22" d="M85.63,143.05,61.87,155.76c32.71-.1,59.07-6.22,81.65-15.61Z"/><polygon class="cls-16" points="355.29 47.95 352.23 63.17 344.54 49.12 347.02 64.42 334.69 52.87 342.48 66.88 326.61 58.87 339.03 70.34 321.01 66.57 336.95 74.5 318.4 75.31 336.44 78.98 319 84.3 337.55 83.39 322.76 92.74 340.16 87.33 329.36 99.88 344.06 90.45 338.19 105.09 348.9 92.48 348.48 107.91 354.24 93.24 355.85 97.94 355.85 51.6 355.29 47.95"/><polygon class="cls-16" points="359.61 92.65 369.73 105.59 364.54 90.78 378.8 100.67 368.58 87.78 385.71 93.74 371.38 83.93 389.86 85.43 372.68 79.56 390.88 76.47 372.38 75.07 388.67 67.65 370.5 70.85 383.44 59.77 367.2 67.28 375.64 53.53 362.79 64.67 365.97 49.47 357.64 63.26 355.85 51.6 355.85 97.94 359.31 108.08 359.61 92.65"/><path class="cls-16" d="M226.1,148.56a275.36,275.36,0,0,1,28-11.54c-16.86,3.69-30.69,7.83-45,15.67-.12.06,2-1.46-2.54,1.34l-6.94,1.26c-.46,0-5.47-2.73-5,.91v5.4l8.07-.4C208.18,157.87,216.21,153.3,226.1,148.56Z"/><path class="cls-23" d="M226.1,148.56a275.36,275.36,0,0,1,28-11.54c-16.86,3.69-30.69,7.83-45,15.67-.12.06,2-1.46-2.54,1.34l-6.94,1.26c-.46,0-5.47-2.73-5,.91v5.4l8.07-.4C208.18,157.87,216.21,153.3,226.1,148.56Z"/><path class="cls-24" d="M226.1,148.56a275.36,275.36,0,0,1,28-11.54c-16.86,3.69-30.69,7.83-45,15.67-.12.06,2-1.46-2.54,1.34l-6.94,1.26c-.46,0-5.47-2.73-5,.91v5.4l8.07-.4C208.18,157.87,216.21,153.3,226.1,148.56Z"/><path class="cls-16" d="M274.18,144.26c.05-4.71-6.1-8.79-7.47-9.63a.76.76,0,0,0-.57-.1c-4.21.83-8.22,1.65-12.07,2.49a275.36,275.36,0,0,0-28,11.54c-9.89,4.74-17.92,9.31-23.47,12.64l-8.07.4v1.75h9.6C223.5,154.32,249.33,148.28,274.18,144.26Z"/><path class="cls-23" d="M274.18,144.26c.05-4.71-6.1-8.79-7.47-9.63a.76.76,0,0,0-.57-.1c-4.21.83-8.22,1.65-12.07,2.49a275.36,275.36,0,0,0-28,11.54c-9.89,4.74-17.92,9.31-23.47,12.64l-8.07.4v1.75h9.6C223.5,154.32,249.33,148.28,274.18,144.26Z"/><path class="cls-24" d="M274.18,144.26c.05-4.71-6.1-8.79-7.47-9.63a.76.76,0,0,0-.57-.1c-4.21.83-8.22,1.65-12.07,2.49a275.36,275.36,0,0,0-28,11.54c-9.89,4.74-17.92,9.31-23.47,12.64l-8.07.4v1.75h9.6C223.5,154.32,249.33,148.28,274.18,144.26Z"/><path class="cls-16" d="M249.67,173.86a9.66,9.66,0,0,0,1.22-3.61l-6.47,0a12.32,12.32,0,0,0,2.19,3.06c1.2,1.41,12.78,6.93,12.78,6.93,5.8-2.79,8.74-6.4,10-10.07l-17.46.05A13,13,0,0,1,249.67,173.86Z"/><path class="cls-23" d="M249.67,173.86a9.66,9.66,0,0,0,1.22-3.61l-6.47,0a12.32,12.32,0,0,0,2.19,3.06c1.2,1.41,12.78,6.93,12.78,6.93,5.8-2.79,8.74-6.4,10-10.07l-17.46.05A13,13,0,0,1,249.67,173.86Z"/><path class="cls-24" d="M249.67,173.86a9.66,9.66,0,0,0,1.22-3.61l-6.47,0a12.32,12.32,0,0,0,2.19,3.06c1.2,1.41,12.78,6.93,12.78,6.93,5.8-2.79,8.74-6.4,10-10.07l-17.46.05A13,13,0,0,1,249.67,173.86Z"/><path class="cls-25" d="M194.56,206.3a.87.87,0,0,0,.84.9h62.37a.86.86,0,0,0,.56-.22c25.33-23.17-11.63-27.83-15.2-32.84a8.55,8.55,0,0,1-1.62-3.87l-46.95.14Z"/><path class="cls-23" d="M194.56,206.3a.87.87,0,0,0,.84.9h62.37a.86.86,0,0,0,.56-.22c25.33-23.17-11.63-27.83-15.2-32.84a8.55,8.55,0,0,1-1.62-3.87l-46.95.14Z"/><path class="cls-24" d="M194.56,206.3a.87.87,0,0,0,.84.9h62.37a.86.86,0,0,0,.56-.22c25.33-23.17-11.63-27.83-15.2-32.84a8.55,8.55,0,0,1-1.62-3.87l-46.95.14Z"/><path class="cls-16" d="M246.5,167.3a7.13,7.13,0,0,0-2,1.85,1.18,1.18,0,0,0-.07,1.12l6.47,0C251.18,166.49,246.5,167.3,246.5,167.3Z"/><path class="cls-23" d="M246.5,167.3a7.13,7.13,0,0,0-2,1.85,1.18,1.18,0,0,0-.07,1.12l6.47,0C251.18,166.49,246.5,167.3,246.5,167.3Z"/><path class="cls-24" d="M246.5,167.3a7.13,7.13,0,0,0-2,1.85,1.18,1.18,0,0,0-.07,1.12l6.47,0C251.18,166.49,246.5,167.3,246.5,167.3Z"/><path class="cls-26" d="M266,152.73a1.11,1.11,0,0,1,.28-1.63c5.89-2.89,7.86-6.06,7.89-9-24.85,4.48-50.68,11.22-70,21.3h-9.6v7.87l46.95-.15a5.18,5.18,0,0,1,0-1.36,5.53,5.53,0,0,1,1.37-3.07c2.85-2.94,9.61-2.58,9.53,1.36a10.34,10.34,0,0,1-.53,3l17.46-.05C271.75,163.23,267.94,155.19,266,152.73Z"/><path class="cls-23" d="M266,152.73a1.11,1.11,0,0,1,.28-1.63c5.89-2.89,7.86-6.06,7.89-9-24.85,4.48-50.68,11.22-70,21.3h-9.6v7.87l46.95-.15a5.18,5.18,0,0,1,0-1.36,5.53,5.53,0,0,1,1.37-3.07c2.85-2.94,9.61-2.58,9.53,1.36a10.34,10.34,0,0,1-.53,3l17.46-.05C271.75,163.23,267.94,155.19,266,152.73Z"/><path class="cls-24" d="M266,152.73a1.11,1.11,0,0,1,.28-1.63c5.89-2.89,7.86-6.06,7.89-9-24.85,4.48-50.68,11.22-70,21.3h-9.6v7.87l46.95-.15a5.18,5.18,0,0,1,0-1.36,5.53,5.53,0,0,1,1.37-3.07c2.85-2.94,9.61-2.58,9.53,1.36a10.34,10.34,0,0,1-.53,3l17.46-.05C271.75,163.23,267.94,155.19,266,152.73Z"/><path class="cls-2" d="M617,170.69c28.24,3.18,64.28,2.25,88.77-3.94L616,190.91V170.69Z"/><polygon class="cls-2" points="615.97 720.76 615.97 694.75 655.18 694.75 665.21 694.75 665.21 714.16 665.21 720.76 660.01 720.76 623.59 720.76 615.97 720.76"/><path class="cls-3" d="M515.13,156.2c.47-3.64-4.54-.91-5-.91L503.19,154c-4.53-2.8-2.42-1.28-2.54-1.34-14.34-7.84-28.16-12-45-15.67-42.81-15-78.3-15.31-96.28-15.29-1.85,0-3.67,0-5.49.08V97.94l1.6-4.7,5.76,14.67-.42-15.43,10.71,12.61-5.87-14.64,14.71,9.43L369.53,87.33l17.4,5.41-14.78-9.35,18.54.91L373.25,79l18-3.67-18.55-.81,15.94-7.93-18,3.77,12.41-11.47-15.87,8,7.79-14L362.67,64.42l2.48-15.3-7.68,14.05L354.41,48l-.56,3.65V40.31C389.3,38.6,415.74,45.61,438,57c43.86,22.37,76,61.49,128.19,83.19h0s-1.19,17,22.62,25l-16.68-.94-.24.22-56.71-2.87Z"/><path class="cls-4" d="M617,170.69h-1v-.11Z"/><path class="cls-27" d="M610,170.67l5.93,0v20.22l-44.24,11.9Z"/><polygon class="cls-28" points="551.13 682.33 519.5 682.33 519.5 209.78 520.43 209.78 563.42 209.78 563.42 575.57 563.42 209.78 571.73 202.81 615.97 190.91 615.97 682.33 579.75 682.33 551.13 682.33"/><path class="cls-29" d="M520.43,209.78V170.42l44.52.13-41,36.11.57-.56.34-.34.41-.4,1-1,.83-.81.79-.77,2.92-2.88,2.08-2,.87-.85,4.72-4.64.18-.18,2.28-2.24.27-.26h0l-.27.26-2.28,2.24-.18.18L533.81,197c-.28.28-.57.57-.87.85l-2.08,2-2.92,2.88-.79.77-.83.81-1,1-.41.4-.34.34-.57.56-3.55,3.12h0Z"/><polygon class="cls-30" points="604.64 720.76 576.4 720.76 568.6 720.76 568.6 700.96 568.6 694.75 579.75 694.75 615.97 694.75 615.97 720.76 604.64 720.76"/><polygon class="cls-31" points="561.54 720.76 554.11 720.76 542.41 720.76 519.5 720.59 519.5 694.75 551.13 694.75 561.54 694.75 561.54 700.96 561.54 720.76"/><path class="cls-4" d="M616,170.58v.11l-5.93,0,.88-.74C612.57,170.16,614.26,170.38,616,170.58Z"/><path class="cls-32" d="M616,170.58v.11l-5.93,0,.88-.74C612.57,170.16,614.26,170.38,616,170.58Z"/><path class="cls-4" d="M515.13,163.35V161.6l56.71,2.87L565,170.55l-44.52-.13v-7.07Z"/><path class="cls-33" d="M515.13,163.73V161.6l56.71,3.48L565,172.47l-44.52-.15v-8.59Z"/><path class="cls-4" d="M443,134.63c-1.37.84-7.52,4.92-7.47,9.63A687.43,687.43,0,0,0,354,136.41h-.19V121.81c1.82,0,3.64-.07,5.49-.08,18,0,53.47.33,96.28,15.29-3.85-.84-7.86-1.66-12.07-2.49A.77.77,0,0,0,443,134.63Z"/><path class="cls-34" d="M442.68,134.63c-1.4.84-7.69,4.92-7.64,9.63a720,720,0,0,0-83.4-7.85h-.2V121.81c1.87,0,3.74-.07,5.62-.08,18.41,0,54.74.33,98.56,15.29-3.94-.84-8-1.66-12.35-2.49A.81.81,0,0,0,442.68,134.63Z"/><path class="cls-7" d="M460,173.86a13,13,0,0,1-2.24-3.62h1A9.84,9.84,0,0,0,460,173.86Z"/><path class="cls-32" d="M460,173.86a13,13,0,0,1-2.24-3.62h1A9.84,9.84,0,0,0,460,173.86Z"/><path class="cls-7" d="M353.85,208.53V170l86.47.24c1.24,3.67,4.18,7.28,10,10.07,0,0,11.59-5.52,12.79-6.93a12.23,12.23,0,0,0,2.18-3.06h2.92a8.64,8.64,0,0,1-1.63,3.87c-3.57,5-40.52,9.67-15.19,32.84a.82.82,0,0,0,.55.22H514.3a.86.86,0,0,0,.83-.9V170.41h5.3v39.36h-.93v-1.25Z"/><path class="cls-35" d="M353.85,208.53V170l86.47.24c1.24,3.67,4.18,7.28,10,10.07,0,0,11.59-5.52,12.79-6.93a12.23,12.23,0,0,0,2.18-3.06h2.92a8.64,8.64,0,0,1-1.63,3.87c-3.57,5-40.52,9.67-15.19,32.84a.82.82,0,0,0,.55.22H514.3a.86.86,0,0,0,.83-.9V170.41h5.3v39.36h-.93v-1.25Z"/><path class="cls-4" d="M515.13,163.35h5.3v7.07h-5.3Z"/><path class="cls-7" d="M515.13,163.35h5.3v7.07h-5.3Z"/><path class="cls-36" d="M515.13,161.79h6.09v10.26l-6.09,0Z"/><path class="cls-4" d="M354,136.41a687.43,687.43,0,0,1,81.47,7.85c0,2.64,2,5.49,7.9,8.08a.93.93,0,0,1,.27,1.45c-1.93,2.21-5.73,9.41-3.36,16.4L353.85,170V136.42Z"/><path class="cls-7" d="M354,136.41a687.43,687.43,0,0,1,81.47,7.85c0,2.64,2,5.49,7.9,8.08a.93.93,0,0,1,.27,1.45c-1.93,2.21-5.73,9.41-3.36,16.4L353.85,170V136.42Z"/><path class="cls-37" d="M351.64,133a623.34,623.34,0,0,1,83.65,9.16c0,3.09,2.06,6.42,8.1,9.45a1.17,1.17,0,0,1,.28,1.7c-2,2.57-5.88,11-3.45,19.16l-88.78-.28V133Z"/><path class="cls-4" d="M465.2,169.15a7.13,7.13,0,0,0-2-1.85s-4.68-.81-4.39,2.95h-1a8.17,8.17,0,0,1-.52-2.72c-.08-3.53,6.67-3.86,9.53-1.22a4.81,4.81,0,0,1,1.37,2.75,4.54,4.54,0,0,1,0,1.22h-2.92A1.18,1.18,0,0,0,465.2,169.15Z"/><path class="cls-7" d="M465.2,169.15a7.13,7.13,0,0,0-2-1.85s-4.68-.81-4.39,2.95h-1a8.17,8.17,0,0,1-.52-2.72c-.08-3.53,6.67-3.86,9.53-1.22a4.81,4.81,0,0,1,1.37,2.75,4.54,4.54,0,0,1,0,1.22h-2.92A1.18,1.18,0,0,0,465.2,169.15Z"/><path class="cls-32" d="M465.2,169.15a7.13,7.13,0,0,0-2-1.85s-4.68-.81-4.39,2.95h-1a8.17,8.17,0,0,1-.52-2.72c-.08-3.53,6.67-3.86,9.53-1.22a4.81,4.81,0,0,1,1.37,2.75,4.54,4.54,0,0,1,0,1.22h-2.92A1.18,1.18,0,0,0,465.2,169.15Z"/><path class="cls-16" d="M524.55,206.1l-.57.56h0Z"/><path class="cls-16" d="M525.3,205.36l1-1Z"/><path class="cls-16" d="M541.26,189.67Z"/><path class="cls-16" d="M530.86,199.89l2.08-2Z"/><path class="cls-16" d="M527.94,202.77l2.92-2.88Z"/><path class="cls-16" d="M524.89,205.76l.41-.4Z"/><path class="cls-16" d="M524.55,206.1l.34-.34Z"/><path class="cls-16" d="M526.32,204.35l.83-.81Z"/><path class="cls-16" d="M532.94,197.84c.3-.28.59-.57.87-.85Z"/><path class="cls-16" d="M538.71,192.17l2.28-2.24Z"/><path class="cls-16" d="M541,189.93l.27-.26Z"/><path class="cls-16" d="M538.53,192.35l.18-.18Z"/><path class="cls-16" d="M533.81,197l4.72-4.64Z"/><path class="cls-16" d="M527.15,203.54l.79-.77Z"/><path class="cls-16" d="M588.76,165.19l.47.15-17.39-.87.24-.22Z"/><path class="cls-16" d="M523.48,207.15l-.66.65-.22.22-1,1-.17.17-.14.13-.07.07.07-.07.14-.13.17-.17,1-1,.22-.22.66-.65.5-.49,41-36.11,45.09.12-38.31,32.14-6.4,1.73,6.4-1.73-8.31,7h-43l3.55-3.12Z"/><path class="cls-16" d="M571.84,164.47l17.39.87c.7.23,1.41.45,2.15.66a144.58,144.58,0,0,0,19.54,3.93l-.88.74L565,170.55Z"/><path class="cls-16" d="M521.6,209l-.17.17Z"/><path class="cls-16" d="M521.43,209.17l-.14.13Z"/><path class="cls-16" d="M523.48,207.15l-.66.65Z"/><path class="cls-16" d="M524,206.66h0l-.5.49Z"/><path class="cls-16" d="M522.6,208l-1,1Z"/><path class="cls-16" d="M522.82,207.8l-.22.22Z"/><path class="cls-16" d="M521.29,209.3l-.07.07Z"/><polygon id="piso2" class="cls-17" points="353.85 737.32 453.94 737.32 454.1 759.68 463.68 759.68 464.29 737.32 505.78 737.32 505.8 739 505.8 760.03 515.46 760.03 515.46 739 515.46 737.32 519.5 737.32 519.5 733.18 553.1 733.18 554.11 733.18 554.65 733.18 561.54 733.18 561.54 740.55 561.54 760.03 570.09 760.03 570.09 740.55 570.09 733.18 604.64 733.18 609.84 733.18 609.84 739 609.84 760.03 617.65 760.03 617.65 739 617.65 739 617.65 739 617.65 733.18 623.59 733.18 660.01 733.18 665.21 733.18 665.21 739 665.21 760.03 674.13 760.03 674.13 739 674.13 732.05 682.79 732.05 682.79 761.72 353.85 761.72 353.85 737.32"/><polygon class="cls-4" points="682.79 766.7 682.79 761.72 702.81 761.72 702.81 814.86 677.18 814.86 677.18 766.7 682.79 766.7"/><path class="cls-4" d="M353.85,799.57v15.29H677.18V766.69H353.85v10.84c4.49,2.68,7.34,6.62,7.34,11S358.34,796.89,353.85,799.57Zm250.46-9.87c0-8.05,9.49-14.57,21.21-14.57s21.2,6.52,21.2,14.57-9.49,14.58-21.2,14.58S604.31,797.75,604.31,789.7Z"/><polygon class="cls-4" points="677.18 766.7 677.18 761.98 677.18 766.7 353.85 766.7 353.85 761.72 682.79 761.72 682.79 766.7 677.18 766.7"/><ellipse class="cls-18" cx="625.52" cy="789.7" rx="21.21" ry="14.58"/><path class="cls-18" d="M361.19,788.55c0,4.4-2.85,8.34-7.34,11v-22C358.34,780.21,361.19,784.15,361.19,788.55Z"/><polygon class="cls-19" points="663.66 837.51 630.14 837.51 630.14 815.39 665.43 815.39 665.43 837.51 664.4 837.51 664.8 837.22 663.66 837.51"/><polygon class="cls-19" points="615.26 849.15 615.26 826.45 630.14 815.39 630.14 837.51 615.26 849.15"/><polygon class="cls-19" points="664.4 837.51 647.16 850.03 614.64 850.03 663.66 837.51 664.4 837.51"/><polygon class="cls-19" points="664.8 837.22 664.4 837.51 663.66 837.51 664.8 837.22"/><polygon class="cls-19" points="565.19 837.07 531.67 837.07 531.67 814.95 566.96 814.95 566.96 837.07 565.93 837.07 566.33 836.78 565.19 837.07"/><polygon class="cls-19" points="516.8 848.72 516.8 826.01 531.67 814.95 531.67 837.07 516.8 848.72"/><polygon class="cls-19" points="565.93 837.07 548.69 849.59 516.17 849.59 565.19 837.07 565.93 837.07"/><polygon class="cls-19" points="566.33 836.78 565.93 837.07 565.19 837.07 566.33 836.78"/><polygon class="cls-19" points="442.12 837.07 408.6 837.07 408.6 814.95 443.88 814.95 443.88 837.07 442.86 837.07 443.26 836.78 442.12 837.07"/><polygon class="cls-19" points="393.72 848.72 393.72 826.01 408.6 814.95 408.6 837.07 393.72 848.72"/><polygon class="cls-19" points="442.86 837.07 425.61 849.59 393.1 849.59 442.12 837.07 442.86 837.07"/><polygon class="cls-19" points="443.26 836.78 442.86 837.07 442.12 837.07 443.26 836.78"/><polygon class="cls-16" points="453.87 726.74 453.91 732.05 353.85 732.05 353.85 726.74 453.87 726.74"/><rect class="cls-16" x="353.85" y="209.78" width="165.65"/><polygon class="cls-16" points="463.68 694.75 463.68 700.43 453.82 700.43 453.82 694.75 454.1 694.75 463.68 694.75"/><path class="cls-16" d="M471.18,457.72H481v6.21h-9.86Z"/><rect class="cls-16" x="353.85" y="208.53" width="165.65" height="1.25"/><rect class="cls-16" x="515.46" y="733.18" width="4.04" height="4.14"/><polygon class="cls-16" points="505.72 733.18 505.78 737.32 464.29 737.32 464.4 733.49 505.72 733.18"/><polygon class="cls-16" points="453.91 732.05 453.94 737.32 353.85 737.32 353.85 732.05 453.91 732.05"/><polygon class="cls-16" points="655.18 694.75 655.18 682.33 683.98 682.33 687.87 682.33 680.44 694.75 675.24 694.75 674.13 694.75 665.21 694.75 655.18 694.75"/><rect class="cls-16" x="519.5" y="682.33" width="31.63" height="12.42"/><polygon class="cls-16" points="561.54 694.75 551.13 694.75 551.13 682.33 579.75 682.33 579.75 694.75 568.6 694.75 561.54 694.75"/><polygon class="cls-16" points="463.68 694.75 463.68 694.22 463.68 694.75 454.1 694.75 453.82 694.75 453.82 694.22 453.82 694.75 445.61 694.75 445.61 682.33 481.65 682.33 481.65 694.75 464.4 694.75 463.68 694.75"/><rect class="cls-16" x="481.65" y="682.33" width="37.85" height="12.42"/><rect class="cls-16" x="615.97" y="682.33" width="39.21" height="12.42"/><rect class="cls-16" x="579.75" y="682.33" width="36.22" height="12.42"/><rect class="cls-16" x="561.54" y="700.96" width="7.06" height="19.8"/><rect class="cls-16" x="561.54" y="694.75" width="7.06" height="6.21"/><rect class="cls-16" x="576.4" y="726.74" width="28.24" height="5.32"/><polygon class="cls-16" points="615.97 726.74 615.97 720.76 623.59 720.76 623.59 732.05 604.64 732.05 604.64 726.74 615.97 726.74"/><rect class="cls-16" x="519.5" y="726.74" width="34.61" height="5.32"/><polygon class="cls-16" points="660.01 720.76 665.21 720.76 665.21 714.16 674.13 714.16 674.13 732.05 660.01 732.05 660.01 720.76"/><rect class="cls-16" x="665.21" y="694.75" width="8.92" height="19.41"/><rect class="cls-16" x="623.59" y="720.76" width="36.41" height="11.29"/><rect class="cls-16" x="604.64" y="720.76" width="11.33" height="5.98"/><rect class="cls-16" x="576.4" y="720.76" width="28.24" height="5.98"/><polygon class="cls-16" points="542.41 720.76 554.11 720.76 554.11 726.74 519.5 726.74 519.5 720.59 542.41 720.76"/><rect class="cls-16" x="665.21" y="739" width="8.92" height="21.03"/><rect class="cls-16" x="609.84" y="739" width="7.8" height="21.03"/><polygon class="cls-16" points="576.4 732.05 604.64 732.05 604.64 733.18 570.09 733.18 570.09 740.55 561.54 740.55 561.54 733.18 554.65 733.18 554.11 733.18 576.4 733.18 576.4 732.05"/><polygon class="cls-16" points="623.59 732.05 623.59 733.18 617.65 733.18 617.65 739 609.84 739 609.84 733.18 604.64 733.18 604.64 732.05 623.59 732.05"/><polygon class="cls-16" points="554.11 732.05 554.11 733.18 553.1 733.18 519.5 733.18 519.5 732.05 554.11 732.05"/><rect class="cls-16" x="623.59" y="732.05" width="36.41" height="1.13"/><rect class="cls-16" x="561.54" y="740.55" width="8.55" height="19.48"/><rect class="cls-16" x="505.8" y="739" width="9.66" height="21.03"/><polygon class="cls-16" points="515.46 739 505.8 739 505.78 737.32 515.46 737.32 515.46 739"/><polygon class="cls-16" points="463.68 759.68 454.1 759.68 453.94 737.32 464.29 737.32 463.68 759.68"/><polygon class="cls-16" points="665.21 739 665.21 733.18 660.01 733.18 660.01 732.05 674.13 732.05 674.13 739 665.21 739"/><polygon class="cls-16" points="519.5 726.74 519.5 732.05 453.91 732.05 453.87 726.74 519.5 726.74"/><polygon class="cls-16" points="519.5 726.74 453.87 726.74 453.82 720.1 519.5 720.59 519.5 726.74"/><polygon class="cls-16" points="519.5 732.05 519.5 733.18 515.46 733.18 515.46 737.32 505.78 737.32 505.72 733.18 464.4 733.49 464.29 737.32 453.94 737.32 453.91 732.05 519.5 732.05"/><rect class="cls-16" x="554.11" y="726.74" width="22.29" height="5.32"/><polygon class="cls-16" points="554.11 726.74 554.11 720.76 561.54 720.76 568.6 720.76 576.4 720.76 576.4 726.74 554.11 726.74"/><rect class="cls-16" x="554.11" y="732.05" width="22.29" height="1.13"/><polygon class="cls-16" points="463.68 720.1 453.82 720.1 453.82 701.27 453.82 700.43 463.68 700.43 463.68 720.1"/><path class="cls-16" d="M705.73,166.75l3.94-1.05C708.4,166.07,707.08,166.42,705.73,166.75Z"/><path class="cls-16" d="M617,170.69l59.09.17-28.23-15.1a313.76,313.76,0,0,0,46.3-3.48c8.66-1.26,8.86.57,15.55-4.95V165.7l-3.94,1.05C681.24,172.94,645.2,173.87,617,170.69Z"/><path class="cls-16" d="M616,166.69l-4-.2-23.21-1.3c-23.81-8-22.62-25-22.62-25h0c22.59,9.39,49,15.51,81.65,15.61l28.23,15.1L617,170.69l-1-.11Z"/><path class="cls-16" d="M612,166.49l4,.2v3.89c-1.71-.2-3.4-.42-5.05-.65l3.91-3.28Z"/><path class="cls-16" d="M612,166.49l-22.74-1.15-.47-.15Z"/><path class="cls-16" d="M614.83,166.65l-3.91,3.28A144.58,144.58,0,0,1,591.38,166c-.74-.21-1.45-.43-2.15-.66L612,166.49Z"/><path class="cls-21" d="M356.83.11l-3,1.46V0c.85,0,1.73,0,2.91.07v0c178.17,12.37,148.68,114.59,352.9,147.21.05,0,0,0,0,.07l-85.61-4.28Z"/><path class="cls-22" d="M438,57C415.74,45.61,389.3,38.6,353.85,40.31V1.57l3-1.46L624.06,143.05l-57.89-2.9C513.94,118.45,481.84,79.33,438,57Z"/><path class="cls-22" d="M647.82,155.76l-23.76-12.71,85.61,4.28c-6.69,5.52-6.89,3.69-15.55,4.95A313.76,313.76,0,0,1,647.82,155.76Z"/><path class="cls-22" d="M624.06,143.05l23.76,12.71c-32.7-.1-59.06-6.22-81.65-15.61Z"/><polygon class="cls-16" points="354.41 47.95 357.47 63.17 365.15 49.12 362.68 64.42 375 52.87 367.21 66.88 383.08 58.87 370.67 70.34 388.68 66.57 372.74 74.5 391.29 75.31 373.25 78.98 390.69 84.3 372.15 83.39 386.93 92.74 369.53 87.33 380.34 99.88 365.63 90.45 371.5 105.09 360.8 92.48 361.21 107.91 355.45 93.24 353.85 97.94 353.85 51.6 354.41 47.95"/><path class="cls-16" d="M483.59,148.56a273.48,273.48,0,0,0-28-11.54c16.87,3.69,30.69,7.83,45,15.67.12.06-2-1.46,2.54,1.34l6.94,1.26c.46,0,5.47-2.73,5,.91v5.4l-8.06-.4C501.52,157.87,493.49,153.3,483.59,148.56Z"/><path class="cls-23" d="M483.59,148.56a273.48,273.48,0,0,0-28-11.54c16.87,3.69,30.69,7.83,45,15.67.12.06-2-1.46,2.54,1.34l6.94,1.26c.46,0,5.47-2.73,5,.91v5.4l-8.06-.4C501.52,157.87,493.49,153.3,483.59,148.56Z"/><path class="cls-24" d="M483.59,148.56a273.48,273.48,0,0,0-28-11.54c16.87,3.69,30.69,7.83,45,15.67.12.06-2-1.46,2.54,1.34l6.94,1.26c.46,0,5.47-2.73,5,.91v5.4l-8.06-.4C501.52,157.87,493.49,153.3,483.59,148.56Z"/><path class="cls-16" d="M435.51,144.26c-.05-4.71,6.1-8.79,7.47-9.63a.77.77,0,0,1,.57-.1c4.21.83,8.22,1.65,12.07,2.49a273.48,273.48,0,0,1,28,11.54c9.9,4.74,17.93,9.31,23.48,12.64l8.06.4v1.75h-9.6C486.19,154.32,460.36,148.28,435.51,144.26Z"/><path class="cls-23" d="M435.51,144.26c-.05-4.71,6.1-8.79,7.47-9.63a.77.77,0,0,1,.57-.1c4.21.83,8.22,1.65,12.07,2.49a273.48,273.48,0,0,1,28,11.54c9.9,4.74,17.93,9.31,23.48,12.64l8.06.4v1.75h-9.6C486.19,154.32,460.36,148.28,435.51,144.26Z"/><path class="cls-24" d="M435.51,144.26c-.05-4.71,6.1-8.79,7.47-9.63a.77.77,0,0,1,.57-.1c4.21.83,8.22,1.65,12.07,2.49a273.48,273.48,0,0,1,28,11.54c9.9,4.74,17.93,9.31,23.48,12.64l8.06.4v1.75h-9.6C486.19,154.32,460.36,148.28,435.51,144.26Z"/><path class="cls-16" d="M460,173.86a9.84,9.84,0,0,1-1.22-3.61l6.47,0a12.23,12.23,0,0,1-2.18,3.06c-1.2,1.41-12.79,6.93-12.79,6.93-5.8-2.79-8.74-6.4-10-10.07l17.46.05A13,13,0,0,0,460,173.86Z"/><path class="cls-23" d="M460,173.86a9.84,9.84,0,0,1-1.22-3.61l6.47,0a12.23,12.23,0,0,1-2.18,3.06c-1.2,1.41-12.79,6.93-12.79,6.93-5.8-2.79-8.74-6.4-10-10.07l17.46.05A13,13,0,0,0,460,173.86Z"/><path class="cls-24" d="M460,173.86a9.84,9.84,0,0,1-1.22-3.61l6.47,0a12.23,12.23,0,0,1-2.18,3.06c-1.2,1.41-12.79,6.93-12.79,6.93-5.8-2.79-8.74-6.4-10-10.07l17.46.05A13,13,0,0,0,460,173.86Z"/><path class="cls-16" d="M515.13,206.3a.86.86,0,0,1-.83.9H451.92a.82.82,0,0,1-.55-.22C426,183.81,463,179.15,466.56,174.14a8.64,8.64,0,0,0,1.63-3.87l46.94.14Z"/><path class="cls-23" d="M515.13,206.3a.86.86,0,0,1-.83.9H451.92a.82.82,0,0,1-.55-.22C426,183.81,463,179.15,466.56,174.14a8.64,8.64,0,0,0,1.63-3.87l46.94.14Z"/><path class="cls-24" d="M515.13,206.3a.86.86,0,0,1-.83.9H451.92a.82.82,0,0,1-.55-.22C426,183.81,463,179.15,466.56,174.14a8.64,8.64,0,0,0,1.63-3.87l46.94.14Z"/><path class="cls-16" d="M463.19,167.3a7.13,7.13,0,0,1,2,1.85,1.18,1.18,0,0,1,.07,1.12l-6.47,0C458.51,166.49,463.19,167.3,463.19,167.3Z"/><path class="cls-23" d="M463.19,167.3a7.13,7.13,0,0,1,2,1.85,1.18,1.18,0,0,1,.07,1.12l-6.47,0C458.51,166.49,463.19,167.3,463.19,167.3Z"/><path class="cls-24" d="M463.19,167.3a7.13,7.13,0,0,1,2,1.85,1.18,1.18,0,0,1,.07,1.12l-6.47,0C458.51,166.49,463.19,167.3,463.19,167.3Z"/><path class="cls-16" d="M443.68,153.79a.93.93,0,0,0-.27-1.45c-5.89-2.59-7.87-5.44-7.9-8.08,24.85,4,50.68,10.06,70,19.09h9.6v7.06l-46.94-.14a4.54,4.54,0,0,0,0-1.22,4.81,4.81,0,0,0-1.37-2.75c-2.86-2.64-9.61-2.31-9.53,1.22a8.17,8.17,0,0,0,.52,2.72l-17.46-.05C438,163.2,441.75,156,443.68,153.79Z"/><path class="cls-23" d="M443.68,153.79a.93.93,0,0,0-.27-1.45c-5.89-2.59-7.87-5.44-7.9-8.08,24.85,4,50.68,10.06,70,19.09h9.6v7.06l-46.94-.14a4.54,4.54,0,0,0,0-1.22,4.81,4.81,0,0,0-1.37-2.75c-2.86-2.64-9.61-2.31-9.53,1.22a8.17,8.17,0,0,0,.52,2.72l-17.46-.05C438,163.2,441.75,156,443.68,153.79Z"/><path class="cls-24" d="M443.68,153.79a.93.93,0,0,0-.27-1.45c-5.89-2.59-7.87-5.44-7.9-8.08,24.85,4,50.68,10.06,70,19.09h9.6v7.06l-46.94-.14a4.54,4.54,0,0,0,0-1.22,4.81,4.81,0,0,0-1.37-2.75c-2.86-2.64-9.61-2.31-9.53,1.22a8.17,8.17,0,0,0,.52,2.72l-17.46-.05C438,163.2,441.75,156,443.68,153.79Z"/></g></g></g></g></svg>