<svg xmlns="http://www.w3.org/2000/svg" viewBox="0 0 482.1 407.39"><defs><style>.cls-1{isolation:isolate;}.cls-15,.cls-16,.cls-2{fill:#94d0fe;}.cls-10,.cls-11,.cls-12,.cls-14,.cls-15,.cls-16,.cls-17,.cls-18,.cls-19,.cls-2,.cls-5,.cls-8,.cls-9{stroke:#63c;stroke-miterlimit:10;}.cls-19,.cls-2,.cls-3{mix-blend-mode:darken;}.cls-4,.cls-8{fill:#96abf9;}.cls-5{fill:none;stroke-width:3px;}.cls-14,.cls-6{fill:#fff499;}.cls-14,.cls-15,.cls-7,.cls-8{mix-blend-mode:soft-light;}.cls-9{fill:#fee2ec;}.cls-10{fill:#fdc6da;}.cls-11{fill:#63adfd;}.cls-12{fill:#fcc5db;}.cls-13{fill:#fef593;}.cls-16{stroke-width:0.75px;}.cls-17{fill:#93abf9;}.cls-18,.cls-19{fill:#ad7efe;}</style></defs><title>Recurso 2</title><g class="cls-1"><g id="Capa_2" data-name="Capa 2"><g id="Capa_4" data-name="Capa 4"><path class="cls-2" d="M239.69,9.61l1.85,0c1.52,0,2.11,0,3.66,0s3.29,0,4.91.05h.15C337.65,13.81,354,126.84,481.79,112.88l-26.81,3C335,134.42,348.16,34.07,243.3,30.6h-.15c-1.62,0-3.25-.05-4.91-.05s-2.14,0-3.66,0l-1.85,0c-90.2.07-81.83,101.76-232,96C120,116.81,144.87,13.41,239.69,9.61Z"/><g class="cls-3"><path class="cls-4" d="M188.57,87.6c-12.38,2.52-21.58,4.8-31.21,10.21-.06,0,1.09-.82-1.38.76l-3.8.71c-.25,0-2.73.22-2.73.51V128a.49.49,0,0,0,.46.51H184a.48.48,0,0,0,.31-.13c13.84-13-6.36-15.65-8.31-18.47a4.25,4.25,0,0,1-.87-2.86,2.73,2.73,0,0,1,.75-1.54c1.56-1.49,5.25-1.3,5.21.68a5.84,5.84,0,0,1-1.51,3.57c2.21-4.4-1.73-3.69-1.73-3.69a4,4,0,0,0-1.11,1c-.34.51.27,1.27,1.16,2.35.66.79,7,3.9,7,3.9,9.21-4.57,5.22-13,3.62-14.89a.53.53,0,0,1,.14-.81c9-4.06,1.4-9.22.24-10A.44.44,0,0,0,188.57,87.6Z"/><path class="cls-5" d="M188.57,87.6c-12.38,2.52-21.58,4.8-31.21,10.21-.06,0,1.09-.82-1.38.76l-3.8.71c-.25,0-2.73.22-2.73.51V128a.49.49,0,0,0,.46.51H184a.48.48,0,0,0,.31-.13c13.84-13-6.36-15.65-8.31-18.47a4.25,4.25,0,0,1-.87-2.86,2.73,2.73,0,0,1,.75-1.54c1.56-1.49,5.25-1.3,5.21.68a5.84,5.84,0,0,1-1.51,3.57c2.21-4.4-1.73-3.69-1.73-3.69a4,4,0,0,0-1.11,1c-.34.51.27,1.27,1.16,2.35.66.79,7,3.9,7,3.9,9.21-4.57,5.22-13,3.62-14.89a.53.53,0,0,1,.14-.81c9-4.06,1.4-9.22.24-10A.44.44,0,0,0,188.57,87.6Z"/><path class="cls-4" d="M188.57,87.6c-12.38,2.52-21.58,4.8-31.21,10.21-.06,0,1.09-.82-1.38.76l-3.8.71c-.25,0-2.73.22-2.73.51V128a.49.49,0,0,0,.46.51H184a.48.48,0,0,0,.31-.13c13.84-13-6.36-15.65-8.31-18.47a4.25,4.25,0,0,1-.87-2.86,2.73,2.73,0,0,1,.75-1.54c1.56-1.49,5.25-1.3,5.21.68a5.84,5.84,0,0,1-1.51,3.57c2.21-4.4-1.73-3.69-1.73-3.69a4,4,0,0,0-1.11,1c-.34.51.27,1.27,1.16,2.35.66.79,7,3.9,7,3.9,9.21-4.57,5.22-13,3.62-14.89a.53.53,0,0,1,.14-.81c9-4.06,1.4-9.22.24-10A.44.44,0,0,0,188.57,87.6Z"/><path class="cls-6" d="M188.57,87.6c-12.38,2.52-21.58,4.8-31.21,10.21-.06,0,1.09-.82-1.38.76l-3.8.71c-.25,0-2.73.22-2.73.51V128a.49.49,0,0,0,.46.51H184a.48.48,0,0,0,.31-.13c13.84-13-6.36-15.65-8.31-18.47a4.25,4.25,0,0,1-.87-2.86,2.73,2.73,0,0,1,.75-1.54c1.56-1.49,5.25-1.3,5.21.68a5.84,5.84,0,0,1-1.51,3.57c2.21-4.4-1.73-3.69-1.73-3.69a4,4,0,0,0-1.11,1c-.34.51.27,1.27,1.16,2.35.66.79,7,3.9,7,3.9,9.21-4.57,5.22-13,3.62-14.89a.53.53,0,0,1,.14-.81c9-4.06,1.4-9.22.24-10A.44.44,0,0,0,188.57,87.6Z"/></g><g class="cls-3"><path class="cls-4" d="M292.37,89.2c12,2.29,21.37,7.15,30.73,12.07.06,0,.23.26.3.26l6.28.94a.45.45,0,0,1,.44.46v25.65a.45.45,0,0,1-.44.46H296.52a.44.44,0,0,1-.29-.11c-13.47-11.87,6.17-14.25,8.07-16.82a3.64,3.64,0,0,0,.85-2.6,2.41,2.41,0,0,0-.73-1.41c-1.52-1.35-5.11-1.18-5.06.63a5.11,5.11,0,0,0,1.46,3.24c-2.15-4,1.69-3.36,1.69-3.36a3.85,3.85,0,0,1,1.07,1c.34.47-.26,1.16-1.12,2.14-.64.72-6.8,3.55-6.8,3.55-9-4.16-5.09-11.83-3.52-13.55A.48.48,0,0,0,292,101c-8.7-3.69-1.36-8.39-.22-9.06C291.86,91.83,292.27,89.18,292.37,89.2Z"/><path class="cls-5" d="M292.37,89.2c12,2.29,21.37,7.15,30.73,12.07.06,0,.23.26.3.26l6.28.94a.45.45,0,0,1,.44.46v25.65a.45.45,0,0,1-.44.46H296.52a.44.44,0,0,1-.29-.11c-13.47-11.87,6.17-14.25,8.07-16.82a3.64,3.64,0,0,0,.85-2.6,2.41,2.41,0,0,0-.73-1.41c-1.52-1.35-5.11-1.18-5.06.63a5.11,5.11,0,0,0,1.46,3.24c-2.15-4,1.69-3.36,1.69-3.36a3.85,3.85,0,0,1,1.07,1c.34.47-.26,1.16-1.12,2.14-.64.72-6.8,3.55-6.8,3.55-9-4.16-5.09-11.83-3.52-13.55A.48.48,0,0,0,292,101c-8.7-3.69-1.36-8.39-.22-9.06C291.86,91.83,292.27,89.18,292.37,89.2Z"/><path class="cls-4" d="M292.37,89.2c12,2.29,21.37,7.15,30.73,12.07.06,0,.23.26.3.26l6.28.94a.45.45,0,0,1,.44.46v25.65a.45.45,0,0,1-.44.46H296.52a.44.44,0,0,1-.29-.11c-13.47-11.87,6.17-14.25,8.07-16.82a3.64,3.64,0,0,0,.85-2.6,2.41,2.41,0,0,0-.73-1.41c-1.52-1.35-5.11-1.18-5.06.63a5.11,5.11,0,0,0,1.46,3.24c-2.15-4,1.69-3.36,1.69-3.36a3.85,3.85,0,0,1,1.07,1c.34.47-.26,1.16-1.12,2.14-.64.72-6.8,3.55-6.8,3.55-9-4.16-5.09-11.83-3.52-13.55A.48.48,0,0,0,292,101c-8.7-3.69-1.36-8.39-.22-9.06C291.86,91.83,292.27,89.18,292.37,89.2Z"/><path class="cls-6" d="M292.37,89.2c12,2.29,21.37,7.15,30.73,12.07.06,0,.23.26.3.26l6.28.94a.45.45,0,0,1,.44.46v25.65a.45.45,0,0,1-.44.46H296.52a.44.44,0,0,1-.29-.11c-13.47-11.87,6.17-14.25,8.07-16.82a3.64,3.64,0,0,0,.85-2.6,2.41,2.41,0,0,0-.73-1.41c-1.52-1.35-5.11-1.18-5.06.63a5.11,5.11,0,0,0,1.46,3.24c-2.15-4,1.69-3.36,1.69-3.36a3.85,3.85,0,0,1,1.07,1c.34.47-.26,1.16-1.12,2.14-.64.72-6.8,3.55-6.8,3.55-9-4.16-5.09-11.83-3.52-13.55A.48.48,0,0,0,292,101c-8.7-3.69-1.36-8.39-.22-9.06C291.86,91.83,292.27,89.18,292.37,89.2Z"/></g></g><g id="Capa_1-2" data-name="Capa 1"><g id="Ventana" class="cls-3"><g id="puerta" class="cls-7"><path class="cls-8" d="M330.37,130.59H149.63V103h8.14c28.5-14.47,82.78-16,82.78-16,38,.85,78,15.32,81.42,18.55l8.4.34Z"/><path class="cls-9" d="M383.89,346.59H97.42V98.24l59.51-2.44s35-18.71,80.73-17.5C300.38,80,327.21,99,327.21,99l56.68-.77Z"/><line class="cls-9" x1="358.99" y1="130.59" x2="126.13" y2="130.59"/><path class="cls-9" d="M149.2,130.35h0"/><line class="cls-9" x1="126.13" y1="130.59" x2="126.13" y2="347.82"/><line class="cls-9" x1="358.99" y1="130.59" x2="358.99" y2="348.89"/><polygon class="cls-10" points="149.4 130.1 126.34 130.35 96.77 100.63 120.75 99.57 149.4 130.1"/><polygon class="cls-10" points="331.38 130.59 358.37 130.49 383.24 100.56 362.33 99.64 331.38 130.59"/></g><rect class="cls-11" x="72.94" y="384.02" width="333.75" height="22.79"/><g id="base"><rect class="cls-12" x="52.51" y="348.72" width="400.34" height="34.95"/><ellipse class="cls-13" cx="94.74" cy="367.13" rx="11.59" ry="9.59"/><ellipse class="cls-13" cx="250.77" cy="366.37" rx="11.59" ry="9.59"/><ellipse class="cls-13" cx="387.04" cy="367.13" rx="11.59" ry="9.59"/><line class="cls-12" x1="66.51" y1="348.89" x2="66.51" y2="383.84"/><line class="cls-12" x1="416.32" y1="348.89" x2="416.32" y2="383.84"/><rect class="cls-12" x="72.94" y="384.02" width="19.28" height="14.55"/><polyline class="cls-12" points="92.22 398.57 100.35 406.23 100.35 391.3 92.22 384.02"/><polyline class="cls-12" points="73.28 398.38 82.92 406.81 100.69 406.81"/><rect class="cls-12" x="126.74" y="383.73" width="19.28" height="14.55"/><polyline class="cls-12" points="146.02 398.29 154.15 405.95 154.15 391.01 146.02 383.73"/><polyline class="cls-12" points="127.08 398.1 136.72 406.52 154.5 406.52"/><rect class="cls-12" x="193.99" y="383.73" width="19.28" height="14.55"/><polyline class="cls-12" points="213.28 398.29 221.41 405.95 221.41 391.01 213.28 383.73"/><polyline class="cls-12" points="194.34 398.1 203.98 406.52 221.75 406.52"/><rect class="cls-12" x="325.16" y="383.73" width="19.28" height="14.55" transform="translate(669.59 782.02) rotate(-180)"/><polyline class="cls-12" points="325.15 398.29 317.03 405.95 317.03 391.01 325.15 383.73"/><polyline class="cls-12" points="344.09 398.1 334.45 406.52 316.68 406.52"/><rect class="cls-12" x="387.75" y="383.84" width="19.28" height="14.55" transform="translate(794.78 782.24) rotate(-180)"/><polyline class="cls-12" points="387.75 398.4 379.62 406.06 379.62 391.12 387.75 383.85"/><polyline class="cls-12" points="406.69 398.21 397.05 406.63 379.28 406.63"/><rect class="cls-12" x="257.49" y="384.02" width="24.77" height="14.55"/><polygon class="cls-12" points="280.98 406.52 260.3 406.81 257.49 398.57 282.25 398.57 280.98 406.52"/></g><g id="techo"><path class="cls-14" d="M295.3,42.5c-15.94,16.25-40.52-3.52-41.49-3.15,0,0,20.34,6.63,14.53,23.2C249.31,64.9,250,46.26,250,46.26s4.51,22.1-8,26.27c-22.88-8.5-5.11-27.53-6.23-27,0,0-6.25,19.57-23.31,17.27C202.42,49.28,225.68,40,225.68,40s-30.24,21-41.79,1.76c0,0,37.73-15.52,57.52-12.63C265,28.05,295.3,42.5,295.3,42.5Z"/><path class="cls-15" d="M181.7,43.93c15.22-8.85,33.37-14.25,58-12.56h2.48c110.23,5.19,93.31,106.17,221,84.95,5.81-1,17.5-1.6,18.27-3.47,2.22,0-15.83-4-23.64-5.27-39.89-6.58-82.86-41.86-82.86-41.86C339.73,37.07,317.48,6.35,246.09.7l0,0c-1.94-.06-3.89-.1-5.87-.1s-2.64,0-4.41.07h0C117.05,10.08,136.71,87.76.52,112.56c0,0,0,0,0,0,4.45,4.2,4.59,2.8,10.36,3.76,96.65,16.07,123.43-44.9,170.82-72.44"/><line class="cls-16" x1="249.38" y1="0.75" x2="249.51" y2="0.82"/><path class="cls-16" d="M.52,112.61v14c21.61,7.18,59.69,6.47,78.88.23C97.09,121.05,96.77,110,96.77,110"/><line class="cls-16" x1="96.77" y1="156.09" x2="0.52" y2="126.57"/><path class="cls-16" d="M481.54,112.88v14c-28.54,9.29-60.35,4.54-80.78-2.51-9.63-3.33-16.87-13.61-16.87-13.61"/><line class="cls-16" x1="383.24" y1="156.36" x2="481.54" y2="126.84"/></g><rect class="cls-17" x="150.14" y="130.35" width="179.72" height="217.99"/><polyline class="cls-18" points="176.39 305.12 181.03 305.12 181.03 296.95 48.65 296.95 52.71 305.12 55.55 305.12 170.76 305.12"/><path class="cls-18" d="M176.39,305.12h0Z"/><line class="cls-18" x1="123.36" y1="305.12" x2="123.36" y2="296.95"/><line class="cls-18" x1="113.82" y1="309.2" x2="117.68" y2="309.2"/><polyline class="cls-18" points="66.51 305.12 107.73 305.12 107.73 296.95 50.77 296.95 66.51 296.95 66.51 305.12"/><line class="cls-18" x1="61.03" y1="317.88" x2="56.16" y2="317.88"/><line class="cls-18" x1="63.87" y1="330.39" x2="63.87" y2="322.22"/><line class="cls-18" x1="56.16" y1="334.22" x2="61.03" y2="334.22"/><line class="cls-18" x1="83.77" y1="330.39" x2="83.77" y2="322.22"/><line class="cls-18" x1="91.28" y1="334.22" x2="87.02" y2="334.22"/><line class="cls-18" x1="94.13" y1="322.22" x2="94.13" y2="330.39"/><line class="cls-18" x1="113.01" y1="335.24" x2="117.68" y2="335.24"/><polyline class="cls-18" points="121.74 330.39 121.74 322.22 117.68 322.22 117.68 305.12 113.82 305.12 113.82 322.22 109.56 322.22 109.56 330.39"/><line class="cls-18" x1="148.14" y1="334.22" x2="142.86" y2="334.22"/><line class="cls-18" x1="161.33" y1="296.95" x2="161.33" y2="305.12"/><polyline class="cls-18" points="176.54 309.4 176.54 321.79 128.13 322.22 61.03 322.22 61.03 305.12 56.16 305.12 56.16 348.06 61.03 348.06 61.03 330.39 87.02 330.39 87.02 348.06 91.28 348.06 91.28 330.39 113.01 330.39 113.01 348.06 117.68 348.06 117.68 330.39 121.44 330.39 122.29 330.39 142.86 330.39 142.86 348.06 148.14 348.06 148.14 334.22 148.18 330.39 170.76 330.6 171.15 347.82 176.39 347.82 176.54 321.79"/><polyline class="cls-18" points="176.54 304.76 176.54 308.85 171.15 308.85 171.15 304.76 171.15 321.79 176.54 321.79 176.54 309.4"/></g><path class="cls-19" d="M171.15,305.32h5.39v4.08h-5.39Z"/><g class="cls-3"><polyline class="cls-18" points="289.52 304.3 284.88 304.3 284.88 296.13 417.26 296.13 413.2 304.3 410.36 304.3 295.15 304.3"/><path class="cls-18" d="M289.52,304.3h0Z"/><line class="cls-18" x1="342.55" y1="304.3" x2="342.55" y2="296.13"/><line class="cls-18" x1="352.09" y1="308.39" x2="348.23" y2="308.39"/><polyline class="cls-18" points="399.4 304.3 358.18 304.3 358.18 296.13 415.14 296.13 399.4 296.13 399.4 304.3"/><line class="cls-18" x1="404.88" y1="317.07" x2="409.75" y2="317.07"/><line class="cls-18" x1="402.04" y1="329.58" x2="402.04" y2="321.41"/><line class="cls-18" x1="409.75" y1="333.41" x2="404.88" y2="333.41"/><line class="cls-18" x1="382.14" y1="329.58" x2="382.14" y2="321.41"/><line class="cls-18" x1="374.63" y1="333.41" x2="378.89" y2="333.41"/><line class="cls-18" x1="371.78" y1="321.41" x2="371.78" y2="329.58"/><line class="cls-18" x1="352.9" y1="334.43" x2="348.23" y2="334.43"/><polyline class="cls-18" points="344.17 329.58 344.17 321.41 348.23 321.41 348.23 304.3 352.09 304.3 352.09 321.41 356.35 321.41 356.35 329.58"/><line class="cls-18" x1="317.78" y1="333.41" x2="323.05" y2="333.41"/><line class="cls-18" x1="304.58" y1="296.13" x2="304.58" y2="304.3"/><polyline class="cls-18" points="289.37 308.59 289.37 320.97 337.78 321.41 404.88 321.41 404.88 304.3 409.75 304.3 409.75 347.24 404.88 347.24 404.88 329.58 378.89 329.58 378.89 347.24 374.63 347.24 374.63 329.58 352.9 329.58 352.9 347.24 348.23 347.24 348.23 329.58 344.47 329.58 343.62 329.58 323.05 329.58 323.05 347.24 317.77 347.24 317.77 333.41 317.73 329.58 295.15 329.78 294.76 347.01 289.52 347.01 289.37 320.97"/><polyline class="cls-18" points="289.37 303.95 289.37 308.03 294.76 308.03 294.76 303.95 294.76 320.97 289.37 320.97 289.37 308.59"/></g></g></g></g></svg>