<svg xmlns="http://www.w3.org/2000/svg" xmlns:xlink="http://www.w3.org/1999/xlink" viewBox="0 0 712.26 851.04"><defs><style>.cls-1{isolation:isolate;}.cls-13,.cls-2{fill:none;}.cls-3{fill:#e5cdb1;}.cls-10,.cls-11,.cls-13,.cls-16,.cls-3,.cls-4,.cls-6,.cls-8,.cls-9{stroke:#7a1715;stroke-miterlimit:10;}.cls-4,.cls-5{fill:url(#Degradado_sin_nombre_16);}.cls-12,.cls-6,.cls-7,.cls-8{fill:#d97671;}.cls-6,.cls-7{mix-blend-mode:soft-light;}.cls-9{fill:#a52020;}.cls-10{fill:#fef593;}.cls-11{fill:#5e5c5d;}.cls-14{fill:#96abf9;}.cls-15{fill:#fff499;}.cls-16,.cls-17{fill:url(#Degradado_sin_nombre_16-14);}</style><radialGradient id="Degradado_sin_nombre_16" cx="194.58" cy="210.01" r="139.39" gradientTransform="translate(1.04 -44.33) scale(1.83 2.23)" gradientUnits="userSpaceOnUse"><stop offset="0" stop-color="#8e322f"/><stop offset="1"/></radialGradient><radialGradient id="Degradado_sin_nombre_16-14" cx="422.32" cy="210.01" r="139.39" gradientTransform="matrix(-1.83, 0, 0, 2.23, 1127.99, -44.33)" xlink:href="#Degradado_sin_nombre_16"/></defs><title>Recurso 9</title><g class="cls-1"><g id="Capa_2" data-name="Capa 2"><g id="Capa_1-2" data-name="Capa 1"><g id="Capa_4" data-name="Capa 4"><path class="cls-2" d="M94,171.2c-28.24,3.18-64.28,2.24-88.78-3.94L95,191.42V171.2Z"/><polygon class="cls-2" points="95.01 721.27 95.01 695.26 55.8 695.26 45.77 695.26 45.77 714.67 45.77 721.27 50.97 721.27 87.39 721.27 95.01 721.27"/><path class="cls-3" d="M195.84,156.7c-.46-3.63,4.54-.9,5-.9l6.94-1.26c4.53-2.8,2.42-1.28,2.53-1.35,14.34-7.83,28.17-12,45-15.66,42.82-15,78.31-15.31,96.29-15.29,1.84,0,3.67,0,5.49.07V98.45l-1.61-4.7-5.75,14.67L350.18,93,339.47,105.6,345.35,91l-14.71,9.43,10.81-12.55-17.4,5.4,14.78-9.34-18.54.9,17.44-5.31-18.05-3.67L338.23,75,322.3,67.08l18,3.77L327.89,59.38l15.88,8-7.79-14L348.3,64.93l-2.47-15.3,7.68,14,3.06-15.22.56,3.64V40.82c-35.46-1.71-61.89,5.3-84.13,16.65C229.13,79.84,197,119,144.81,140.66h0s1.19,17.05-22.62,25l16.67-.94.24.21,56.71-2.86Z"/><path class="cls-3" d="M94,171.2h1v-.12Z"/><path class="cls-4" d="M100.94,171.18l-5.93,0v20.22l44.24,11.9Z"/><polygon class="cls-4" points="159.84 682.84 191.48 682.84 191.48 210.29 190.54 210.29 147.55 210.29 147.55 576.08 147.55 210.29 139.25 203.32 95.01 191.42 95.01 682.84 131.23 682.84 159.84 682.84"/><path class="cls-4" d="M190.54,210.29V170.93l-44.51.12,41,36.11-.57-.55-.34-.34-.41-.4-1-1-.84-.81-.78-.78-2.92-2.87L178,198.35c-.3-.29-.58-.58-.87-.85l-4.71-4.64-.18-.18L170,190.44l-.27-.26h0l.27.26,2.28,2.24.18.18,4.71,4.64.87.85,2.09,2.05,2.92,2.87.78.78.84.81c.33.34.66.66,1,1l.41.4.34.34.57.55,3.54,3.13h0Z"/><polygon class="cls-4" points="106.34 721.27 134.58 721.27 142.38 721.27 142.38 701.47 142.38 695.26 131.23 695.26 95.01 695.26 95.01 721.27 106.34 721.27"/><polygon class="cls-4" points="149.44 721.27 156.87 721.27 168.56 721.27 191.48 721.1 191.48 695.26 159.84 695.26 149.44 695.26 149.44 701.47 149.44 721.27"/><path class="cls-3" d="M95,171.08v.12l5.93,0-.88-.74C98.41,170.67,96.72,170.88,95,171.08Z"/><path class="cls-5" d="M95,171.08v.12l5.93,0-.88-.74C98.41,170.67,96.72,170.88,95,171.08Z"/><path class="cls-3" d="M195.84,163.86v-1.75L139.13,165l6.9,6.08,44.51-.12v-7.07Z"/><path class="cls-5" d="M195.84,163.86v-1.75L139.13,165l6.9,6.08,44.51-.12v-7.07Z"/><path class="cls-3" d="M268,135.14c1.36.84,7.51,4.91,7.46,9.63a687.43,687.43,0,0,1,81.47-7.85h.2V122.31c-1.82,0-3.65-.07-5.49-.07-18,0-53.47.33-96.29,15.29,3.86-.84,7.87-1.66,12.08-2.49A.77.77,0,0,1,268,135.14Z"/><path class="cls-5" d="M268,135.14c1.36.84,7.51,4.91,7.46,9.63a687.43,687.43,0,0,1,81.47-7.85h.2V122.31c-1.82,0-3.65-.07-5.49-.07-18,0-53.47.33-96.29,15.29,3.86-.84,7.87-1.66,12.08-2.49A.77.77,0,0,1,268,135.14Z"/><path class="cls-6" d="M251,174.37a13.22,13.22,0,0,0,2.24-3.62h-1A9.84,9.84,0,0,1,251,174.37Z"/><path class="cls-5" d="M251,174.37a13.22,13.22,0,0,0,2.24-3.62h-1A9.84,9.84,0,0,1,251,174.37Z"/><path class="cls-6" d="M357.13,209V170.46l-86.47.24c-1.24,3.67-4.18,7.28-10,10.07,0,0-11.59-5.52-12.79-6.93a12.06,12.06,0,0,1-2.18-3.07h-2.92a8.64,8.64,0,0,0,1.63,3.87c3.57,5,40.52,9.66,15.19,32.84a.82.82,0,0,1-.56.22H196.68a.87.87,0,0,1-.84-.9v-35.9l-5.3,0v39.36h.94V209Z"/><path class="cls-5" d="M357.13,209V170.46l-86.47.24c-1.24,3.67-4.18,7.28-10,10.07,0,0-11.59-5.52-12.79-6.93a12.06,12.06,0,0,1-2.18-3.07h-2.92a8.64,8.64,0,0,0,1.63,3.87c3.57,5,40.52,9.66,15.19,32.84a.82.82,0,0,1-.56.22H196.68a.87.87,0,0,1-.84-.9v-35.9l-5.3,0v39.36h.94V209Z"/><path class="cls-3" d="M195.84,163.86h-5.3v7.07l5.3,0Z"/><path class="cls-7" d="M195.84,163.86h-5.3v7.07l5.3,0Z"/><path class="cls-5" d="M195.84,163.86h-5.3v7.07l5.3,0Z"/><path class="cls-3" d="M356.93,136.92a687.43,687.43,0,0,0-81.47,7.85c0,2.64-2,5.49-7.89,8.08a.93.93,0,0,0-.27,1.45c1.93,2.21,5.73,9.41,3.36,16.4l86.47-.24V136.92Z"/><path class="cls-7" d="M356.93,136.92a687.43,687.43,0,0,0-81.47,7.85c0,2.64-2,5.49-7.89,8.08a.93.93,0,0,0-.27,1.45c1.93,2.21,5.73,9.41,3.36,16.4l86.47-.24V136.92Z"/><path class="cls-5" d="M356.93,136.92a687.43,687.43,0,0,0-81.47,7.85c0,2.64-2,5.49-7.89,8.08a.93.93,0,0,0-.27,1.45c1.93,2.21,5.73,9.41,3.36,16.4l86.47-.24V136.92Z"/><path class="cls-3" d="M245.77,169.66a7.1,7.1,0,0,1,2-1.85s4.67-.81,4.39,2.95h1a8.17,8.17,0,0,0,.52-2.72c.08-3.54-6.67-3.86-9.53-1.22a4.81,4.81,0,0,0-1.37,2.75,4.17,4.17,0,0,0,0,1.22h2.92A1.17,1.17,0,0,1,245.77,169.66Z"/><path class="cls-7" d="M245.77,169.66a7.1,7.1,0,0,1,2-1.85s4.67-.81,4.39,2.95h1a8.17,8.17,0,0,0,.52-2.72c.08-3.54-6.67-3.86-9.53-1.22a4.81,4.81,0,0,0-1.37,2.75,4.17,4.17,0,0,0,0,1.22h2.92A1.17,1.17,0,0,1,245.77,169.66Z"/><path class="cls-5" d="M245.77,169.66a7.1,7.1,0,0,1,2-1.85s4.67-.81,4.39,2.95h1a8.17,8.17,0,0,0,.52-2.72c.08-3.54-6.67-3.86-9.53-1.22a4.81,4.81,0,0,0-1.37,2.75,4.17,4.17,0,0,0,0,1.22h2.92A1.17,1.17,0,0,1,245.77,169.66Z"/><path class="cls-8" d="M186.43,206.61l.57.55h0Z"/><path class="cls-8" d="M185.68,205.87c-.36-.35-.69-.67-1-1Z"/><path class="cls-8" d="M169.72,190.18Z"/><path class="cls-8" d="M180.12,200.4,178,198.35Z"/><path class="cls-8" d="M183,203.27l-2.92-2.87Z"/><path class="cls-8" d="M186.09,206.27l-.41-.4Z"/><path class="cls-8" d="M186.43,206.61l-.34-.34Z"/><path class="cls-8" d="M184.66,204.86l-.84-.81Z"/><path class="cls-8" d="M178,198.35l-.87-.85C177.45,197.77,177.73,198.06,178,198.35Z"/><path class="cls-8" d="M172.27,192.68,170,190.44Z"/><path class="cls-8" d="M170,190.44l-.27-.26Z"/><path class="cls-8" d="M172.45,192.86l-.18-.18Z"/><path class="cls-8" d="M177.16,197.5l-4.71-4.64Z"/><path class="cls-8" d="M183.82,204.05l-.78-.78Z"/><path class="cls-8" d="M122.22,165.7l-.47.15,17.38-.88-.24-.21Z"/><path class="cls-8" d="M187.5,207.66l.66.65.22.22,1,1,.17.17.14.13.06.07-.06-.07-.14-.13-.17-.17-1-1-.22-.22-.66-.65-.5-.5-41-36.11-45.09.13,38.31,32.14,6.4,1.73-6.4-1.73,8.3,7h43L187,207.16C187.17,207.34,187.34,207.5,187.5,207.66Z"/><path class="cls-8" d="M139.13,165l-17.38.88c-.7.23-1.41.45-2.15.66a146.46,146.46,0,0,1-19.54,3.93l.88.74,45.09-.13Z"/><path class="cls-8" d="M189.38,209.51l.17.17Z"/><path class="cls-8" d="M189.55,209.68l.14.13Z"/><path class="cls-8" d="M187.5,207.66l.66.65Z"/><path class="cls-8" d="M187,207.16h0l.5.5C187.34,207.5,187.17,207.34,187,207.16Z"/><path class="cls-8" d="M188.38,208.53l1,1Z"/><path class="cls-8" d="M188.16,208.31l.22.22Z"/><path class="cls-8" d="M189.69,209.81l.06.07Z"/><polygon class="cls-9" points="357.13 737.82 257.03 737.82 256.88 760.19 247.3 760.19 246.69 737.82 205.2 737.82 205.18 739.51 205.18 760.54 195.51 760.54 195.51 739.51 195.51 737.82 191.48 737.82 191.48 733.69 157.88 733.69 156.87 733.69 156.32 733.69 149.44 733.69 149.44 741.06 149.44 760.54 140.89 760.54 140.89 741.06 140.89 733.69 106.34 733.69 101.13 733.69 101.13 739.51 101.13 760.54 93.33 760.54 93.33 739.51 93.33 739.51 93.33 739.51 93.33 733.69 87.39 733.69 50.97 733.69 45.77 733.69 45.77 739.51 45.77 760.54 36.85 760.54 36.85 739.51 36.85 732.56 28.19 732.56 28.19 762.23 357.13 762.23 357.13 737.82"/><polygon class="cls-3" points="28.19 767.2 28.19 762.23 8.17 762.23 8.17 815.37 33.8 815.37 33.8 767.2 28.19 767.2"/><path class="cls-3" d="M349.78,789.06c0-4.41,2.86-8.34,7.35-11V767.2H33.8v48.17H357.13v-15.3C352.64,797.4,349.78,793.46,349.78,789.06ZM85.46,804.79c-11.71,0-21.21-6.53-21.21-14.58s9.5-14.58,21.21-14.58,21.21,6.53,21.21,14.58S97.17,804.79,85.46,804.79Z"/><polygon class="cls-3" points="33.8 767.2 33.8 762.49 33.8 767.2 357.13 767.2 357.13 762.23 28.19 762.23 28.19 767.2 33.8 767.2"/><ellipse class="cls-10" cx="85.46" cy="790.21" rx="21.21" ry="14.58"/><path class="cls-10" d="M349.78,789.06c0,4.4,2.86,8.34,7.35,11V778C352.64,780.72,349.78,784.65,349.78,789.06Z"/><polygon class="cls-11" points="47.32 838.02 80.84 838.02 80.84 815.89 45.55 815.89 45.55 838.02 46.58 838.02 46.18 837.73 47.32 838.02"/><polygon class="cls-11" points="95.71 849.66 95.71 826.96 80.84 815.89 80.84 838.02 95.71 849.66"/><polygon class="cls-11" points="46.58 838.02 63.82 850.54 96.34 850.54 47.32 838.02 46.58 838.02"/><polygon class="cls-11" points="46.18 837.73 46.58 838.02 47.32 838.02 46.18 837.73"/><polygon class="cls-11" points="145.78 837.58 179.3 837.58 179.3 815.46 144.02 815.46 144.02 837.58 145.05 837.58 144.65 837.29 145.78 837.58"/><polygon class="cls-11" points="194.18 849.23 194.18 826.52 179.3 815.46 179.3 837.58 194.18 849.23"/><polygon class="cls-11" points="145.05 837.58 162.29 850.1 194.81 850.1 145.78 837.58 145.05 837.58"/><polygon class="cls-11" points="144.65 837.29 145.05 837.58 145.78 837.58 144.65 837.29"/><polygon class="cls-11" points="268.86 837.58 302.38 837.58 302.38 815.46 267.09 815.46 267.09 837.58 268.12 837.58 267.72 837.29 268.86 837.58"/><polygon class="cls-11" points="317.25 849.23 317.25 826.52 302.38 815.46 302.38 837.58 317.25 849.23"/><polygon class="cls-11" points="268.12 837.58 285.36 850.1 317.88 850.1 268.86 837.58 268.12 837.58"/><polygon class="cls-11" points="267.72 837.29 268.12 837.58 268.86 837.58 267.72 837.29"/><polygon class="cls-8" points="257.11 727.25 257.07 732.56 357.13 732.56 357.13 727.25 257.11 727.25"/><rect class="cls-8" x="191.48" y="210.29" width="165.65"/><polygon class="cls-8" points="247.3 695.26 247.3 700.94 257.15 700.94 257.15 695.26 256.88 695.26 247.3 695.26"/><polygon class="cls-8" points="257.15 720.6 247.3 720.6 247.3 700.94 247.3 695.26 246.58 695.26 229.33 695.26 191.48 695.26 191.48 721.1 257.15 720.6"/><path class="cls-8" d="M265.37,682.84v12.42h-8.21V720.6l0,6.65h100v-517H191.48V682.84h73.89ZM229.94,458.23h9.86v6.21h-9.86Z"/><path class="cls-8" d="M239.8,458.23h-9.86v6.21h9.86Z"/><rect class="cls-8" x="191.48" y="209.04" width="165.65" height="1.25"/><rect class="cls-8" x="191.48" y="733.69" width="4.04" height="4.14"/><polygon class="cls-8" points="205.26 733.69 205.2 737.82 246.69 737.82 246.58 734 205.26 733.69"/><polygon class="cls-8" points="257.07 732.56 257.03 737.82 357.13 737.82 357.13 732.56 257.07 732.56"/><polygon class="cls-8" points="55.8 695.26 55.8 682.84 27 682.84 23.1 682.84 30.54 695.26 35.74 695.26 36.85 695.26 45.77 695.26 55.8 695.26"/><rect class="cls-8" x="159.84" y="682.84" width="31.63" height="12.42"/><polygon class="cls-8" points="149.44 695.26 159.84 695.26 159.84 682.84 131.23 682.84 131.23 695.26 142.38 695.26 149.44 695.26"/><polygon class="cls-8" points="247.3 695.26 247.3 694.73 247.3 695.26 256.88 695.26 257.15 695.26 257.15 694.73 257.15 695.26 265.37 695.26 265.37 682.84 229.33 682.84 229.33 695.26 246.58 695.26 247.3 695.26"/><rect class="cls-8" x="191.48" y="682.84" width="37.85" height="12.42"/><rect class="cls-8" x="55.8" y="682.84" width="39.21" height="12.42"/><rect class="cls-8" x="95.01" y="682.84" width="36.22" height="12.42"/><rect class="cls-8" x="142.38" y="701.47" width="7.06" height="19.8"/><rect class="cls-8" x="142.38" y="695.26" width="7.06" height="6.21"/><rect class="cls-8" x="106.34" y="727.25" width="28.24" height="5.32"/><polygon class="cls-8" points="95.01 727.25 95.01 721.27 87.39 721.27 87.39 732.56 106.34 732.56 106.34 727.25 95.01 727.25"/><rect class="cls-8" x="156.87" y="727.25" width="34.61" height="5.32"/><polygon class="cls-8" points="50.97 721.27 45.77 721.27 45.77 714.67 36.85 714.67 36.85 732.56 50.97 732.56 50.97 721.27"/><rect class="cls-8" x="36.85" y="695.26" width="8.92" height="19.41"/><rect class="cls-8" x="50.97" y="721.27" width="36.41" height="11.29"/><rect class="cls-8" x="95.01" y="721.27" width="11.33" height="5.98"/><rect class="cls-8" x="106.34" y="721.27" width="28.24" height="5.98"/><polygon class="cls-8" points="168.56 721.27 156.87 721.27 156.87 727.25 191.48 727.25 191.48 721.1 168.56 721.27"/><rect class="cls-8" x="36.85" y="739.51" width="8.92" height="21.03"/><rect class="cls-8" x="93.33" y="739.51" width="7.8" height="21.03"/><polygon class="cls-8" points="134.58 732.56 106.34 732.56 106.34 733.69 140.89 733.69 140.89 741.06 149.44 741.06 149.44 733.69 156.32 733.69 156.87 733.69 134.58 733.69 134.58 732.56"/><polygon class="cls-8" points="87.39 732.56 87.39 733.69 93.33 733.69 93.33 739.51 101.13 739.51 101.13 733.69 106.34 733.69 106.34 732.56 87.39 732.56"/><polygon class="cls-8" points="156.87 732.56 156.87 733.69 157.88 733.69 191.48 733.69 191.48 732.56 156.87 732.56"/><rect class="cls-8" x="50.97" y="732.56" width="36.41" height="1.13"/><rect class="cls-8" x="140.89" y="741.06" width="8.55" height="19.48"/><rect class="cls-8" x="195.51" y="739.51" width="9.66" height="21.03"/><polygon class="cls-8" points="195.51 739.51 205.18 739.51 205.2 737.82 195.51 737.82 195.51 739.51"/><polygon class="cls-8" points="247.3 760.19 256.88 760.19 257.03 737.82 246.69 737.82 247.3 760.19"/><polygon class="cls-8" points="45.77 739.51 45.77 733.69 50.97 733.69 50.97 732.56 36.85 732.56 36.85 739.51 45.77 739.51"/><polygon class="cls-8" points="191.48 727.25 191.48 732.56 257.07 732.56 257.11 727.25 191.48 727.25"/><polygon class="cls-8" points="191.48 727.25 257.11 727.25 257.15 720.6 191.48 721.1 191.48 727.25"/><polygon class="cls-8" points="191.48 732.56 191.48 733.69 195.51 733.69 195.51 737.82 205.2 737.82 205.26 733.69 246.58 734 246.69 737.82 257.03 737.82 257.07 732.56 191.48 732.56"/><rect class="cls-8" x="134.58" y="727.25" width="22.29" height="5.32"/><polygon class="cls-8" points="156.87 727.25 156.87 721.27 149.44 721.27 142.38 721.27 134.58 721.27 134.58 727.25 156.87 727.25"/><rect class="cls-8" x="134.58" y="732.56" width="22.29" height="1.13"/><polygon class="cls-8" points="247.3 720.6 257.15 720.6 257.15 701.78 257.15 700.94 247.3 700.94 247.3 720.6"/><path class="cls-8" d="M5.24,167.26,1.31,166.2C2.58,166.57,3.9,166.92,5.24,167.26Z"/><path class="cls-8" d="M94,171.2l-59.09.17,28.23-15.1a313.76,313.76,0,0,1-46.3-3.48c-8.66-1.26-8.87.57-15.55-4.95V166.2l3.93,1.06C29.74,173.44,65.78,174.38,94,171.2Z"/><path class="cls-8" d="M95,167.2l4-.2,23.21-1.3c23.81-8,22.62-25,22.62-25h0c-22.59,9.39-48.95,15.51-81.65,15.61l-28.23,15.1L94,171.2l1-.12Z"/><path class="cls-8" d="M99,167l-4,.2v3.88c1.71-.2,3.4-.41,5-.64l-3.91-3.28Z"/><path class="cls-8" d="M99,167l22.74-1.15.47-.15Z"/><path class="cls-8" d="M96.15,167.16l3.91,3.28a146.46,146.46,0,0,0,19.54-3.93c.74-.21,1.45-.43,2.15-.66L99,167Z"/><path class="cls-9" d="M354.14.62l3,1.46V.51c-.86,0-1.73,0-2.91.07v0C176.05,12.93,205.54,115.14,1.31,147.77c0,0,0,0,0,.07l85.61-4.28Z"/><path class="cls-9" d="M273,57.47c22.24-11.35,48.67-18.36,84.13-16.65V2.08l-3-1.46L86.92,143.56l57.89-2.9C197,119,229.13,79.84,273,57.47Z"/><path class="cls-9" d="M63.16,156.27l23.76-12.71L1.31,147.84c6.68,5.52,6.89,3.69,15.55,4.95A313.76,313.76,0,0,0,63.16,156.27Z"/><path class="cls-9" d="M86.92,143.56,63.16,156.27c32.7-.1,59.06-6.22,81.65-15.61Z"/><polygon class="cls-8" points="356.57 48.46 353.51 63.68 345.83 49.63 348.3 64.93 335.98 53.38 343.77 67.39 327.89 59.38 340.31 70.85 322.3 67.08 338.24 75.01 319.68 75.82 337.73 79.49 320.29 84.8 338.83 83.9 324.05 93.24 341.45 87.84 330.64 100.39 345.35 90.96 339.48 105.6 350.18 92.99 349.76 108.42 355.52 93.75 357.13 98.45 357.13 52.1 356.57 48.46"/><polygon class="cls-8" points="360.89 93.16 371.01 106.1 365.82 91.29 380.08 101.18 369.86 88.29 387 94.25 372.66 84.44 391.15 85.94 373.97 80.07 392.17 76.97 373.67 75.58 389.96 68.16 371.78 71.36 384.72 60.28 368.49 67.78 376.92 54.03 364.07 65.18 367.25 49.98 358.93 63.77 357.13 52.1 357.13 98.45 360.6 108.59 360.89 93.16"/><path class="cls-12" d="M227.38,149.07a275.36,275.36,0,0,1,28-11.54c-16.86,3.69-30.69,7.83-45,15.66-.11.07,2-1.45-2.53,1.35l-6.94,1.26c-.47,0-5.47-2.73-5,.9v5.41l8.07-.4C209.46,158.38,217.49,153.81,227.38,149.07Z"/><path class="cls-13" d="M227.38,149.07a275.36,275.36,0,0,1,28-11.54c-16.86,3.69-30.69,7.83-45,15.66-.11.07,2-1.45-2.53,1.35l-6.94,1.26c-.47,0-5.47-2.73-5,.9v5.41l8.07-.4C209.46,158.38,217.49,153.81,227.38,149.07Z"/><path class="cls-14" d="M227.38,149.07a275.36,275.36,0,0,1,28-11.54c-16.86,3.69-30.69,7.83-45,15.66-.11.07,2-1.45-2.53,1.35l-6.94,1.26c-.47,0-5.47-2.73-5,.9v5.41l8.07-.4C209.46,158.38,217.49,153.81,227.38,149.07Z"/><path class="cls-15" d="M227.38,149.07a275.36,275.36,0,0,1,28-11.54c-16.86,3.69-30.69,7.83-45,15.66-.11.07,2-1.45-2.53,1.35l-6.94,1.26c-.47,0-5.47-2.73-5,.9v5.41l8.07-.4C209.46,158.38,217.49,153.81,227.38,149.07Z"/><path class="cls-12" d="M275.46,144.77c.05-4.72-6.1-8.79-7.46-9.63a.77.77,0,0,0-.57-.1c-4.21.83-8.22,1.65-12.08,2.49a275.36,275.36,0,0,0-28,11.54c-9.89,4.74-17.92,9.31-23.47,12.64l-8.07.4v1.75h9.61C224.79,154.83,250.62,148.79,275.46,144.77Z"/><path class="cls-13" d="M275.46,144.77c.05-4.72-6.1-8.79-7.46-9.63a.77.77,0,0,0-.57-.1c-4.21.83-8.22,1.65-12.08,2.49a275.36,275.36,0,0,0-28,11.54c-9.89,4.74-17.92,9.31-23.47,12.64l-8.07.4v1.75h9.61C224.79,154.83,250.62,148.79,275.46,144.77Z"/><path class="cls-14" d="M275.46,144.77c.05-4.72-6.1-8.79-7.46-9.63a.77.77,0,0,0-.57-.1c-4.21.83-8.22,1.65-12.08,2.49a275.36,275.36,0,0,0-28,11.54c-9.89,4.74-17.92,9.31-23.47,12.64l-8.07.4v1.75h9.61C224.79,154.83,250.62,148.79,275.46,144.77Z"/><path class="cls-15" d="M275.46,144.77c.05-4.72-6.1-8.79-7.46-9.63a.77.77,0,0,0-.57-.1c-4.21.83-8.22,1.65-12.08,2.49a275.36,275.36,0,0,0-28,11.54c-9.89,4.74-17.92,9.31-23.47,12.64l-8.07.4v1.75h9.61C224.79,154.83,250.62,148.79,275.46,144.77Z"/><path class="cls-12" d="M251,174.37a9.84,9.84,0,0,0,1.22-3.61h-6.47a12.06,12.06,0,0,0,2.18,3.07c1.2,1.41,12.79,6.93,12.79,6.93,5.8-2.79,8.74-6.4,10-10.07l-17.46.05A13.22,13.22,0,0,1,251,174.37Z"/><path class="cls-13" d="M251,174.37a9.84,9.84,0,0,0,1.22-3.61h-6.47a12.06,12.06,0,0,0,2.18,3.07c1.2,1.41,12.79,6.93,12.79,6.93,5.8-2.79,8.74-6.4,10-10.07l-17.46.05A13.22,13.22,0,0,1,251,174.37Z"/><path class="cls-14" d="M251,174.37a9.84,9.84,0,0,0,1.22-3.61h-6.47a12.06,12.06,0,0,0,2.18,3.07c1.2,1.41,12.79,6.93,12.79,6.93,5.8-2.79,8.74-6.4,10-10.07l-17.46.05A13.22,13.22,0,0,1,251,174.37Z"/><path class="cls-15" d="M251,174.37a9.84,9.84,0,0,0,1.22-3.61h-6.47a12.06,12.06,0,0,0,2.18,3.07c1.2,1.41,12.79,6.93,12.79,6.93,5.8-2.79,8.74-6.4,10-10.07l-17.46.05A13.22,13.22,0,0,1,251,174.37Z"/><path class="cls-12" d="M195.84,206.81a.87.87,0,0,0,.84.9h62.37a.82.82,0,0,0,.56-.22c25.33-23.18-11.62-27.83-15.19-32.84a8.64,8.64,0,0,1-1.63-3.87l-46.95.13Z"/><path class="cls-13" d="M195.84,206.81a.87.87,0,0,0,.84.9h62.37a.82.82,0,0,0,.56-.22c25.33-23.18-11.62-27.83-15.19-32.84a8.64,8.64,0,0,1-1.63-3.87l-46.95.13Z"/><path class="cls-14" d="M195.84,206.81a.87.87,0,0,0,.84.9h62.37a.82.82,0,0,0,.56-.22c25.33-23.18-11.62-27.83-15.19-32.84a8.64,8.64,0,0,1-1.63-3.87l-46.95.13Z"/><path class="cls-15" d="M195.84,206.81a.87.87,0,0,0,.84.9h62.37a.82.82,0,0,0,.56-.22c25.33-23.18-11.62-27.83-15.19-32.84a8.64,8.64,0,0,1-1.63-3.87l-46.95.13Z"/><path class="cls-12" d="M247.79,167.81a7.1,7.1,0,0,0-2,1.85,1.17,1.17,0,0,0-.06,1.11h6.47C252.46,167,247.79,167.81,247.79,167.81Z"/><path class="cls-13" d="M247.79,167.81a7.1,7.1,0,0,0-2,1.85,1.17,1.17,0,0,0-.06,1.11h6.47C252.46,167,247.79,167.81,247.79,167.81Z"/><path class="cls-14" d="M247.79,167.81a7.1,7.1,0,0,0-2,1.85,1.17,1.17,0,0,0-.06,1.11h6.47C252.46,167,247.79,167.81,247.79,167.81Z"/><path class="cls-15" d="M247.79,167.81a7.1,7.1,0,0,0-2,1.85,1.17,1.17,0,0,0-.06,1.11h6.47C252.46,167,247.79,167.81,247.79,167.81Z"/><path class="cls-12" d="M267.3,154.3a.93.93,0,0,1,.27-1.45c5.89-2.59,7.87-5.44,7.89-8.08-24.84,4-50.67,10.06-70,19.09h-9.61v7l46.95-.13a4.17,4.17,0,0,1,0-1.22,4.81,4.81,0,0,1,1.37-2.75c2.86-2.64,9.61-2.32,9.53,1.22a8.17,8.17,0,0,1-.52,2.72l17.46-.05C273,163.71,269.23,156.51,267.3,154.3Z"/><path class="cls-13" d="M267.3,154.3a.93.93,0,0,1,.27-1.45c5.89-2.59,7.87-5.44,7.89-8.08-24.84,4-50.67,10.06-70,19.09h-9.61v7l46.95-.13a4.17,4.17,0,0,1,0-1.22,4.81,4.81,0,0,1,1.37-2.75c2.86-2.64,9.61-2.32,9.53,1.22a8.17,8.17,0,0,1-.52,2.72l17.46-.05C273,163.71,269.23,156.51,267.3,154.3Z"/><path class="cls-14" d="M267.3,154.3a.93.93,0,0,1,.27-1.45c5.89-2.59,7.87-5.44,7.89-8.08-24.84,4-50.67,10.06-70,19.09h-9.61v7l46.95-.13a4.17,4.17,0,0,1,0-1.22,4.81,4.81,0,0,1,1.37-2.75c2.86-2.64,9.61-2.32,9.53,1.22a8.17,8.17,0,0,1-.52,2.72l17.46-.05C273,163.71,269.23,156.51,267.3,154.3Z"/><path class="cls-15" d="M267.3,154.3a.93.93,0,0,1,.27-1.45c5.89-2.59,7.87-5.44,7.89-8.08-24.84,4-50.67,10.06-70,19.09h-9.61v7l46.95-.13a4.17,4.17,0,0,1,0-1.22,4.81,4.81,0,0,1,1.37-2.75c2.86-2.64,9.61-2.32,9.53,1.22a8.17,8.17,0,0,1-.52,2.72l17.46-.05C273,163.71,269.23,156.51,267.3,154.3Z"/><path class="cls-2" d="M618.24,171.2c28.24,3.18,64.28,2.24,88.78-3.94l-89.77,24.16V171.2Z"/><polygon class="cls-2" points="617.25 721.27 617.25 695.26 656.46 695.26 666.49 695.26 666.49 714.67 666.49 721.27 661.29 721.27 624.88 721.27 617.25 721.27"/><path class="cls-3" d="M516.42,156.7c.47-3.63-4.54-.9-5-.9l-6.94-1.26c-4.53-2.8-2.43-1.28-2.54-1.35-14.34-7.83-28.17-12-45-15.66-42.81-15-78.31-15.31-96.29-15.29-1.84,0-3.67,0-5.49.07V98.45l1.61-4.7,5.76,14.67L362.08,93l10.71,12.61L366.91,91l14.71,9.43L370.81,87.84l17.4,5.4L373.43,83.9l18.55.9-17.44-5.31,18-3.67L374,75,390,67.08l-18,3.77,12.42-11.47-15.88,8,7.79-14L364,64.93l2.47-15.3-7.68,14-3.06-15.22-.56,3.64V40.82c35.46-1.71,61.9,5.3,84.14,16.65,43.86,22.37,76,61.49,128.18,83.19h0s-1.18,17.05,22.62,25l-16.67-.94-.24.21-56.71-2.86Z"/><path class="cls-3" d="M618.24,171.2h-1v-.12Z"/><path class="cls-16" d="M611.32,171.18l5.93,0v20.22L573,203.32Z"/><polygon class="cls-16" points="552.42 682.84 520.79 682.84 520.79 210.29 521.72 210.29 564.71 210.29 564.71 576.08 564.71 210.29 573.02 203.32 617.25 191.42 617.25 682.84 581.03 682.84 552.42 682.84"/><path class="cls-16" d="M521.72,210.29V170.93l44.51.12-41,36.11.56-.55.34-.34.42-.4,1-1,.83-.81.78-.78,2.93-2.87,2.08-2.05.87-.85,4.72-4.64.17-.18,2.28-2.24.27-.26h0l-.27.26L540,192.68l-.17.18c-1.2,1.17-2.76,2.7-4.72,4.64l-.87.85-2.08,2.05-2.93,2.87-.78.78-.83.81-1,1-.42.4-.34.34-.56.55-3.55,3.13h0Z"/><polygon class="cls-16" points="605.93 721.27 577.69 721.27 569.88 721.27 569.88 701.47 569.88 695.26 581.03 695.26 617.25 695.26 617.25 721.27 605.93 721.27"/><polygon class="cls-16" points="562.82 721.27 555.39 721.27 543.7 721.27 520.79 721.1 520.79 695.26 552.42 695.26 562.82 695.26 562.82 701.47 562.82 721.27"/><path class="cls-3" d="M617.25,171.08v.12l-5.93,0,.88-.74C613.85,170.67,615.54,170.88,617.25,171.08Z"/><path class="cls-17" d="M617.25,171.08v.12l-5.93,0,.88-.74C613.85,170.67,615.54,170.88,617.25,171.08Z"/><path class="cls-3" d="M516.42,163.86v-1.75L573.13,165l-6.9,6.08-44.51-.12v-7.07Z"/><path class="cls-17" d="M516.42,163.86v-1.75L573.13,165l-6.9,6.08-44.51-.12v-7.07Z"/><path class="cls-3" d="M444.27,135.14c-1.37.84-7.52,4.91-7.47,9.63a687.43,687.43,0,0,0-81.47-7.85h-.2V122.31c1.82,0,3.65-.07,5.49-.07,18,0,53.48.33,96.29,15.29-3.85-.84-7.86-1.66-12.07-2.49A.76.76,0,0,0,444.27,135.14Z"/><path class="cls-17" d="M444.27,135.14c-1.37.84-7.52,4.91-7.47,9.63a687.43,687.43,0,0,0-81.47-7.85h-.2V122.31c1.82,0,3.65-.07,5.49-.07,18,0,53.48.33,96.29,15.29-3.85-.84-7.86-1.66-12.07-2.49A.76.76,0,0,0,444.27,135.14Z"/><path class="cls-6" d="M461.3,174.37a13.22,13.22,0,0,1-2.24-3.62h1A9.6,9.6,0,0,0,461.3,174.37Z"/><path class="cls-17" d="M461.3,174.37a13.22,13.22,0,0,1-2.24-3.62h1A9.6,9.6,0,0,0,461.3,174.37Z"/><path class="cls-6" d="M355.13,209V170.46l86.47.24c1.25,3.67,4.19,7.28,10,10.07,0,0,11.59-5.52,12.79-6.93a12.16,12.16,0,0,0,2.19-3.07h2.91a8.64,8.64,0,0,1-1.63,3.87c-3.57,5-40.52,9.66-15.19,32.84a.86.86,0,0,0,.56.22h62.37a.87.87,0,0,0,.84-.9v-35.9l5.3,0v39.36h-.93V209Z"/><path class="cls-17" d="M355.13,209V170.46l86.47.24c1.25,3.67,4.19,7.28,10,10.07,0,0,11.59-5.52,12.79-6.93a12.16,12.16,0,0,0,2.19-3.07h2.91a8.64,8.64,0,0,1-1.63,3.87c-3.57,5-40.52,9.66-15.19,32.84a.86.86,0,0,0,.56.22h62.37a.87.87,0,0,0,.84-.9v-35.9l5.3,0v39.36h-.93V209Z"/><path class="cls-3" d="M516.42,163.86h5.3v7.07l-5.3,0Z"/><path class="cls-7" d="M516.42,163.86h5.3v7.07l-5.3,0Z"/><path class="cls-17" d="M516.42,163.86h5.3v7.07l-5.3,0Z"/><path class="cls-3" d="M355.33,136.92a687.43,687.43,0,0,1,81.47,7.85c0,2.64,2,5.49,7.89,8.08a.93.93,0,0,1,.28,1.45c-1.94,2.21-5.74,9.41-3.37,16.4l-86.47-.24V136.92Z"/><path class="cls-7" d="M355.33,136.92a687.43,687.43,0,0,1,81.47,7.85c0,2.64,2,5.49,7.89,8.08a.93.93,0,0,1,.28,1.45c-1.94,2.21-5.74,9.41-3.37,16.4l-86.47-.24V136.92Z"/><path class="cls-17" d="M355.33,136.92a687.43,687.43,0,0,1,81.47,7.85c0,2.64,2,5.49,7.89,8.08a.93.93,0,0,1,.28,1.45c-1.94,2.21-5.74,9.41-3.37,16.4l-86.47-.24V136.92Z"/><path class="cls-3" d="M466.49,169.66a7.1,7.1,0,0,0-2-1.85s-4.67-.81-4.38,2.95h-1a8.43,8.43,0,0,1-.52-2.72c-.08-3.54,6.67-3.86,9.53-1.22a4.75,4.75,0,0,1,1.37,2.75,4.17,4.17,0,0,1,0,1.22h-2.91A1.17,1.17,0,0,0,466.49,169.66Z"/><path class="cls-7" d="M466.49,169.66a7.1,7.1,0,0,0-2-1.85s-4.67-.81-4.38,2.95h-1a8.43,8.43,0,0,1-.52-2.72c-.08-3.54,6.67-3.86,9.53-1.22a4.75,4.75,0,0,1,1.37,2.75,4.17,4.17,0,0,1,0,1.22h-2.91A1.17,1.17,0,0,0,466.49,169.66Z"/><path class="cls-17" d="M466.49,169.66a7.1,7.1,0,0,0-2-1.85s-4.67-.81-4.38,2.95h-1a8.43,8.43,0,0,1-.52-2.72c-.08-3.54,6.67-3.86,9.53-1.22a4.75,4.75,0,0,1,1.37,2.75,4.17,4.17,0,0,1,0,1.22h-2.91A1.17,1.17,0,0,0,466.49,169.66Z"/><path class="cls-8" d="M525.83,206.61l-.56.55h0Z"/><path class="cls-8" d="M526.59,205.87l1-1Z"/><path class="cls-8" d="M542.54,190.18Z"/><path class="cls-8" d="M532.15,200.4l2.08-2.05Z"/><path class="cls-8" d="M529.22,203.27l2.93-2.87Z"/><path class="cls-8" d="M526.17,206.27l.42-.4Z"/><path class="cls-8" d="M525.83,206.61l.34-.34Z"/><path class="cls-8" d="M527.61,204.86l.83-.81Z"/><path class="cls-8" d="M534.23,198.35l.87-.85Z"/><path class="cls-8" d="M540,192.68l2.28-2.24Z"/><path class="cls-8" d="M542.27,190.44l.27-.26Z"/><path class="cls-8" d="M539.82,192.86l.17-.18Z"/><path class="cls-8" d="M535.1,197.5c2-1.94,3.52-3.47,4.72-4.64Z"/><path class="cls-8" d="M528.44,204.05l.78-.78Z"/><path class="cls-8" d="M590,165.7l.47.15L573.13,165l.24-.21Z"/><path class="cls-8" d="M524.76,207.66l-.65.65-.23.22-1,1-.17.17-.14.13-.06.07.06-.07.14-.13.17-.17,1-1,.23-.22.65-.65.51-.5,41-36.11,45.09.13L573,203.32l-6.41,1.73,6.41-1.73-8.31,7h-43l3.55-3.13Z"/><path class="cls-8" d="M573.13,165l17.38.88c.7.23,1.41.45,2.15.66a146.79,146.79,0,0,0,19.54,3.93l-.88.74-45.09-.13Z"/><path class="cls-8" d="M522.88,209.51l-.17.17Z"/><path class="cls-8" d="M522.71,209.68l-.14.13Z"/><path class="cls-8" d="M524.76,207.66l-.65.65Z"/><path class="cls-8" d="M525.27,207.16h0l-.51.5Z"/><path class="cls-8" d="M523.88,208.53l-1,1Z"/><path class="cls-8" d="M524.11,208.31l-.23.22Z"/><path class="cls-8" d="M522.57,209.81l-.06.07Z"/><polygon class="cls-9" points="355.13 737.82 455.23 737.82 455.38 760.19 464.96 760.19 465.58 737.82 507.06 737.82 507.09 739.51 507.09 760.54 516.75 760.54 516.75 739.51 516.75 737.82 520.79 737.82 520.79 733.69 554.38 733.69 555.39 733.69 555.94 733.69 562.82 733.69 562.82 741.06 562.82 760.54 571.37 760.54 571.37 741.06 571.37 733.69 605.93 733.69 611.13 733.69 611.13 739.51 611.13 760.54 618.93 760.54 618.93 739.51 618.93 739.51 618.93 739.51 618.93 733.69 624.88 733.69 661.29 733.69 666.49 733.69 666.49 739.51 666.49 760.54 675.41 760.54 675.41 739.51 675.41 732.56 684.07 732.56 684.07 762.23 355.13 762.23 355.13 737.82"/><polygon class="cls-3" points="684.07 767.2 684.07 762.23 704.09 762.23 704.09 815.37 678.47 815.37 678.47 767.2 684.07 767.2"/><path class="cls-3" d="M355.13,800.07v15.3H678.46V767.2H355.13V778c4.49,2.68,7.35,6.61,7.35,11S359.62,797.4,355.13,800.07Zm250.46-9.86c0-8.05,9.5-14.58,21.21-14.58S648,782.16,648,790.21s-9.5,14.58-21.21,14.58S605.59,798.26,605.59,790.21Z"/><polygon class="cls-3" points="678.47 767.2 678.47 762.49 678.47 767.2 355.13 767.2 355.13 762.23 684.07 762.23 684.07 767.2 678.47 767.2"/><ellipse class="cls-10" cx="626.8" cy="790.21" rx="21.21" ry="14.58"/><path class="cls-10" d="M362.48,789.06c0,4.4-2.86,8.34-7.35,11V778C359.62,780.72,362.48,784.65,362.48,789.06Z"/><polygon class="cls-11" points="664.95 838.02 631.42 838.02 631.42 815.89 666.71 815.89 666.71 838.02 665.68 838.02 666.08 837.73 664.95 838.02"/><polygon class="cls-11" points="616.55 849.66 616.55 826.96 631.42 815.89 631.42 838.02 616.55 849.66"/><polygon class="cls-11" points="665.68 838.02 648.44 850.54 615.92 850.54 664.95 838.02 665.68 838.02"/><polygon class="cls-11" points="666.08 837.73 665.68 838.02 664.95 838.02 666.08 837.73"/><polygon class="cls-11" points="566.48 837.58 532.96 837.58 532.96 815.46 568.25 815.46 568.25 837.58 567.22 837.58 567.62 837.29 566.48 837.58"/><polygon class="cls-11" points="518.08 849.23 518.08 826.52 532.96 815.46 532.96 837.58 518.08 849.23"/><polygon class="cls-11" points="567.22 837.58 549.97 850.1 517.46 850.1 566.48 837.58 567.22 837.58"/><polygon class="cls-11" points="567.62 837.29 567.22 837.58 566.48 837.58 567.62 837.29"/><polygon class="cls-11" points="443.4 837.58 409.88 837.58 409.88 815.46 445.17 815.46 445.17 837.58 444.14 837.58 444.54 837.29 443.4 837.58"/><polygon class="cls-11" points="395.01 849.23 395.01 826.52 409.88 815.46 409.88 837.58 395.01 849.23"/><polygon class="cls-11" points="444.14 837.58 426.9 850.1 394.38 850.1 443.4 837.58 444.14 837.58"/><polygon class="cls-11" points="444.54 837.29 444.14 837.58 443.4 837.58 444.54 837.29"/><polygon class="cls-8" points="455.15 727.25 455.19 732.56 355.13 732.56 355.13 727.25 455.15 727.25"/><rect class="cls-8" x="355.13" y="210.29" width="165.65"/><polygon class="cls-8" points="464.96 695.26 464.96 700.94 455.11 700.94 455.11 695.26 455.38 695.26 464.96 695.26"/><polygon class="cls-8" points="455.11 720.6 464.96 720.6 464.96 700.94 464.96 695.26 465.68 695.26 482.94 695.26 520.79 695.26 520.79 721.1 455.11 720.6"/><path class="cls-8" d="M482.94,682.84h37.85V210.29H355.13v517h100l0-6.65V695.26h-8.22V682.84Zm-.62-218.4h-9.85v-6.21h9.85Z"/><path class="cls-8" d="M472.47,458.23h9.85v6.21h-9.85Z"/><rect class="cls-8" x="355.13" y="209.04" width="165.65" height="1.25"/><rect class="cls-8" x="516.75" y="733.69" width="4.04" height="4.14"/><polygon class="cls-8" points="507 733.69 507.06 737.82 465.58 737.82 465.68 734 507 733.69"/><polygon class="cls-8" points="455.19 732.56 455.23 737.82 355.13 737.82 355.13 732.56 455.19 732.56"/><polygon class="cls-8" points="656.46 695.26 656.46 682.84 685.27 682.84 689.16 682.84 681.73 695.26 676.52 695.26 675.41 695.26 666.49 695.26 656.46 695.26"/><rect class="cls-8" x="520.79" y="682.84" width="31.63" height="12.42"/><polygon class="cls-8" points="562.82 695.26 552.42 695.26 552.42 682.84 581.03 682.84 581.03 695.26 569.88 695.26 562.82 695.26"/><polygon class="cls-8" points="464.96 695.26 464.96 694.73 464.96 695.26 455.38 695.26 455.11 695.26 455.11 694.73 455.11 695.26 446.89 695.26 446.89 682.84 482.94 682.84 482.94 695.26 465.68 695.26 464.96 695.26"/><rect class="cls-8" x="482.94" y="682.84" width="37.85" height="12.42"/><rect class="cls-8" x="617.25" y="682.84" width="39.21" height="12.42"/><rect class="cls-8" x="581.03" y="682.84" width="36.22" height="12.42"/><rect class="cls-8" x="562.82" y="701.47" width="7.06" height="19.8"/><rect class="cls-8" x="562.82" y="695.26" width="7.06" height="6.21"/><rect class="cls-8" x="577.69" y="727.25" width="28.24" height="5.32"/><polygon class="cls-8" points="617.25 727.25 617.25 721.27 624.88 721.27 624.88 732.56 605.93 732.56 605.93 727.25 617.25 727.25"/><rect class="cls-8" x="520.79" y="727.25" width="34.61" height="5.32"/><polygon class="cls-8" points="661.29 721.27 666.49 721.27 666.49 714.67 675.41 714.67 675.41 732.56 661.29 732.56 661.29 721.27"/><rect class="cls-8" x="666.49" y="695.26" width="8.92" height="19.41"/><rect class="cls-8" x="624.88" y="721.27" width="36.41" height="11.29"/><rect class="cls-8" x="605.93" y="721.27" width="11.33" height="5.98"/><rect class="cls-8" x="577.69" y="721.27" width="28.24" height="5.98"/><polygon class="cls-8" points="543.7 721.27 555.39 721.27 555.39 727.25 520.79 727.25 520.79 721.1 543.7 721.27"/><rect class="cls-8" x="666.49" y="739.51" width="8.92" height="21.03"/><rect class="cls-8" x="611.13" y="739.51" width="7.8" height="21.03"/><polygon class="cls-8" points="577.69 732.56 605.93 732.56 605.93 733.69 571.37 733.69 571.37 741.06 562.82 741.06 562.82 733.69 555.94 733.69 555.39 733.69 577.69 733.69 577.69 732.56"/><polygon class="cls-8" points="624.88 732.56 624.88 733.69 618.93 733.69 618.93 739.51 611.13 739.51 611.13 733.69 605.93 733.69 605.93 732.56 624.88 732.56"/><polygon class="cls-8" points="555.39 732.56 555.39 733.69 554.38 733.69 520.79 733.69 520.79 732.56 555.39 732.56"/><rect class="cls-8" x="624.88" y="732.56" width="36.41" height="1.13"/><rect class="cls-8" x="562.82" y="741.06" width="8.55" height="19.48"/><rect class="cls-8" x="507.09" y="739.51" width="9.66" height="21.03"/><polygon class="cls-8" points="516.75 739.51 507.09 739.51 507.06 737.82 516.75 737.82 516.75 739.51"/><polygon class="cls-8" points="464.96 760.19 455.38 760.19 455.23 737.82 465.58 737.82 464.96 760.19"/><polygon class="cls-8" points="666.49 739.51 666.49 733.69 661.29 733.69 661.29 732.56 675.41 732.56 675.41 739.51 666.49 739.51"/><polygon class="cls-8" points="520.79 727.25 520.79 732.56 455.19 732.56 455.15 727.25 520.79 727.25"/><polygon class="cls-8" points="520.79 727.25 455.15 727.25 455.11 720.6 520.79 721.1 520.79 727.25"/><polygon class="cls-8" points="520.79 732.56 520.79 733.69 516.75 733.69 516.75 737.82 507.06 737.82 507 733.69 465.68 734 465.58 737.82 455.23 737.82 455.19 732.56 520.79 732.56"/><rect class="cls-8" x="555.39" y="727.25" width="22.29" height="5.32"/><polygon class="cls-8" points="555.39 727.25 555.39 721.27 562.82 721.27 569.88 721.27 577.69 721.27 577.69 727.25 555.39 727.25"/><rect class="cls-8" x="555.39" y="732.56" width="22.29" height="1.13"/><polygon class="cls-8" points="464.96 720.6 455.11 720.6 455.11 701.78 455.11 700.94 464.96 700.94 464.96 720.6"/><path class="cls-8" d="M707,167.26,711,166.2C709.68,166.57,708.36,166.92,707,167.26Z"/><path class="cls-8" d="M618.24,171.2l59.1.17-28.24-15.1a314,314,0,0,0,46.31-3.48c8.65-1.26,8.86.57,15.54-4.95V166.2L707,167.26C682.52,173.44,646.48,174.38,618.24,171.2Z"/><path class="cls-8" d="M617.25,167.2l-4-.2L590,165.7c-23.8-8-22.62-25-22.62-25h0c22.59,9.39,48.95,15.51,81.65,15.61l28.24,15.1-59.1-.17-1-.12Z"/><path class="cls-8" d="M613.25,167l4,.2v3.88c-1.71-.2-3.4-.41-5-.64l3.91-3.28Z"/><path class="cls-8" d="M613.25,167l-22.74-1.15-.47-.15Z"/><path class="cls-8" d="M616.11,167.16l-3.91,3.28a146.79,146.79,0,0,1-19.54-3.93c-.74-.21-1.45-.43-2.15-.66L613.25,167Z"/><path class="cls-9" d="M358.12.62l-3,1.46V.51c.86,0,1.74,0,2.91.07v0C536.21,12.93,506.73,115.14,711,147.77c0,0,0,0,0,.07l-85.61-4.28Z"/><path class="cls-9" d="M439.27,57.47C417,46.12,390.59,39.11,355.13,40.82V2.08l3-1.46L625.34,143.56l-57.89-2.9C515.23,119,483.13,79.84,439.27,57.47Z"/><path class="cls-9" d="M649.1,156.27l-23.76-12.71L711,147.84c-6.68,5.52-6.89,3.69-15.54,4.95A314,314,0,0,1,649.1,156.27Z"/><path class="cls-9" d="M625.34,143.56l23.76,12.71c-32.7-.1-59.06-6.22-81.65-15.61Z"/><polygon class="cls-8" points="355.69 48.46 358.75 63.68 366.43 49.63 363.96 64.93 376.29 53.38 368.49 67.39 384.37 59.38 371.95 70.85 389.96 67.08 374.03 75.01 392.58 75.82 374.54 79.49 391.98 84.8 373.43 83.9 388.21 93.24 370.81 87.84 381.62 100.39 366.91 90.96 372.79 105.6 362.08 92.99 362.5 108.42 356.74 93.75 355.13 98.45 355.13 52.1 355.69 48.46"/><path class="cls-12" d="M484.88,149.07a275.36,275.36,0,0,0-28-11.54c16.86,3.69,30.69,7.83,45,15.66.11.07-2-1.45,2.54,1.35l6.94,1.26c.46,0,5.47-2.73,5,.9v5.41l-8.07-.4C502.8,158.38,494.77,153.81,484.88,149.07Z"/><path class="cls-13" d="M484.88,149.07a275.36,275.36,0,0,0-28-11.54c16.86,3.69,30.69,7.83,45,15.66.11.07-2-1.45,2.54,1.35l6.94,1.26c.46,0,5.47-2.73,5,.9v5.41l-8.07-.4C502.8,158.38,494.77,153.81,484.88,149.07Z"/><path class="cls-14" d="M484.88,149.07a275.36,275.36,0,0,0-28-11.54c16.86,3.69,30.69,7.83,45,15.66.11.07-2-1.45,2.54,1.35l6.94,1.26c.46,0,5.47-2.73,5,.9v5.41l-8.07-.4C502.8,158.38,494.77,153.81,484.88,149.07Z"/><path class="cls-15" d="M484.88,149.07a275.36,275.36,0,0,0-28-11.54c16.86,3.69,30.69,7.83,45,15.66.11.07-2-1.45,2.54,1.35l6.94,1.26c.46,0,5.47-2.73,5,.9v5.41l-8.07-.4C502.8,158.38,494.77,153.81,484.88,149.07Z"/><path class="cls-12" d="M436.8,144.77c-.05-4.72,6.1-8.79,7.47-9.63a.76.76,0,0,1,.57-.1c4.21.83,8.22,1.65,12.07,2.49a275.36,275.36,0,0,1,28,11.54c9.89,4.74,17.92,9.31,23.47,12.64l8.07.4v1.75h-9.6C487.48,154.83,461.65,148.79,436.8,144.77Z"/><path class="cls-13" d="M436.8,144.77c-.05-4.72,6.1-8.79,7.47-9.63a.76.76,0,0,1,.57-.1c4.21.83,8.22,1.65,12.07,2.49a275.36,275.36,0,0,1,28,11.54c9.89,4.74,17.92,9.31,23.47,12.64l8.07.4v1.75h-9.6C487.48,154.83,461.65,148.79,436.8,144.77Z"/><path class="cls-14" d="M436.8,144.77c-.05-4.72,6.1-8.79,7.47-9.63a.76.76,0,0,1,.57-.1c4.21.83,8.22,1.65,12.07,2.49a275.36,275.36,0,0,1,28,11.54c9.89,4.74,17.92,9.31,23.47,12.64l8.07.4v1.75h-9.6C487.48,154.83,461.65,148.79,436.8,144.77Z"/><path class="cls-15" d="M436.8,144.77c-.05-4.72,6.1-8.79,7.47-9.63a.76.76,0,0,1,.57-.1c4.21.83,8.22,1.65,12.07,2.49a275.36,275.36,0,0,1,28,11.54c9.89,4.74,17.92,9.31,23.47,12.64l8.07.4v1.75h-9.6C487.48,154.83,461.65,148.79,436.8,144.77Z"/><path class="cls-12" d="M461.3,174.37a9.6,9.6,0,0,1-1.21-3.61h6.47a12.16,12.16,0,0,1-2.19,3.07c-1.2,1.41-12.79,6.93-12.79,6.93-5.79-2.79-8.73-6.4-10-10.07l17.46.05A13.22,13.22,0,0,0,461.3,174.37Z"/><path class="cls-13" d="M461.3,174.37a9.6,9.6,0,0,1-1.21-3.61h6.47a12.16,12.16,0,0,1-2.19,3.07c-1.2,1.41-12.79,6.93-12.79,6.93-5.79-2.79-8.73-6.4-10-10.07l17.46.05A13.22,13.22,0,0,0,461.3,174.37Z"/><path class="cls-14" d="M461.3,174.37a9.6,9.6,0,0,1-1.21-3.61h6.47a12.16,12.16,0,0,1-2.19,3.07c-1.2,1.41-12.79,6.93-12.79,6.93-5.79-2.79-8.73-6.4-10-10.07l17.46.05A13.22,13.22,0,0,0,461.3,174.37Z"/><path class="cls-15" d="M461.3,174.37a9.6,9.6,0,0,1-1.21-3.61h6.47a12.16,12.16,0,0,1-2.19,3.07c-1.2,1.41-12.79,6.93-12.79,6.93-5.79-2.79-8.73-6.4-10-10.07l17.46.05A13.22,13.22,0,0,0,461.3,174.37Z"/><path class="cls-12" d="M516.42,206.81a.87.87,0,0,1-.84.9H453.21a.86.86,0,0,1-.56-.22c-25.33-23.18,11.62-27.83,15.19-32.84a8.64,8.64,0,0,0,1.63-3.87l46.95.13Z"/><path class="cls-13" d="M516.42,206.81a.87.87,0,0,1-.84.9H453.21a.86.86,0,0,1-.56-.22c-25.33-23.18,11.62-27.83,15.19-32.84a8.64,8.64,0,0,0,1.63-3.87l46.95.13Z"/><path class="cls-14" d="M516.42,206.81a.87.87,0,0,1-.84.9H453.21a.86.86,0,0,1-.56-.22c-25.33-23.18,11.62-27.83,15.19-32.84a8.64,8.64,0,0,0,1.63-3.87l46.95.13Z"/><path class="cls-15" d="M516.42,206.81a.87.87,0,0,1-.84.9H453.21a.86.86,0,0,1-.56-.22c-25.33-23.18,11.62-27.83,15.19-32.84a8.64,8.64,0,0,0,1.63-3.87l46.95.13Z"/><path class="cls-12" d="M464.47,167.81a7.1,7.1,0,0,1,2,1.85,1.17,1.17,0,0,1,.07,1.11h-6.47C459.8,167,464.47,167.81,464.47,167.81Z"/><path class="cls-13" d="M464.47,167.81a7.1,7.1,0,0,1,2,1.85,1.17,1.17,0,0,1,.07,1.11h-6.47C459.8,167,464.47,167.81,464.47,167.81Z"/><path class="cls-14" d="M464.47,167.81a7.1,7.1,0,0,1,2,1.85,1.17,1.17,0,0,1,.07,1.11h-6.47C459.8,167,464.47,167.81,464.47,167.81Z"/><path class="cls-15" d="M464.47,167.81a7.1,7.1,0,0,1,2,1.85,1.17,1.17,0,0,1,.07,1.11h-6.47C459.8,167,464.47,167.81,464.47,167.81Z"/><path class="cls-12" d="M445,154.3a.93.93,0,0,0-.28-1.45c-5.89-2.59-7.86-5.44-7.89-8.08,24.85,4,50.68,10.06,70,19.09h9.6v7l-46.95-.13a4.17,4.17,0,0,0,0-1.22,4.75,4.75,0,0,0-1.37-2.75c-2.86-2.64-9.61-2.32-9.53,1.22a8.43,8.43,0,0,0,.52,2.72l-17.46-.05C439.23,163.71,443,156.51,445,154.3Z"/><path class="cls-13" d="M445,154.3a.93.93,0,0,0-.28-1.45c-5.89-2.59-7.86-5.44-7.89-8.08,24.85,4,50.68,10.06,70,19.09h9.6v7l-46.95-.13a4.17,4.17,0,0,0,0-1.22,4.75,4.75,0,0,0-1.37-2.75c-2.86-2.64-9.61-2.32-9.53,1.22a8.43,8.43,0,0,0,.52,2.72l-17.46-.05C439.23,163.71,443,156.51,445,154.3Z"/><path class="cls-14" d="M445,154.3a.93.93,0,0,0-.28-1.45c-5.89-2.59-7.86-5.44-7.89-8.08,24.85,4,50.68,10.06,70,19.09h9.6v7l-46.95-.13a4.17,4.17,0,0,0,0-1.22,4.75,4.75,0,0,0-1.37-2.75c-2.86-2.64-9.61-2.32-9.53,1.22a8.43,8.43,0,0,0,.52,2.72l-17.46-.05C439.23,163.71,443,156.51,445,154.3Z"/><path class="cls-15" d="M445,154.3a.93.93,0,0,0-.28-1.45c-5.89-2.59-7.86-5.44-7.89-8.08,24.85,4,50.68,10.06,70,19.09h9.6v7l-46.95-.13a4.17,4.17,0,0,0,0-1.22,4.75,4.75,0,0,0-1.37-2.75c-2.86-2.64-9.61-2.32-9.53,1.22a8.43,8.43,0,0,0,.52,2.72l-17.46-.05C439.23,163.71,443,156.51,445,154.3Z"/></g></g></g></g></svg>