<svg xmlns="http://www.w3.org/2000/svg" viewBox="0 0 248.05 390.74"><defs><style>.cls-1{fill:#d97671;stroke:#7a1715;stroke-miterlimit:10;}.cls-2{fill:#fff;}.cls-3{fill:#03045e;}</style></defs><title>tarjetaS</title><g id="Capa_2" data-name="Capa 2"><g id="Capa_1-2" data-name="Capa 1"><path class="cls-1" d="M74.34,312.55h9.85v6.21H74.34Z"/><polygon class="cls-2" points="1.05 390.74 245.2 390.74 245.2 153.38 215.59 151.34 206.39 124.27 188.01 102.83 168.1 82.91 145.12 61.98 129.8 36.44 125.08 23.17 115.88 44.1 105.29 59.93 87.42 76.78 64.95 92.61 45.03 112.53 35.84 128.36 34.31 141.63 33.29 153.38 18.48 154.91 8.78 155.42 10.31 223.34 5.71 260.61 8.27 305.04 7.25 383.17 1.05 390.74"/><path class="cls-3" d="M0,390.74V149.49H28.72s-30.42-22.85,70.8-90c0,0,26.34-37.94,24.51-59.45,0,0,4.52,32.82,24.5,57.27s84.26,67,70.8,92.22h28.72V390.74H237l-.25-232.28-25.32-1s2-36-55.55-75.16c0,0-23.31-21.86-31.86-47.51,0,0-10.58,35.91-30.71,45,0,0-66.07,43-57.93,77.14l-23.28.34L10.79,390.74Z"/></g></g></svg>